<?xml version="1.0" encoding="utf-8"?>
<!-- Generator: Adobe Illustrator 28.1.0, SVG Export Plug-In . SVG Version: 6.00 Build 0)  -->
<svg version="1.1" id="레이어_1" xmlns="http://www.w3.org/2000/svg" xmlns:xlink="http://www.w3.org/1999/xlink" x="0px"
	 y="0px" viewBox="0 0 20 20" style="enable-background:new 0 0 20 20;" xml:space="preserve">
<style type="text/css">
	.st0{fill:#FFFFFF;}
	.st1{fill:#FFEDE9;}
</style>
<g>
	<path class="st0" d="M13.2,11.6c-1.1,0-2-0.9-2-2s0.9-2,2-2s2,0.9,2,2S14.3,11.6,13.2,11.6z M13.2,8.6c-0.5,0-1,0.4-1,1
		c0,0.5,0.4,1,1,1c0.5,0,1-0.4,1-1C14.2,9.1,13.8,8.6,13.2,8.6z"/>
	<path class="st0" d="M14.6,5.9L16.3,4l-0.8-0.7l-2.1,2.4c0,0-0.1,0-0.1,0c-0.2,0-0.3,0-0.5,0c-0.1-0.1-0.2-0.2-0.3-0.4l0,0l1.6-4.1
		l-1-0.4l-1.5,3.8c-0.9-0.6-1.9-0.9-3-0.9c-3.2,0-5.7,2.6-5.7,5.7c0,3.2,2.6,5.7,5.7,5.7c1.6,0,3.1-0.7,4.1-1.8
		c0.2,0,0.4,0.1,0.6,0.1c2.2,0,3.9-1.7,3.9-3.9C17.2,7.9,16.1,6.5,14.6,5.9z M8.6,14.2c-2.6,0-4.7-2.1-4.7-4.7S6,4.8,8.6,4.8
		c1.2,0,2.3,0.5,3.1,1.2c-0.3,0.1-0.5,0.3-0.8,0.5C10.3,6,9.4,5.7,8.6,5.7c-2.1,0-3.9,1.7-3.9,3.9c0,2.1,1.7,3.9,3.9,3.9
		c0.9,0,1.7-0.3,2.4-0.8c0.2,0.1,0.4,0.3,0.6,0.4C10.8,13.8,9.8,14.2,8.6,14.2z M9.7,8.2C9.4,8,9,7.8,8.6,7.8
		c-0.9,0-1.7,0.7-1.7,1.7c0,0.9,0.7,1.7,1.7,1.7c0.4,0,0.7-0.1,1-0.4c0.1,0.4,0.3,0.7,0.5,1c-0.4,0.3-1,0.4-1.5,0.4
		C7,12.3,5.7,11,5.7,9.4c0-1.6,1.3-2.9,2.9-2.9c0.7,0,1.3,0.2,1.7,0.6C10.1,7.4,9.8,7.8,9.7,8.2z M9.3,9.5c0,0.4-0.3,0.7-0.7,0.7
		c-0.4,0-0.7-0.3-0.7-0.7s0.3-0.7,0.7-0.7C9,8.8,9.3,9.1,9.3,9.5z M13.3,12.6c-1.6,0-2.9-1.3-2.9-2.9c0-1.6,1.3-2.9,2.9-2.9
		c1.6,0,2.9,1.3,2.9,2.9C16.2,11.3,14.9,12.6,13.3,12.6z"/>
	<path class="st1" d="M17.8,10H2.2c0,2.7,2,4.9,4.9,5.8v1.1h5.8v-1.1C15.8,14.9,17.8,12.7,17.8,10z"/>
</g>
</svg>
