<svg width="21" height="20" viewBox="0 0 21 20" fill="none" xmlns="http://www.w3.org/2000/svg">
<path d="M17.7584 6.97554C15.0546 4.83501 10.4009 4.85235 10.4009 4.85235C10.4009 4.85235 5.75587 4.84368 3.04339 6.97554C0.764208 8.77808 0.93753 10.1647 1.19751 10.9359C1.51816 11.8892 2.98273 11.7679 5.64321 10.9793C8.44236 10.1473 10.4009 10.208 10.4009 10.208C10.4009 10.208 12.3594 10.156 15.1586 10.9793C17.8191 11.7679 19.2836 11.8892 19.6043 10.9359C19.8643 10.1647 20.0376 8.77808 17.7497 6.97554H17.7584ZM17.0911 8.59609C17.0045 8.69142 16.8918 8.73475 16.7705 8.73475C16.6665 8.73475 16.5625 8.70009 16.4758 8.62209C16.4585 8.60476 14.292 6.68089 10.3229 6.68089C6.35383 6.68089 4.35197 8.58743 4.33464 8.60476C4.16131 8.76942 3.89266 8.76942 3.71934 8.60476C3.55469 8.43144 3.55469 8.16279 3.71934 7.98947C3.806 7.90281 5.98119 5.81428 10.3142 5.81428C14.6473 5.81428 16.9611 7.89414 17.0564 7.9808C17.2298 8.14546 17.2471 8.41411 17.0824 8.59609H17.0911Z" fill="#FFEDE9"/>
<path d="M17.5766 12.1925C17.3427 13.2844 16.3634 14.1077 15.2021 14.1077H5.60877C4.44752 14.1077 3.46825 13.2844 3.23427 12.1925H2.19434C2.44565 13.8651 3.87556 15.1477 5.60877 15.1477H15.2108C16.9527 15.1477 18.3826 13.8564 18.6252 12.1925H17.5853H17.5766Z" fill="white"/>
</svg>
