<?xml version="1.0" encoding="utf-8"?>
<!-- Generator: Adobe Illustrator 28.1.0, SVG Export Plug-In . SVG Version: 6.00 Build 0)  -->
<svg version="1.1" id="레이어_1" xmlns="http://www.w3.org/2000/svg" xmlns:xlink="http://www.w3.org/1999/xlink" x="0px"
	 y="0px" viewBox="0 0 20 20" style="enable-background:new 0 0 20 20;" xml:space="preserve">
<style type="text/css">
	.st0{fill:#FFFFFF;}
	.st1{fill:#FFEDE9;}
</style>
<path class="st0" d="M12.1,18.2H7.9c-1.1,0-2-0.8-2.2-1.8L4.3,6c0-0.3,0.1-0.7,0.3-0.9c0.2-0.3,0.6-0.4,1-0.4h8.8
	c0.4,0,0.8,0.2,1,0.4c0.2,0.3,0.3,0.6,0.3,0.9l-1.4,10.4C14.1,17.4,13.2,18.2,12.1,18.2z M5.6,5.5c-0.2,0-0.3,0.1-0.4,0.2
	c0,0.1-0.1,0.2-0.1,0.3l1.4,10.4c0.1,0.6,0.7,1.1,1.4,1.1h4.2c0.7,0,1.3-0.5,1.4-1.1l1.4-10.4c0-0.1,0-0.2-0.1-0.3
	c-0.1-0.1-0.2-0.2-0.4-0.2H5.6z"/>
<path class="st0" d="M8.8,9.6L7.7,3.3L4.8,1.8L5.3,1l3.3,1.7l1.3,6.7L8.8,9.6z"/>
<path class="st1" d="M11.9,16.6H8.1c-0.4,0-0.7-0.2-0.7-0.6L6.3,8.6C6.3,8.3,6.5,8,6.8,8h6.3c0.3,0,0.6,0.3,0.6,0.5L12.7,16
	C12.6,16.3,12.3,16.6,11.9,16.6L11.9,16.6z"/>
</svg>
