<svg width="20" height="20" viewBox="0 0 20 20" fill="none" xmlns="http://www.w3.org/2000/svg">
<path d="M7.63 4C10.73 4 13.26 6.53 13.26 9.63C13.26 12.73 10.73 15.26 7.63 15.26C4.53 15.26 2 12.74 2 9.63C2 6.52 4.53 4 7.63 4ZM7.63 3C3.97 3 1 5.97 1 9.63C1 13.29 3.97 16.26 7.63 16.26C11.29 16.26 14.26 13.29 14.26 9.63C14.26 5.97 11.29 3 7.63 3Z" fill="#565C64"/>
<path d="M7.41992 16.26H7.62992C7.55992 16.26 7.48992 16.26 7.41992 16.25V16.26Z" fill="#565C64"/>
<path d="M7.41992 16.25L7.62992 16.26C7.55992 16.26 7.48992 16.26 7.41992 16.25Z" fill="#565C64"/>
<path d="M11.2695 15.76C13.3595 14.52 14.7595 12.23 14.7595 9.63C14.7595 7.03 13.3595 4.74 11.2695 3.5H12.3695C15.7495 3.5 18.4995 6.25 18.4995 9.63C18.4995 13.01 15.7495 15.76 12.3695 15.76H11.2695Z" fill="#565C64"/>
<path d="M12.7899 4.02C15.6999 4.24 17.9999 6.67 17.9999 9.63C17.9999 12.59 15.6999 15.03 12.7899 15.24C14.3099 13.84 15.2599 11.84 15.2599 9.63C15.2599 7.42 14.3099 5.41 12.7899 4.02ZM12.3699 3H7.62988C11.2899 3 14.2599 5.97 14.2599 9.63C14.2599 13.29 11.2899 16.26 7.62988 16.26H12.3699C16.0299 16.26 18.9999 13.29 18.9999 9.63C18.9999 5.97 16.0299 3 12.3699 3Z" fill="#565C64"/>
<path d="M7.41992 3.01C7.48992 3.01 7.55992 3 7.62992 3H7.41992V3.01Z" fill="#565C64"/>
<path d="M6.06031 9.85001H5.57031C5.01803 9.85001 4.57031 10.2977 4.57031 10.85V11.27C4.57031 11.8223 5.01803 12.27 5.57031 12.27H6.06031C6.6126 12.27 7.06031 11.8223 7.06031 11.27V10.85C7.06031 10.2977 6.6126 9.85001 6.06031 9.85001Z" fill="#FF896F"/>
<path d="M9.68933 10.3769L9.34285 10.0304C8.95232 9.63989 8.31916 9.63989 7.92864 10.0304L7.63165 10.3274C7.24113 10.7179 7.24113 11.3511 7.63165 11.7416L7.97813 12.0881C8.36866 12.4786 9.00182 12.4786 9.39235 12.0881L9.68933 11.7911C10.0799 11.4006 10.0799 10.7674 9.68933 10.3769Z" fill="#FF896F"/>
<path d="M6.84656 7.68953L6.50008 7.34305C6.10955 6.95252 5.47639 6.95252 5.08586 7.34305L4.78888 7.64003C4.39835 8.03056 4.39835 8.66372 4.78888 9.05425L5.13536 9.40073C5.52588 9.79125 6.15905 9.79125 6.54957 9.40073L6.84656 9.10374C7.23708 8.71322 7.23708 8.08005 6.84656 7.68953Z" fill="#FF896F"/>
<path d="M8.90992 7.16H8.41992C7.86764 7.16 7.41992 7.60772 7.41992 8.16V8.58C7.41992 9.13229 7.86764 9.58 8.41992 9.58H8.90992C9.46221 9.58 9.90992 9.13229 9.90992 8.58V8.16C9.90992 7.60772 9.46221 7.16 8.90992 7.16Z" fill="#FF896F"/>
</svg>
