<?xml version="1.0" encoding="utf-8"?>
<!-- Generator: Adobe Illustrator 28.1.0, SVG Export Plug-In . SVG Version: 6.00 Build 0)  -->
<svg version="1.1" id="레이어_1" xmlns="http://www.w3.org/2000/svg" xmlns:xlink="http://www.w3.org/1999/xlink" x="0px"
	 y="0px" viewBox="0 0 20 20" style="enable-background:new 0 0 20 20;" xml:space="preserve">
<style type="text/css">
	.st0{fill:#565C64;}
	.st1{fill:#FF896F;}
</style>
<g>
	<path class="st0" d="M11.9,2.8c-0.5,0-1,0.1-1.5,0.4l0,0l0,0l0,0C9.8,2.4,9,2,8,2C6.9,2,5.9,2.5,5.4,3.5c-0.1,0-0.2,0-0.3,0
		c-1.3,0-2.3,1-2.3,2.3C2.8,6.5,3,7,3.5,7.5h10.7c0.4-0.5,0.6-1.2,0.6-1.7C14.8,4.1,13.5,2.8,11.9,2.8z M13.5,6.4H4
		C3.9,6.2,3.8,6,3.8,5.8c0-0.7,0.6-1.3,1.3-1.3h0.1l0,0h0.1C5.7,4.5,6,4.3,6.2,4c0.3-0.6,1-1,1.7-1c1.5,0,2,1.4,1.9,2.4l1,0.1
		c0-0.5,0-1.1-0.1-1.4c0.2-0.2,0.5-0.3,1-0.3c0.5,0,1.2,0.2,1.7,0.8C13.9,5.3,13.6,6.2,13.5,6.4z"/>
	<path class="st1" d="M15.8,15.6h-2.4c-0.3,0-0.6-0.3-0.6-0.6s0.3-0.6,0.6-0.6h2.4c0.1,0,0.3-0.1,0.3-0.3V9.5c0-0.1-0.1-0.3-0.3-0.3
		h-2.4c-0.3,0-0.6-0.3-0.6-0.6S12.9,8,13.2,8h2.4c0.8,0,1.5,0.7,1.5,1.5v4.6C17.1,14.9,16.5,15.6,15.8,15.6z"/>
	<path class="st1" d="M3.5,7.5v8.8c0,1,0.8,1.7,1.7,1.7h7.3c1,0,1.7-0.8,1.7-1.7V7.5H3.5z M6.7,14.6c0,0.3-0.2,0.5-0.5,0.5
		s-0.5-0.2-0.5-0.5V9c0-0.3,0.2-0.5,0.5-0.5S6.7,8.7,6.7,9V14.6z M9.6,14.6c0,0.3-0.2,0.5-0.5,0.5s-0.5-0.2-0.5-0.5V9
		c0-0.3,0.2-0.5,0.5-0.5S9.6,8.8,9.6,9V14.6z M12.4,14.6c0,0.3-0.2,0.5-0.5,0.5s-0.5-0.2-0.5-0.5V9c0-0.3,0.2-0.5,0.5-0.5
		s0.5,0.2,0.5,0.5V14.6z"/>
</g>
</svg>
