<svg width="21" height="20" viewBox="0 0 21 20" fill="none" xmlns="http://www.w3.org/2000/svg">
<path d="M12.2846 18.2128H8.12826C7.021 18.2128 6.07901 17.436 5.9468 16.4114L4.52555 6.03295C4.47597 5.69416 4.58339 5.35537 4.81476 5.09095C5.06265 4.80174 5.43449 4.64474 5.82285 4.64474H14.5817C14.9701 4.64474 15.3419 4.81001 15.5898 5.09095C15.8212 5.35537 15.9204 5.69416 15.879 6.03295L14.4661 16.4114C14.3256 17.436 13.3836 18.2128 12.2846 18.2128ZM5.82285 5.46279C5.66586 5.46279 5.52538 5.52063 5.43449 5.62805C5.38491 5.6859 5.32707 5.78505 5.34359 5.91726L6.75658 16.2957C6.83922 16.9154 7.42589 17.3782 8.12 17.3782H12.2763C12.9704 17.3782 13.5571 16.9154 13.6397 16.2957L15.0527 5.91726C15.0693 5.78505 15.0114 5.6859 14.9618 5.62805C14.8709 5.52063 14.7305 5.46279 14.5735 5.46279H5.82285Z" fill="#565C64"/>
<path d="M9.04651 9.55335L7.86489 3.3395L5.00586 1.84388L5.46033 0.967987L8.74904 2.68671L10.0216 9.37156L9.04651 9.55335Z" fill="#565C64"/>
<path d="M12.1198 16.5852H8.28575C7.91391 16.5852 7.59991 16.3373 7.55034 16.015L6.49266 8.56169C6.45134 8.27248 6.7075 8.01633 7.04629 8.01633H13.3676C13.6981 8.01633 13.9625 8.27248 13.9212 8.56169L12.8635 16.015C12.8139 16.3373 12.4999 16.5852 12.1281 16.5852H12.1198Z" fill="#FF896F"/>
</svg>
