<?xml version="1.0" encoding="utf-8"?>
<!-- Generator: Adobe Illustrator 28.1.0, SVG Export Plug-In . SVG Version: 6.00 Build 0)  -->
<svg version="1.1" id="레이어_1" xmlns="http://www.w3.org/2000/svg" xmlns:xlink="http://www.w3.org/1999/xlink" x="0px"
	 y="0px" viewBox="0 0 20 20" style="enable-background:new 0 0 20 20;" xml:space="preserve">
<style type="text/css">
	.st0{fill:#FFFFFF;}
	.st1{fill:#FFEDE9;}
</style>
<g>
	<path class="st0" d="M11.8,2.7c-0.5,0-1,0.1-1.5,0.4l0,0l0,0l0,0C9.8,2.3,9,1.9,8,1.9c-1.1,0-2.1,0.5-2.6,1.5c-0.1,0-0.2,0-0.3,0
		c-1.3,0-2.3,1-2.3,2.3c0,0.7,0.2,1.2,0.7,1.7h10.7c0.4-0.5,0.6-1.2,0.6-1.7C14.8,4,13.5,2.7,11.8,2.7z M13.5,6.3H3.9
		C3.8,6.1,3.7,5.9,3.7,5.7C3.7,5,4.3,4.4,5,4.4h0.1l0,0h0.1c0.4,0,0.7-0.2,0.9-0.5c0.3-0.6,1-1,1.7-1c1.5,0,2,1.4,1.9,2.4l1,0.1
		c0-0.5,0-1.1-0.1-1.4c0.2-0.2,0.5-0.3,1-0.3s1.2,0.2,1.7,0.8C13.8,5.2,13.6,6.1,13.5,6.3z"/>
	<path class="st1" d="M15.9,15.5h-2.4c-0.3,0-0.6-0.3-0.6-0.6s0.3-0.6,0.6-0.6h2.4c0.1,0,0.3-0.1,0.3-0.3V9.4c0-0.1-0.1-0.3-0.3-0.3
		h-2.4c-0.3,0-0.6-0.3-0.6-0.6s0.1-0.6,0.4-0.6h2.4c0.8,0,1.5,0.7,1.5,1.5V14C17.1,14.8,16.5,15.5,15.9,15.5z"/>
	<path class="st1" d="M3.5,7.4v8.8c0,1,0.8,1.7,1.7,1.7h7.3c1,0,1.7-0.8,1.7-1.7V7.4H3.5z M6.7,14.5c0,0.3-0.2,0.5-0.5,0.5
		s-0.5-0.2-0.5-0.5V8.9c0-0.3,0.2-0.5,0.5-0.5s0.5,0.2,0.5,0.5V14.5z M9.7,14.5c0,0.3-0.2,0.5-0.5,0.5s-0.5-0.2-0.5-0.5V8.9
		c0-0.3,0.2-0.5,0.5-0.5s0.5,0.3,0.5,0.5V14.5z M12.4,14.5c0,0.3-0.2,0.5-0.5,0.5s-0.5-0.2-0.5-0.5V8.9c0-0.3,0.2-0.5,0.5-0.5
		s0.5,0.2,0.5,0.5V14.5z"/>
</g>
</svg>
