<svg width="21" height="20" viewBox="0 0 21 20" fill="none" xmlns="http://www.w3.org/2000/svg">
<path d="M12.5686 2.75814C12.0289 2.75814 11.5328 2.91482 11.0976 3.15853C11.0976 3.14983 11.0802 3.13242 11.0715 3.12372C10.5318 2.42738 9.68751 1.96606 8.73005 1.96606C7.60721 1.96606 6.63235 2.60147 6.12751 3.52411C6.02306 3.5067 5.91861 3.48929 5.80545 3.48929C4.52594 3.48929 3.48145 4.52509 3.48145 5.8133C3.48145 6.46611 3.75998 7.058 4.19519 7.4845H14.9709C15.3278 6.99707 15.5454 6.39648 15.5454 5.74367C15.5454 4.09858 14.2137 2.76685 12.5686 2.76685V2.75814ZM14.3616 6.4313H4.69132C4.58687 6.23981 4.52594 6.03091 4.52594 5.8046C4.52594 5.09956 5.10042 4.52509 5.80545 4.52509C5.84897 4.52509 5.8925 4.53379 5.93602 4.54249H5.97954C6.03177 4.5599 6.07528 4.5599 6.12751 4.5599C6.50179 4.5599 6.85866 4.351 7.04145 4.02025C7.38091 3.39355 8.02501 3.01056 8.72134 3.01056C10.1923 3.01056 10.732 4.40323 10.6014 5.44773L11.6459 5.53477C11.6982 4.95159 11.6285 4.48157 11.5328 4.10729C11.7156 3.95932 12.2465 3.80264 12.5686 3.80264C13.6305 3.80264 14.5009 4.66435 14.5009 5.73496C14.5009 5.97868 14.4574 6.21369 14.3616 6.4313Z" fill="#565C64"/>
<path d="M16.2421 15.501H13.8398C13.5003 15.501 13.2305 15.2312 13.2305 14.8917C13.2305 14.5523 13.5003 14.2824 13.8398 14.2824H16.2421C16.3814 14.2824 16.5032 14.1693 16.5032 14.0213V9.46904C16.5032 9.32977 16.3901 9.20792 16.2421 9.20792H13.8398C13.5003 9.20792 13.2305 8.93809 13.2305 8.59862C13.2305 8.25916 13.5003 7.98933 13.8398 7.98933H16.2421C17.0603 7.98933 17.7218 8.65085 17.7218 9.46904V14.0213C17.7218 14.8395 17.0603 15.501 16.2421 15.501Z" fill="#FF896F"/>
<path d="M4.15137 7.4758V16.2931C4.15137 17.2506 4.93474 18.0339 5.8922 18.0339H13.2211C14.1786 18.0339 14.9619 17.2506 14.9619 16.2931V7.4758H4.15137ZM7.3545 14.5175C7.3545 14.7786 7.1369 14.9962 6.87577 14.9962C6.61465 14.9962 6.39704 14.7786 6.39704 14.5175V8.98162C6.39704 8.72049 6.61465 8.50289 6.87577 8.50289C7.1369 8.50289 7.3545 8.72049 7.3545 8.98162V14.5175ZM10.1137 14.5175C10.1137 14.7786 9.89611 14.9962 9.63499 14.9962C9.37386 14.9962 9.15626 14.7786 9.15626 14.5175V8.98162C9.15626 8.72049 9.37386 8.50289 9.63499 8.50289C9.89611 8.50289 10.1137 8.72049 10.1137 8.98162V14.5175ZM12.8729 14.5175C12.8729 14.7786 12.6553 14.9962 12.3942 14.9962C12.1331 14.9962 11.9155 14.7786 11.9155 14.5175V8.98162C11.9155 8.72049 12.1331 8.50289 12.3942 8.50289C12.6553 8.50289 12.8729 8.72049 12.8729 8.98162V14.5175Z" fill="#FF896F"/>
</svg>
