<svg width="21" height="20" viewBox="0 0 21 20" fill="none" xmlns="http://www.w3.org/2000/svg">
<path d="M14.1177 13.5072C11.9819 13.5072 10.248 11.7734 10.248 9.6376C10.248 7.50175 11.9819 5.76794 14.1177 5.76794C16.2535 5.76794 17.9874 7.50175 17.9874 9.6376C17.9874 11.7734 16.2535 13.5072 14.1177 13.5072ZM14.1177 6.7898C12.543 6.7898 11.2615 8.07131 11.2615 9.64597C11.2615 11.2206 12.543 12.5021 14.1177 12.5021C15.6924 12.5021 16.9739 11.2206 16.9739 9.64597C16.9739 8.07131 15.6924 6.7898 14.1177 6.7898Z" fill="white"/>
<path d="M14.0336 11.6482C12.928 11.6482 12.0234 10.7519 12.0234 9.63796C12.0234 8.52396 12.9197 7.62775 14.0336 7.62775C15.1476 7.62775 16.0439 8.53234 16.0439 9.63796C16.0439 10.7436 15.1476 11.6482 14.0336 11.6482ZM14.0336 8.6496C13.4892 8.6496 13.0453 9.09352 13.0453 9.63796C13.0453 10.1824 13.4892 10.6263 14.0336 10.6263C14.5781 10.6263 15.022 10.1824 15.022 9.63796C15.022 9.09352 14.5781 8.6496 14.0336 8.6496Z" fill="white"/>
<path d="M9.38615 11.2199C8.4313 11.2199 7.65234 10.441 7.65234 9.48614C7.65234 8.53129 8.4313 7.75233 9.38615 7.75233C10.341 7.75233 11.12 8.53129 11.12 9.48614C11.12 10.441 10.341 11.2199 9.38615 11.2199ZM9.38615 8.76582C8.99248 8.76582 8.66582 9.0841 8.66582 9.48614C8.66582 9.88818 8.99248 10.2065 9.38615 10.2065C9.77982 10.2065 10.1065 9.88818 10.1065 9.48614C10.1065 9.0841 9.77982 8.76582 9.38615 8.76582Z" fill="white"/>
<path d="M11.4039 11.4969C10.8846 12.0162 10.1726 12.3428 9.3769 12.3428C7.80224 12.3428 6.52073 11.0613 6.52073 9.48666C6.52073 7.91199 7.80224 6.63048 9.3769 6.63048C10.1642 6.63048 10.8846 6.95714 11.4039 7.47645C11.6049 7.20004 11.8478 6.96552 12.1242 6.7645C11.4206 6.06093 10.4574 5.617 9.38528 5.617C7.24943 5.617 5.51562 7.35081 5.51562 9.48666C5.51562 11.6225 7.24943 13.3563 9.38528 13.3563C10.4574 13.3563 11.429 12.9208 12.1242 12.2088C11.8478 12.0078 11.6049 11.7649 11.4039 11.4969Z" fill="white"/>
<path d="M12.9034 12.6367C12.0323 13.6083 10.7843 14.2197 9.37712 14.2197C6.76385 14.2197 4.64475 12.0923 4.64475 9.48736C4.64475 6.88247 6.77222 4.755 9.37712 4.755C10.7759 4.755 12.0323 5.36644 12.9034 6.33804C13.2551 6.20402 13.6321 6.12864 14.0257 6.11189C12.9787 4.67961 11.2868 3.74152 9.3855 3.74152C6.21942 3.74152 3.63965 6.32128 3.63965 9.48736C3.63965 12.6534 6.21942 15.2332 9.3855 15.2332C11.2952 15.2332 12.9787 14.2951 14.0257 12.8628C13.6321 12.8545 13.2551 12.7707 12.9034 12.6367Z" fill="white"/>
<path d="M13.8722 0.905128L12.2959 4.99228L13.2806 5.37203L14.8568 1.28488L13.8722 0.905128Z" fill="white"/>
<path d="M16.3371 3.30399L14.1406 5.845L14.939 6.53515L17.1355 3.99415L16.3371 3.30399Z" fill="white"/>
<path d="M18.6406 9.96408C18.6406 13.4317 15.1311 16.246 10.8008 16.246C6.47043 16.246 2.96094 13.4317 2.96094 9.96408H18.6322H18.6406Z" fill="#FFEDE9"/>
<path d="M13.7152 15.4759H7.90234V16.9166H13.7152V15.4759Z" fill="#FFEDE9"/>
</svg>
