<?xml version="1.0" encoding="utf-8"?>
<!-- Generator: Adobe Illustrator 28.1.0, SVG Export Plug-In . SVG Version: 6.00 Build 0)  -->
<svg version="1.1" id="레이어_1" xmlns="http://www.w3.org/2000/svg" xmlns:xlink="http://www.w3.org/1999/xlink" x="0px"
	 y="0px" viewBox="0 0 20 20" style="enable-background:new 0 0 20 20;" xml:space="preserve">
<style type="text/css">
	.st0{fill:#FF896F;}
	.st1{fill:#565C64;}
</style>
<g>
	<path class="st0" d="M17.4,7C14.7,4.8,10,4.9,10,4.9S5.4,4.8,2.6,7c-2.3,1.8-2.1,3.2-1.8,4c0.3,1,1.8,0.8,4.4,0
		C8,10.1,10,10.2,10,10.2s2-0.1,4.8,0.8c2.7,0.8,4.1,0.9,4.4,0C19.5,10.2,19.6,8.8,17.4,7L17.4,7z M16.7,8.6
		c-0.1,0.1-0.2,0.1-0.3,0.1c-0.1,0-0.2,0-0.3-0.1c0,0-2.2-1.9-6.2-1.9c-4,0-6,1.9-6,1.9c-0.2,0.2-0.4,0.2-0.6,0
		C3.2,8.4,3.2,8.2,3.3,8c0.1-0.1,2.3-2.2,6.6-2.2c4.3,0,6.6,2.1,6.7,2.2C16.8,8.1,16.8,8.4,16.7,8.6L16.7,8.6z"/>
	<path class="st1" d="M17.2,12.2c-0.2,1.1-1.2,1.9-2.4,1.9H5.2c-1.2,0-2.1-0.8-2.4-1.9h-1c0.3,1.7,1.7,3,3.4,3h9.6
		c1.7,0,3.2-1.3,3.4-3H17.2L17.2,12.2z"/>
</g>
</svg>
