<svg width="20" height="20" viewBox="0 0 20 20" fill="none" xmlns="http://www.w3.org/2000/svg">
<path d="M12.44 5.40311L12.5762 4.86677C12.6869 4.42408 12.3549 3.99841 11.8952 3.99841H8.0897C7.6385 3.99841 7.29796 4.42408 7.40864 4.86677L7.54485 5.40311C2.12186 6.05864 1.93457 8.84249 1.93457 8.84249H18.0503C18.0503 8.84249 17.8715 6.05864 12.4315 5.40311H12.44Z" fill="#565C64"/>
<path d="M18.5605 9.69397H1.43173C0.903906 9.69397 0.469727 10.1196 0.469727 10.656C0.469727 11.1838 0.895393 11.618 1.43173 11.618H1.73821C1.9255 14.0698 3.9687 16.0023 6.47162 16.0023H13.5292C16.0321 16.0023 18.0753 14.0698 18.2626 11.618H18.569C19.0969 11.618 19.5311 11.1923 19.5311 10.656C19.5311 10.1281 19.1054 9.69397 18.569 9.69397H18.5605Z" fill="#565C64"/>
</svg>
