<svg width="20" height="20" viewBox="0 0 20 20" fill="none" xmlns="http://www.w3.org/2000/svg">
<path fill-rule="evenodd" clip-rule="evenodd" d="M7.33333 6.66667C7.33333 5.95942 7.61428 5.28115 8.11438 4.78105C8.61448 4.28095 9.29276 4 10 4C10.7072 4 11.3855 4.28095 11.8856 4.78105C12.3857 5.28115 12.6667 5.95942 12.6667 6.66667C12.6667 7.37391 12.3857 8.05219 11.8856 8.55229C11.3855 9.05238 10.7072 9.33333 10 9.33333C9.29276 9.33333 8.61448 9.05238 8.11438 8.55229C7.61428 8.05219 7.33333 7.37391 7.33333 6.66667ZM7.33333 10.6667C6.44928 10.6667 5.60143 11.0179 4.97631 11.643C4.35119 12.2681 4 13.1159 4 14C4 14.5304 4.21071 15.0391 4.58579 15.4142C4.96086 15.7893 5.46957 16 6 16H14C14.5304 16 15.0391 15.7893 15.4142 15.4142C15.7893 15.0391 16 14.5304 16 14C16 13.1159 15.6488 12.2681 15.0237 11.643C14.3986 11.0179 13.5507 10.6667 12.6667 10.6667H7.33333Z" fill="#CBD0D5"/>
</svg>
