<svg width="20" height="20" viewBox="0 0 20 20" fill="none" xmlns="http://www.w3.org/2000/svg">
<path d="M8.87186 2.36421C9.32465 1.41531 10.6754 1.41531 11.1281 2.36421L12.588 5.42352C12.7702 5.80541 13.1333 6.06918 13.5528 6.12448L16.9135 6.56748C17.9558 6.70489 18.3732 7.98948 17.6107 8.71334L15.1522 11.0471C14.8453 11.3384 14.7067 11.7652 14.7837 12.1813L15.4009 15.5144C15.5923 16.5482 14.4996 17.3421 13.5755 16.8406L10.5963 15.2236C10.2244 15.0218 9.77562 15.0218 9.40373 15.2236L6.42448 16.8406C5.50041 17.3421 4.40767 16.5482 4.59911 15.5144L5.2163 12.1813C5.29334 11.7652 5.15467 11.3384 4.84778 11.0471L2.38932 8.71334C1.62678 7.98948 2.04417 6.70489 3.08655 6.56748L6.44724 6.12448C6.86675 6.06918 7.2298 5.80541 7.41202 5.42352L8.87186 2.36421Z" fill="#FF4A22"/>
</svg>
