<svg width="16" height="16" viewBox="0 0 16 16" fill="none" xmlns="http://www.w3.org/2000/svg">
<circle cx="8" cy="8" r="8" fill="#FF4A22"/>
<path fill-rule="evenodd" clip-rule="evenodd" d="M8.00008 4C8.36827 4 8.66675 4.29848 8.66675 4.66667V7.33321H11.3333C11.7015 7.33321 12 7.63169 12 7.99988C12 8.36807 11.7015 8.66654 11.3333 8.66654H8.66675L8.66675 11.3333C8.66675 11.7015 8.36827 12 8.00008 12C7.63189 12 7.33341 11.7015 7.33341 11.3333L7.33341 8.66654L4.66667 8.66654C4.29848 8.66654 4 8.36807 4 7.99988C4 7.63169 4.29848 7.33321 4.66667 7.33321L7.33341 7.33321V4.66667C7.33341 4.29848 7.63189 4 8.00008 4Z" fill="#192028"/>
</svg>
