<svg width="16" height="16" viewBox="0 0 16 16" fill="none" xmlns="http://www.w3.org/2000/svg">
<path fill-rule="evenodd" clip-rule="evenodd" d="M5.33333 4.66667C5.33333 3.95942 5.61428 3.28115 6.11438 2.78105C6.61448 2.28095 7.29276 2 8 2C8.70724 2 9.38552 2.28095 9.88562 2.78105C10.3857 3.28115 10.6667 3.95942 10.6667 4.66667C10.6667 5.37391 10.3857 6.05219 9.88562 6.55229C9.38552 7.05238 8.70724 7.33333 8 7.33333C7.29276 7.33333 6.61448 7.05238 6.11438 6.55229C5.61428 6.05219 5.33333 5.37391 5.33333 4.66667ZM5.33333 8.66667C4.44928 8.66667 3.60143 9.01786 2.97631 9.64298C2.35119 10.2681 2 11.1159 2 12C2 12.5304 2.21071 13.0391 2.58579 13.4142C2.96086 13.7893 3.46957 14 4 14H12C12.5304 14 13.0391 13.7893 13.4142 13.4142C13.7893 13.0391 14 12.5304 14 12C14 11.1159 13.6488 10.2681 13.0237 9.64298C12.3986 9.01786 11.5507 8.66667 10.6667 8.66667H5.33333Z" fill="#CBD0D5"/>
</svg>
