<svg width="17" height="16" viewBox="0 0 17 16" fill="none" xmlns="http://www.w3.org/2000/svg">
<path fill-rule="evenodd" clip-rule="evenodd" d="M12.6721 2.33886C12.859 2.41625 12.9808 2.59856 12.9808 2.8008V5.62922C12.9808 5.90537 12.7569 6.12922 12.4808 6.12922H9.65236C9.45013 6.12922 9.26781 6.0074 9.19042 5.82056C9.11303 5.63373 9.15581 5.41867 9.29881 5.27567L10.2909 4.28359C8.57924 3.58516 6.54172 3.93122 5.15326 5.31968C3.30477 7.16816 3.30477 10.1651 5.15326 12.0136C7.00174 13.8621 9.99872 13.8621 11.8472 12.0136C12.9219 10.9389 13.3722 9.4765 13.1967 8.07487C13.1555 7.74607 13.3887 7.44615 13.7175 7.40498C14.0463 7.36381 14.3462 7.59699 14.3874 7.92579C14.6069 9.67912 14.0434 11.5144 12.6957 12.8622C10.3786 15.1793 6.62184 15.1793 4.30473 12.8622C1.98762 10.545 1.98762 6.78827 4.30473 4.47115C6.16172 2.61416 8.94212 2.24599 11.1658 3.36417C11.1755 3.36904 11.1842 3.37537 11.1916 3.38285L12.1272 2.44724C12.2702 2.30424 12.4853 2.26147 12.6721 2.33886Z" fill="white"/>
</svg>
