<svg width="24" height="24" viewBox="0 0 24 24" fill="none" xmlns="http://www.w3.org/2000/svg">
<path d="M7 4C5.34315 4 4 5.34315 4 7V17C4 18.6569 5.34315 20 7 20H17C18.6569 20 20 18.6569 20 17V13C20 12.4477 19.5523 12 19 12C18.4477 12 18 12.4477 18 13V15.5749L16.0671 13.1422C15.4777 12.4003 14.3565 12.384 13.7458 13.1085L13.5387 13.3543C13.1235 13.8468 12.3577 13.824 11.9725 13.3077L9.86075 10.4767C9.29231 9.7147 8.16739 9.66696 7.53641 10.3781L6 12.1097V7C6 6.44772 6.44772 6 7 6H12C12.5523 6 13 5.55228 13 5C13 4.44772 12.5523 4 12 4H7Z" fill="#FF4A22"/>
<path fill-rule="evenodd" clip-rule="evenodd" d="M16 4C14.8954 4 14 4.89543 14 6V9C14 10.1046 14.8954 11 16 11H19C20.1046 11 21 10.1046 21 9V6C21 4.89543 20.1046 4 19 4H16ZM17.4996 5.30044C17.8642 5.30044 18.1598 5.59605 18.1598 5.9607V6.83968H19.0385C19.4031 6.83968 19.6987 7.13529 19.6987 7.49994C19.6987 7.86459 19.4031 8.1602 19.0385 8.1602H18.1598V9.03915C18.1598 9.4038 17.8642 9.69941 17.4996 9.69941C17.1349 9.69941 16.8393 9.4038 16.8393 9.03915V8.1602H15.96C15.5954 8.1602 15.2998 7.86459 15.2998 7.49994C15.2998 7.13529 15.5954 6.83968 15.96 6.83968H16.8393V5.9607C16.8393 5.59605 17.1349 5.30044 17.4996 5.30044Z" fill="#FF4A22"/>
</svg>
