<svg width="25" height="25" viewBox="0 0 25 25" xmlns="http://www.w3.org/2000/svg">
<path d="M12.3999 0.909058C15.5825 0.909058 18.6347 2.17334 20.8852 4.42378C23.1356 6.67421 24.3999 9.72646 24.3999 12.9091C24.3999 16.0917 23.1356 19.1439 20.8852 21.3943C18.6347 23.6448 15.5825 24.9091 12.3999 24.9091C9.2173 24.9091 6.16506 23.6448 3.91462 21.3943C1.66418 19.1439 0.399902 16.0917 0.399902 12.9091C0.399902 9.72646 1.66418 6.67421 3.91462 4.42378C6.16506 2.17334 9.2173 0.909058 12.3999 0.909058ZM13.9929 7.37706C13.9929 6.97923 13.8349 6.5977 13.5536 6.3164C13.2723 6.03509 12.8907 5.87706 12.4929 5.87706C12.0951 5.87706 11.7135 6.03509 11.4322 6.3164C11.1509 6.5977 10.9929 6.97923 10.9929 7.37706V11.5021H6.8679C6.47008 11.5021 6.08855 11.6601 5.80724 11.9414C5.52594 12.2227 5.3679 12.6042 5.3679 13.0021C5.3679 13.3999 5.52594 13.7814 5.80724 14.0627C6.08855 14.344 6.47008 14.5021 6.8679 14.5021H10.9929V18.6271C10.9929 19.0249 11.1509 19.4064 11.4322 19.6877C11.7135 19.969 12.0951 20.1271 12.4929 20.1271C12.8907 20.1271 13.2723 19.969 13.5536 19.6877C13.8349 19.4064 13.9929 19.0249 13.9929 18.6271V14.5021H18.1179C18.5157 14.5021 18.8973 14.344 19.1786 14.0627C19.4599 13.7814 19.6179 13.3999 19.6179 13.0021C19.6179 12.6042 19.4599 12.2227 19.1786 11.9414C18.8973 11.6601 18.5157 11.5021 18.1179 11.5021H13.9929V7.37706Z"/>
</svg>
