<svg width="25" height="24" viewBox="0 0 25 24" fill="none" xmlns="http://www.w3.org/2000/svg">
<path d="M17.8311 21.2377C16.7972 22.2403 15.6685 22.082 14.5819 21.6071C13.4321 21.1216 12.3771 21.1005 11.164 21.6071C9.64491 22.2615 8.84317 22.0715 7.93595 21.2377C2.78795 15.9289 3.54749 7.84439 9.39173 7.54887C10.8159 7.62275 11.8075 8.32988 12.6409 8.39321C13.8857 8.13991 15.0777 7.41167 16.4069 7.50665C17.9998 7.6333 19.2025 8.26656 19.9936 9.40641C16.7023 11.3801 17.4829 15.7178 20.5 16.9316C19.8987 18.5147 19.1181 20.0873 17.8205 21.2483L17.8311 21.2377ZM12.5354 7.48554C12.3771 5.13195 14.2865 3.18998 16.4808 3C16.7867 5.72299 14.0123 7.7494 12.5354 7.48554Z" fill="#192028"/>
</svg>
