<svg width="24" height="24" viewBox="0 0 24 24" fill="none" xmlns="http://www.w3.org/2000/svg">
<path fill-rule="evenodd" clip-rule="evenodd" d="M13 4.06189V3C13 2.44772 12.5523 2 12 2C11.4477 2 11 2.44772 11 3V4.06189C7.05369 4.55399 4 7.92038 4 12V15.8421C4 17.5862 5.41384 19 7.1579 19H9C9 20.6569 10.3431 22 12 22C13.6569 22 15 20.6569 15 19H16.8421C18.5862 19 20 17.5862 20 15.8421V12C20 7.92038 16.9463 4.55399 13 4.06189ZM12 6C8.68629 6 6 8.68629 6 12V15.8421C6 16.4816 6.51841 17 7.1579 17H16.8421C17.4816 17 18 16.4816 18 15.8421V12C18 8.68629 15.3137 6 12 6ZM13 19H11C11 19.5523 11.4477 20 12 20C12.5523 20 13 19.5523 13 19Z" fill="#565C64"/>
</svg>
