<svg width="24" height="24" viewBox="0 0 24 24" fill="currentColor" xmlns="http://www.w3.org/2000/svg">
<path d="M22 12C22 17.5228 17.5228 22 12 22C6.47715 22 2 17.5228 2 12C2 6.47715 6.47715 2 12 2C17.5228 2 22 6.47715 22 12Z" fill="currentColor"/>
<path fill-rule="evenodd" clip-rule="evenodd" d="M17.7276 9.31399C18.1065 9.71582 18.0878 10.3487 17.686 10.7276L11.3224 16.7276C10.9371 17.0908 10.3356 17.0908 9.95035 16.7276L6.31399 13.299C5.91215 12.9201 5.89354 12.2873 6.27241 11.8854C6.65128 11.4836 7.28418 11.465 7.68601 11.8438L10.6364 14.6256L16.314 9.27241C16.7158 8.89354 17.3487 8.91215 17.7276 9.31399Z" fill="white"/>
</svg>
