<svg width="25" height="21" viewBox="0 0 25 21" xmlns="http://www.w3.org/2000/svg">
<path d="M13.4933 5.88403C13.1602 5.88403 12.8406 6.01639 12.605 6.25199C12.3694 6.48759 12.2371 6.80713 12.2371 7.14031C12.2371 7.4735 12.3694 7.79304 12.605 8.02864C12.8406 8.26424 13.1602 8.3966 13.4933 8.3966H18.5185C18.8517 8.3966 19.1712 8.26424 19.4068 8.02864C19.6424 7.79304 19.7747 7.4735 19.7747 7.14031C19.7747 6.80713 19.6424 6.48759 19.4068 6.25199C19.1712 6.01639 18.8517 5.88403 18.5185 5.88403H13.4933ZM13.4933 17.1906C13.1602 17.1906 12.8406 17.3229 12.605 17.5585C12.3694 17.7941 12.2371 18.1137 12.2371 18.4468C12.2371 18.78 12.3694 19.0996 12.605 19.3352C12.8406 19.5708 13.1602 19.7031 13.4933 19.7031H18.5185C18.8517 19.7031 19.1712 19.5708 19.4068 19.3352C19.6424 19.0996 19.7747 18.78 19.7747 18.4468C19.7747 18.1137 19.6424 17.7941 19.4068 17.5585C19.1712 17.3229 18.8517 17.1906 18.5185 17.1906H13.4933Z"/>
<path d="M13.4933 2.11511C13.1602 2.11511 12.8406 2.24747 12.605 2.48307C12.3694 2.71867 12.2371 3.03821 12.2371 3.37139C12.2371 3.70458 12.3694 4.02412 12.605 4.25972C12.8406 4.49532 13.1602 4.62768 13.4933 4.62768H23.5436C23.8768 4.62768 24.1963 4.49532 24.4319 4.25972C24.6675 4.02412 24.7999 3.70458 24.7999 3.37139C24.7999 3.03821 24.6675 2.71867 24.4319 2.48307C24.1963 2.24747 23.8768 2.11511 23.5436 2.11511H13.4933ZM13.4933 13.4216C13.1602 13.4216 12.8406 13.554 12.605 13.7896C12.3694 14.0252 12.2371 14.3447 12.2371 14.6779C12.2371 15.0111 12.3694 15.3307 12.605 15.5663C12.8406 15.8018 13.1602 15.9342 13.4933 15.9342H23.5436C23.8768 15.9342 24.1963 15.8018 24.4319 15.5663C24.6675 15.3307 24.7999 15.0111 24.7999 14.6779C24.7999 14.3447 24.6675 14.0252 24.4319 13.7896C24.1963 13.554 23.8768 13.4216 23.5436 13.4216H13.4933Z"/>
<path d="M2.05609 0.861328C1.7229 0.861328 1.40336 0.993686 1.16776 1.22928C0.932162 1.46488 0.799805 1.78442 0.799805 2.11761V8.39902C0.799805 8.7322 0.932162 9.05174 1.16776 9.28734C1.40336 9.52294 1.7229 9.6553 2.05609 9.6553H8.33749C8.67068 9.6553 8.99022 9.52294 9.22582 9.28734C9.46142 9.05174 9.59377 8.7322 9.59377 8.39902V2.11761C9.59377 1.78442 9.46142 1.46488 9.22582 1.22928C8.99022 0.993686 8.67068 0.861328 8.33749 0.861328H2.05609ZM2.05609 12.1628C1.7229 12.1628 1.40336 12.2952 1.16776 12.5308C0.932162 12.7664 0.799805 13.0859 0.799805 13.4191V19.7005C0.799805 20.0337 0.932162 20.3533 1.16776 20.5888C1.40336 20.8244 1.7229 20.9568 2.05609 20.9568H8.33749C8.67068 20.9568 8.99022 20.8244 9.22582 20.5888C9.46142 20.3533 9.59377 20.0337 9.59377 19.7005V13.4191C9.59377 13.0859 9.46142 12.7664 9.22582 12.5308C8.99022 12.2952 8.67068 12.1628 8.33749 12.1628H2.05609Z"/>
</svg>
