<svg width="25" height="25" viewBox="0 0 25 25" xmlns="http://www.w3.org/2000/svg">
<path fill-rule="evenodd" clip-rule="evenodd" d="M3.11985 8.73206C2.59985 9.67906 2.59985 10.8241 2.59985 13.1121V14.6341C2.59985 18.5341 2.59985 20.4851 3.77185 21.6971C4.94285 22.9091 6.82885 22.9091 10.5999 22.9091H14.5999C18.3709 22.9091 20.2569 22.9091 21.4279 21.6971C22.5999 20.4851 22.5999 18.5351 22.5999 14.6341V13.1131C22.5999 10.8241 22.5999 9.68006 22.0799 8.73206C21.5619 7.78306 20.6129 7.19506 18.7159 6.01706L16.7159 4.77606C14.7109 3.53106 13.7079 2.90906 12.5999 2.90906C11.4919 2.90906 10.4899 3.53106 8.48385 4.77606L6.48385 6.01706C4.58685 7.19506 3.63885 7.78306 3.11985 8.73206ZM11.8499 18.9091C11.8499 19.108 11.9289 19.2987 12.0695 19.4394C12.2102 19.58 12.4009 19.6591 12.5999 19.6591C12.7988 19.6591 12.9895 19.58 13.1302 19.4394C13.2708 19.2987 13.3499 19.108 13.3499 18.9091V15.9091C13.3499 15.7101 13.2708 15.5194 13.1302 15.3787C12.9895 15.2381 12.7988 15.1591 12.5999 15.1591C12.4009 15.1591 12.2102 15.2381 12.0695 15.3787C11.9289 15.5194 11.8499 15.7101 11.8499 15.9091V18.9091Z"/>
</svg>
