<svg width="24" height="24" viewBox="0 0 24 24" fill="none" xmlns="http://www.w3.org/2000/svg">
<path fill-rule="evenodd" clip-rule="evenodd" d="M12 2C12.5523 2 13 2.44772 13 3V4.06275C13.707 4.15182 14.4004 4.33513 15.0615 4.60896C16.0321 5.011 16.914 5.60028 17.6569 6.34315C18.3997 7.08601 18.989 7.96793 19.391 8.93853C19.6649 9.59962 19.8482 10.293 19.9373 11H21C21.5523 11 22 11.4477 22 12C22 12.5523 21.5523 13 21 13H19.9373C19.8482 13.707 19.6649 14.4004 19.391 15.0615C18.989 16.0321 18.3997 16.914 17.6569 17.6569C16.914 18.3997 16.0321 18.989 15.0615 19.391C14.4004 19.6649 13.707 19.8482 13 19.9373V21C13 21.5523 12.5523 22 12 22C11.4477 22 11 21.5523 11 21V19.9373C9.247 19.7165 7.60577 18.9195 6.34315 17.6569C5.08052 16.3942 4.28353 14.753 4.06272 13H3C2.44772 13 2 12.5523 2 12C2 11.4477 2.44772 11 3 11H4.06272C4.28353 9.247 5.08052 7.60577 6.34315 6.34315C7.60577 5.08052 9.247 4.28353 11 4.06272V3C11 2.44772 11.4477 2 12 2ZM12 6C10.4087 6 8.88258 6.63214 7.75736 7.75736C6.63214 8.88258 6 10.4087 6 12C6 13.5913 6.63214 15.1174 7.75736 16.2426C8.88258 17.3679 10.4087 18 12 18C12.7879 18 13.5681 17.8448 14.2961 17.5433C15.0241 17.2417 15.6855 16.7998 16.2426 16.2426C16.7998 15.6855 17.2417 15.0241 17.5433 14.2961C17.8448 13.5681 18 12.7879 18 12C18 11.2121 17.8448 10.4319 17.5433 9.7039C17.2417 8.97595 16.7998 8.31451 16.2426 7.75736C15.6855 7.20021 15.0241 6.75825 14.2961 6.45672C13.5681 6.15519 12.7879 6 12 6Z" fill="#FF4A22"/>
<path d="M13 12C13 12.5523 12.5523 13 12 13C11.4477 13 11 12.5523 11 12C11 11.4477 11.4477 11 12 11C12.5523 11 13 11.4477 13 12Z" fill="#FF4A22"/>
</svg>
