<svg width="24" height="24" viewBox="0 0 24 24" fill="none" xmlns="http://www.w3.org/2000/svg">
<path d="M17.6566 5.33865C19.1253 6.80439 19.9653 8.78278 19.9989 10.8555C20.0326 12.9282 19.2573 14.9328 17.837 16.4452L17.6566 16.6316L13.8851 21.2211C13.4066 21.6984 12.7642 21.9763 12.088 21.9986C11.4118 22.0208 10.7524 21.7857 10.2434 21.3408L10.1154 21.2211L6.3431 16.6307C4.84284 15.1333 4 13.1023 4 10.9847C4 8.867 4.84284 6.83607 6.3431 5.33865C7.84336 3.84124 9.87815 3 11.9998 3C14.1215 3 16.1563 3.84124 17.6566 5.33865ZM11.9998 8.32312C11.6497 8.32312 11.3029 8.39196 10.9794 8.52572C10.6559 8.65947 10.3619 8.85552 10.1143 9.10267C9.86665 9.34981 9.67024 9.64322 9.53623 9.96613C9.40222 10.289 9.33324 10.6351 9.33324 10.9847C9.33324 11.3342 9.40222 11.6803 9.53623 12.0032C9.67024 12.3261 9.86665 12.6195 10.1143 12.8666C10.3619 13.1138 10.6559 13.3098 10.9794 13.4436C11.3029 13.5774 11.6497 13.6462 11.9998 13.6462C12.7071 13.6462 13.3853 13.3658 13.8854 12.8666C14.3855 12.3675 14.6664 11.6905 14.6664 10.9847C14.6664 10.2788 14.3855 9.6018 13.8854 9.10267C13.3853 8.60353 12.7071 8.32312 11.9998 8.32312Z" fill="#FF4A22"/>
</svg>
