<svg width="24" height="25" viewBox="0 0 24 25" fill="none" xmlns="http://www.w3.org/2000/svg">
<path fill-rule="evenodd" clip-rule="evenodd" d="M8 7.16321C8 6.10234 8.42143 5.08493 9.17157 4.33478C9.92172 3.58464 10.9391 3.16321 12 3.16321C13.0609 3.16321 14.0783 3.58464 14.8284 4.33478C15.5786 5.08493 16 6.10234 16 7.16321C16 8.22407 15.5786 9.24149 14.8284 9.99164C14.0783 10.7418 13.0609 11.1632 12 11.1632C10.9391 11.1632 9.92172 10.7418 9.17157 9.99164C8.42143 9.24149 8 8.22407 8 7.16321ZM8 13.1632C6.67392 13.1632 5.40215 13.69 4.46447 14.6277C3.52678 15.5654 3 16.8371 3 18.1632C3 18.9589 3.31607 19.7219 3.87868 20.2845C4.44129 20.8471 5.20435 21.1632 6 21.1632H18C18.7956 21.1632 19.5587 20.8471 20.1213 20.2845C20.6839 19.7219 21 18.9589 21 18.1632C21 16.8371 20.4732 15.5654 19.5355 14.6277C18.5979 13.69 17.3261 13.1632 16 13.1632H8Z" fill="#192028"/>
</svg>
