<svg width="24" height="24" viewBox="0 0 24 24" fill="none" xmlns="http://www.w3.org/2000/svg">
<path fill-rule="evenodd" clip-rule="evenodd" d="M16.7626 18.1754C15.3152 19.318 13.4873 20 11.5 20C6.80558 20 3 16.1944 3 11.5C3 6.80558 6.80558 3 11.5 3C16.1944 3 20 6.80558 20 11.5C20 13.4865 19.3186 15.3138 18.1767 16.761L20.708 19.2929C21.0985 19.6834 21.0985 20.3167 20.708 20.7072C20.3175 21.0978 19.6844 21.0978 19.2939 20.7072L16.7626 18.1754ZM18 11.5C18 15.0899 15.0899 18 11.5 18C7.91015 18 5 15.0899 5 11.5C5 7.91015 7.91015 5 11.5 5C15.0899 5 18 7.91015 18 11.5Z" fill="#565C64"/>
</svg>
