<svg width="24" height="24" viewBox="0 0 24 24" fill="none" xmlns="http://www.w3.org/2000/svg">
<path fill-rule="evenodd" clip-rule="evenodd" d="M11.9698 2H12.0303C12.4493 1.99999 12.8102 1.99998 13.1088 2.01919C13.4225 2.03937 13.7371 2.08372 14.049 2.20553C14.7519 2.48002 15.3287 3.0141 15.634 3.70894C15.8 4.08671 15.8394 4.47445 15.8543 4.84851C15.8607 5.01062 15.9457 5.15038 16.0875 5.22756C16.2371 5.30902 16.454 5.32008 16.6591 5.21789C17.0065 5.04474 17.3622 4.89346 17.7639 4.84359C18.5112 4.75083 19.2735 4.94018 19.8846 5.38234C20.159 5.5808 20.3633 5.82276 20.5432 6.07519C20.7126 6.31277 20.895 6.61064 21.1031 6.95063L21.1366 7.00525C21.3446 7.34488 21.5271 7.64293 21.6609 7.90047C21.8023 8.17252 21.9268 8.46784 21.9741 8.80618C22.0795 9.56143 21.8604 10.3175 21.3811 10.9064C21.1245 11.2217 20.7997 11.4402 20.4697 11.6356C20.2782 11.7491 20.2187 11.8997 20.2187 12C20.2187 12.1003 20.2781 12.2509 20.4697 12.3644C20.7997 12.5598 21.1244 12.7782 21.381 13.0935C21.8603 13.6824 22.0794 14.4385 21.974 15.1938C21.9267 15.5321 21.8022 15.8274 21.6608 16.0995C21.527 16.357 21.3445 16.655 21.1365 16.9946L21.103 17.0493C20.8949 17.3893 20.7125 17.6872 20.5431 17.9247C20.3632 18.1772 20.1589 18.4191 19.8846 18.6176C19.2734 19.0598 18.5111 19.2491 17.7638 19.1563C17.3621 19.1065 17.0065 18.9552 16.659 18.7821C16.4539 18.6799 16.2371 18.691 16.0874 18.7724C15.9457 18.8496 15.8607 18.9893 15.8543 19.1514C15.8394 19.5255 15.8 19.9133 15.634 20.2911C15.3287 20.9859 14.7519 21.52 14.049 21.7945C13.7371 21.9163 13.4225 21.9606 13.1088 21.9808C12.8102 22 12.4492 22 12.0302 22H11.9698C11.5508 22 11.1899 22 10.8912 21.9808C10.5775 21.9606 10.263 21.9163 9.95107 21.7945C9.24819 21.52 8.67134 20.9859 8.36607 20.2911C8.20011 19.9133 8.16062 19.5256 8.14578 19.1515C8.13935 18.9894 8.05436 18.8496 7.91258 18.7724C7.76293 18.691 7.54606 18.6799 7.34098 18.7821C6.99351 18.9553 6.6379 19.1065 6.23616 19.1564C5.48883 19.2492 4.72658 19.0598 4.11542 18.6177C3.84108 18.4192 3.63678 18.1772 3.45685 17.9248C3.28749 17.6872 3.1051 17.3894 2.89693 17.0494L2.86343 16.9947C2.65546 16.6551 2.47294 16.3571 2.33915 16.0995C2.19781 15.8275 2.07323 15.5322 2.02598 15.1938C1.92052 14.4386 2.13966 13.6825 2.61896 13.0936C2.87556 12.7783 3.20032 12.5599 3.53029 12.3644C3.72188 12.2509 3.78135 12.1003 3.78136 12C3.78137 11.8996 3.7219 11.749 3.53028 11.6355C3.20035 11.44 2.87563 11.2216 2.61906 10.9064C2.13975 10.3174 1.92061 9.56137 2.02607 8.80612C2.07332 8.46777 2.1979 8.17246 2.33924 7.90041C2.47303 7.64288 2.65555 7.34487 2.86352 7.00528L2.89702 6.95057C3.10519 6.61059 3.28759 6.31271 3.45694 6.07513C3.63688 5.82269 3.84118 5.58074 4.11551 5.38227C4.72668 4.94012 5.48892 4.75077 6.23625 4.84353C6.63801 4.8934 6.99365 5.0447 7.34114 5.21786C7.54618 5.32003 7.76301 5.30897 7.91262 5.22753C8.05438 5.15036 8.13935 5.01063 8.14578 4.84856C8.16062 4.47448 8.2001 4.08673 8.36607 3.70894C8.67134 3.0141 9.24819 2.48002 9.95107 2.20553C10.263 2.08372 10.5775 2.03937 10.8912 2.01919C11.1899 1.99998 11.5508 1.99999 11.9698 2ZM11.0196 4.01507C10.8008 4.02914 10.7175 4.0533 10.6786 4.06851C10.4459 4.15939 10.2794 4.32614 10.1972 4.5134C10.1862 4.53829 10.1565 4.61882 10.1442 4.92783C10.1108 5.7696 9.64977 6.55905 8.86881 6.98415C8.09571 7.40497 7.18604 7.37514 6.44911 7.00791C6.1556 6.86165 6.04647 6.83532 5.98989 6.8283C5.73321 6.79644 5.48005 6.8636 5.2878 7.00269C5.26085 7.02218 5.20331 7.07079 5.08554 7.23601C4.96167 7.40979 4.81568 7.64712 4.58601 8.02217C4.3562 8.39745 4.2114 8.63502 4.11402 8.82246C4.02057 9.00232 4.00918 9.06608 4.00686 9.08271C3.98014 9.27407 4.03308 9.47536 4.17025 9.6439C4.19506 9.67439 4.26581 9.74661 4.54965 9.91476C5.26032 10.3358 5.78141 11.0957 5.78136 12.0001C5.78131 12.9044 5.26025 13.6642 4.54963 14.0851C4.26573 14.2533 4.19497 14.3255 4.17016 14.356C4.03298 14.5246 3.98004 14.7259 4.00676 14.9172C4.00909 14.9339 4.02048 14.9976 4.11392 15.1775C4.21131 15.3649 4.35611 15.6025 4.58592 15.9778C4.81558 16.3528 4.96158 16.5902 5.08545 16.7639C5.20322 16.9291 5.26075 16.9778 5.2877 16.9973C5.47995 17.1363 5.73312 17.2035 5.9898 17.1716C6.04637 17.1646 6.1555 17.1383 6.44897 16.9921C7.18593 16.6248 8.09563 16.595 8.86877 17.0158C9.64976 17.4409 10.1108 18.2304 10.1442 19.0722C10.1565 19.3812 10.1862 19.4617 10.1972 19.4866C10.2794 19.6739 10.4459 19.8406 10.6786 19.9315C10.7175 19.9467 10.8008 19.9709 11.0196 19.9849C11.2463 19.9995 11.5423 20 12 20C12.4577 20 12.7538 19.9995 12.9804 19.9849C13.1992 19.9709 13.2825 19.9467 13.3214 19.9315C13.5542 19.8406 13.7206 19.6739 13.8029 19.4866C13.8138 19.4617 13.8436 19.3812 13.8559 19.0722C13.8892 18.2304 14.3502 17.441 15.1311 17.0159C15.9043 16.5949 16.814 16.6248 17.551 16.992C17.8445 17.1382 17.9536 17.1646 18.0102 17.1716C18.2668 17.2034 18.52 17.1363 18.7123 16.9972C18.7392 16.9777 18.7968 16.9291 18.9145 16.7639C19.0384 16.5901 19.1844 16.3528 19.4141 15.9777C19.6439 15.6024 19.7887 15.3649 19.886 15.1774C19.9795 14.9976 19.9909 14.9338 19.9932 14.9172C20.0199 14.7258 19.967 14.5245 19.8298 14.356C19.805 14.3255 19.7342 14.2533 19.4504 14.0851C18.7397 13.6641 18.2187 12.9042 18.2187 11.9999C18.2188 11.0956 18.7398 10.3358 19.4504 9.9149C19.7343 9.7467 19.8051 9.67446 19.8299 9.64397C19.9671 9.47542 20.02 9.27413 19.9933 9.08277C19.991 9.06614 19.9796 9.00238 19.8861 8.82252C19.7888 8.63508 19.644 8.39751 19.4141 8.02223C19.1845 7.64718 19.0385 7.40985 18.9146 7.23608C18.7968 7.07086 18.7393 7.02224 18.7124 7.00275C18.5201 6.86367 18.2669 6.7965 18.0103 6.82836C17.9537 6.83538 17.8446 6.8617 17.5511 7.00795C16.8141 7.37518 15.9044 7.40502 15.1313 6.98417C14.3503 6.55905 13.8892 5.76957 13.8559 4.92778C13.8436 4.61882 13.8138 4.53828 13.8029 4.5134C13.7206 4.32614 13.5542 4.15939 13.3214 4.06851C13.2825 4.0533 13.1992 4.02914 12.9804 4.01507C12.7538 4.00048 12.4577 4 12 4C11.5423 4 11.2463 4.00048 11.0196 4.01507Z" fill="#565C64"/>
<path fill-rule="evenodd" clip-rule="evenodd" d="M12 10C10.8955 10 10 10.8954 10 12C10 13.1046 10.8955 14 12 14C13.1046 14 14 13.1046 14 12C14 10.8954 13.1046 10 12 10ZM8.00003 12C8.00003 9.79086 9.79089 8 12 8C14.2092 8 16 9.79086 16 12C16 14.2091 14.2092 16 12 16C9.79089 16 8.00003 14.2091 8.00003 12Z" fill="#565C64"/>
</svg>
