<svg width="24" height="24" viewBox="0 0 24 24" fill="none" xmlns="http://www.w3.org/2000/svg">
<path fill-rule="evenodd" clip-rule="evenodd" d="M16.476 8.42857C17.9751 8.42857 19.1903 7.21334 19.1903 5.71429C19.1903 4.21523 17.9751 3 16.476 3C14.9769 3 13.7617 4.21523 13.7617 5.71429C13.7617 5.86391 13.7738 6.01071 13.7971 6.15375L6.46896 10.4285C5.9958 10.0272 5.38331 9.78516 4.71429 9.78516C3.21523 9.78516 2 11.0004 2 12.4994C2 13.9985 3.21523 15.2137 4.71429 15.2137C5.38337 15.2137 5.99591 14.9716 6.46909 14.5703L13.7974 18.8451C13.7739 18.9888 13.7617 19.1362 13.7617 19.2866C13.7617 20.7856 14.9769 22.0008 16.476 22.0008C17.9751 22.0008 19.1903 20.7856 19.1903 19.2866C19.1903 17.7875 17.9751 16.5723 16.476 16.5723C15.7829 16.5723 15.1504 16.8321 14.6707 17.2596L7.38112 13.0074C7.41227 12.8428 7.42857 12.673 7.42857 12.4994C7.42857 12.3258 7.41226 12.1559 7.38109 11.9913L14.6692 7.7399C15.1491 8.16823 15.7822 8.42857 16.476 8.42857Z" fill="#CBD0D5"/>
</svg>
