<svg width="24" height="24" viewBox="0 0 24 24" fill="none" xmlns="http://www.w3.org/2000/svg">
<path d="M10.2065 3.63397C10.9402 2.14748 13.0598 2.14748 13.7935 3.63397L15.0614 6.20301C15.3527 6.7933 15.9158 7.20244 16.5672 7.2971L19.4023 7.70906C21.0428 7.94743 21.6978 9.96338 20.5108 11.1204L18.4593 13.1202C17.9879 13.5796 17.7728 14.2416 17.8841 14.8904L18.3684 17.7141C18.6486 19.3479 16.9337 20.5938 15.4665 19.8224L12.9307 18.4893C12.348 18.183 11.652 18.183 11.0693 18.4893L8.53352 19.8224C7.06627 20.5938 5.3514 19.3479 5.63162 17.7141L6.11592 14.8904C6.22719 14.2416 6.0121 13.5796 5.54072 13.1202L3.48922 11.1205C2.30219 9.96338 2.95721 7.94743 4.59765 7.70906L7.43275 7.2971C8.08417 7.20244 8.64731 6.7933 8.93863 6.20301L10.2065 3.63397Z" fill="#CBD0D5"/>
<mask id="mask0_937_10900" style="mask-type:alpha" maskUnits="userSpaceOnUse" x="2" y="2" width="20" height="19">
<path d="M10.2065 3.63397C10.9402 2.14748 13.0598 2.14748 13.7935 3.63397L15.0614 6.20301C15.3527 6.7933 15.9158 7.20244 16.5672 7.2971L19.4023 7.70906C21.0428 7.94743 21.6978 9.96338 20.5108 11.1204L18.4593 13.1202C17.9879 13.5796 17.7728 14.2416 17.8841 14.8904L18.3684 17.7141C18.6486 19.3479 16.9337 20.5938 15.4665 19.8224L12.9307 18.4893C12.348 18.183 11.652 18.183 11.0693 18.4893L8.53352 19.8224C7.06627 20.5938 5.3514 19.3479 5.63162 17.7141L6.11592 14.8904C6.22719 14.2416 6.0121 13.5796 5.54072 13.1202L3.48922 11.1205C2.30219 9.96338 2.95721 7.94743 4.59765 7.70906L7.43275 7.2971C8.08417 7.20244 8.64731 6.7933 8.93863 6.20301L10.2065 3.63397Z" fill="#FF4A22"/>
</mask>
<g mask="url(#mask0_937_10900)">
<rect x="2" y="2" width="8" height="19" fill="#FF4A22"/>
</g>
</svg>
