<svg width="24" height="24" viewBox="0 0 24 24" fill="none" xmlns="http://www.w3.org/2000/svg">
<path fill-rule="evenodd" clip-rule="evenodd" d="M8 4C8 3.44772 8.44772 3 9 3H15C15.5523 3 16 3.44772 16 4V6C16 6.55228 15.5523 7 15 7C14.4477 7 14 6.55228 14 6V5H10V6C10 6.55228 9.55228 7 9 7C8.44772 7 8 6.55228 8 6V4Z" fill="#CBD0D5"/>
<path fill-rule="evenodd" clip-rule="evenodd" d="M4 7C4 6.44772 4.44772 6 5 6H19C19.5523 6 20 6.44772 20 7C20 7.55228 19.5523 8 19 8H18.5V17C18.5 18.6569 17.1569 20 15.5 20H8.5C6.84315 20 5.5 18.6569 5.5 17V8H5C4.44772 8 4 7.55228 4 7ZM7.5 8V17C7.5 17.5523 7.94772 18 8.5 18H15.5C16.0523 18 16.5 17.5523 16.5 17V8H7.5ZM10 9.5C10.5523 9.5 11 9.94772 11 10.5V15.5C11 16.0523 10.5523 16.5 10 16.5C9.44772 16.5 9 16.0523 9 15.5V10.5C9 9.94772 9.44772 9.5 10 9.5Z" fill="#CBD0D5"/>
<path fill-rule="evenodd" clip-rule="evenodd" d="M14 9.5C14.5523 9.5 15 9.94772 15 10.5V15.5C15 16.0523 14.5523 16.5 14 16.5C13.4477 16.5 13 16.0523 13 15.5V10.5C13 9.94772 13.4477 9.5 14 9.5Z" fill="#CBD0D5"/>
</svg>
