<svg width="276" height="102" viewBox="0 0 276 102" fill="none" xmlns="http://www.w3.org/2000/svg">
<g clip-path="url(#clip0_802_19050)">
<path d="M273.923 7.8417C272.152 3.87299 267.983 1.59802 262.493 1.59802C261.762 1.59802 261.008 1.63889 260.245 1.71608C258.016 1.94312 256.259 2.52435 254.706 3.03747C252.649 3.71406 250.705 4.35886 247.154 4.35886C243.086 4.35886 240.72 3.63232 238.213 2.86492C236.819 2.43808 235.375 1.99307 233.727 1.71154C232.81 1.55261 231.915 1.47542 231.066 1.47542C227.301 1.47542 225.086 3.01023 223.896 4.29529C222.733 5.54857 221.403 7.79629 221.675 11.379C221.757 12.4416 221.448 13.2589 220.853 14.6939C219.991 9.52636 218.306 3.41436 210.873 2.01578C210.291 1.9068 209.697 1.85231 209.102 1.85231C206.536 1.85231 204.425 2.86492 202.726 3.67319C201.655 4.18631 200.638 4.67218 199.979 4.67218C199.757 4.67218 198.962 4.17723 198.485 3.87753C197.059 2.98752 195.102 1.77057 192.41 1.77057C188.096 1.77057 184.64 3.82304 182.797 7.16057C180.721 3.70498 176.98 1.80236 172.198 1.80236C169.714 1.80236 167.448 2.30185 165.26 2.78318C162.876 3.30992 160.415 3.85029 157.318 3.85029C155.17 3.85029 154.189 3.40528 152.945 2.84676C151.592 2.23828 149.912 1.47996 147.455 1.47996C142.633 1.47996 139.018 4.10003 137.565 8.31849C137.243 7.97793 136.916 7.64644 136.571 7.33313C132.27 3.38258 126.376 1.29378 119.529 1.29378C109.866 1.29378 101.983 5.17622 97.2967 11.5925C94.277 4.69035 88.0742 0.803369 79.4829 0.803369C75.6095 0.803369 72.7624 1.91588 70.6782 2.73323C69.7881 3.08288 68.7755 3.47794 68.3442 3.47794C67.9536 3.47794 67.8719 3.45069 67.0863 3.04201C65.8966 2.41991 64.0939 1.4845 61.1242 1.4845C56.4199 1.4845 52.601 3.77309 50.6666 7.36945C47.2473 3.12375 42.0344 0.798828 35.3911 0.798828C31.5178 0.798828 28.6707 1.91134 26.5864 2.72869C25.6964 3.07834 24.6838 3.47339 24.2524 3.47339C23.8619 3.47339 23.7802 3.44615 22.9946 3.03747C21.8049 2.41537 20.0022 1.47996 17.0324 1.47996C10.1712 1.47996 5.18988 6.34776 5.18988 13.0501C5.18988 18.2902 9.01783 22.5859 13.813 22.8447C13.7585 23.1035 13.704 23.326 13.6722 23.4713C13.3226 24.9834 12.8866 26.5228 12.5234 27.5808C12.1419 27.5672 11.8014 27.5581 11.5834 27.5581C7.52842 27.5581 5.12177 29.1338 3.814 30.4597C1.89776 32.4123 0.944177 35.1141 0.989586 38.4925C1.06678 44.0641 5.13993 48.4324 10.262 48.4324C12.5552 48.4324 14.3715 47.5379 15.8291 46.8204C17.1096 46.1893 17.9452 45.8033 18.9441 45.776H19.0395C19.4527 45.776 19.5299 45.7942 20.5017 46.3618C22.1273 47.3108 24.5884 48.7458 29.538 48.9592C30.0647 48.9819 30.5869 48.9955 31.1 48.9955C37.3074 48.9955 42.602 47.2791 46.6434 44.0006C48.2963 46.6933 51.1116 48.437 54.3492 48.437C56.6424 48.437 58.4587 47.5424 59.9163 46.825C61.1968 46.1938 62.0324 45.8078 63.0314 45.7806H63.1267C63.5399 45.7806 63.6171 45.7987 64.5889 46.3664C66.2145 47.3154 68.6756 48.7503 73.6252 48.9637C74.1519 48.9864 74.6741 49.0001 75.1872 49.0001C82.9884 49.0001 89.3547 46.2937 93.5959 41.1807C94.3224 40.3043 94.9854 39.3553 95.5802 38.3427C96.5247 39.932 97.6781 41.3805 99.0494 42.661C103.227 46.5662 109.085 48.6322 115.991 48.6322C122.898 48.6322 128.987 46.6161 133.651 43.1287C135.054 46.3164 138.065 48.2781 142.011 48.2781C144.535 48.2781 146.919 47.1882 149.23 46.1348C150.597 45.5081 152.468 44.6544 153.299 44.6544C154.693 44.6544 156.083 45.2221 157.844 45.9395C160.247 46.9203 163.235 48.1373 167.149 48.1373C171.694 48.1373 174.714 47.0248 176.716 45.4854C177.37 46.0349 178.124 46.5207 178.978 46.9203C181.362 48.0374 184.522 48.5778 188.636 48.5778C188.849 48.5778 189.067 48.5778 189.285 48.5778C193.804 48.5142 197.277 47.8376 199.916 46.5071C200.379 46.271 200.819 46.0167 201.228 45.7443C204.756 48.5732 210.246 48.5778 213.388 48.5778C213.397 48.5778 213.733 48.5778 213.733 48.5778C217.275 48.5596 222.883 48.5323 226.688 45.9804C228.364 47.4743 230.671 48.3189 233.45 48.3189C233.827 48.3189 234.222 48.3053 234.617 48.2735C236.737 48.11 238.327 47.3744 239.485 46.8386C239.852 46.6706 240.534 46.3527 240.697 46.3527C240.838 46.3709 241.346 46.5889 241.719 46.7432C243.086 47.3199 245.147 48.1918 248.698 48.6913C249.574 48.8139 250.469 48.8774 251.354 48.8774C259.201 48.8774 264.9 44.2912 264.9 37.9794C264.9 35.4456 264.282 33.3159 263.279 31.6086C269.804 31.0773 272.17 27.045 273.014 24.5702C273.868 22.0682 276.452 13.4724 273.945 7.85986L273.923 7.8417Z" fill="white"/>
<path d="M5.53044 38.4291C5.46233 33.6249 8.1596 32.0946 11.5925 32.0946C12.1374 32.0946 13.6041 32.1718 14.149 32.1718C15.1298 32.1718 15.5203 31.972 16.1742 30.6597C16.928 29.1476 17.7272 26.1097 18.0995 24.4886C18.5536 22.527 18.9668 20.47 18.3992 19.1486C17.9542 18.1087 17.432 18.2041 16.3967 18.2041C15.7428 18.2041 15.1979 18.3131 14.2716 18.3131C11.7106 18.3131 9.73074 15.7702 9.73074 13.0457C9.73074 8.41401 13.2181 6.01643 17.0324 6.01643C20.6288 6.01643 21.0874 8.00987 24.2479 8.00987C27.2448 8.00987 30.0965 5.33984 35.3821 5.33984C45.4628 5.33984 50.7302 11.7379 50.7302 22.636C50.7302 35.6592 44.2594 45.0497 29.7241 44.4139C22.7766 44.1142 22.872 41.1173 18.8079 41.2308C15.0027 41.3398 12.923 43.8872 10.2529 43.8872C7.58291 43.8872 5.56223 41.4215 5.52136 38.4245L5.53044 38.4291ZM31.2408 31.922C35.264 31.922 39.7231 28.0441 39.0556 22.5361C38.5743 18.5628 35.8679 17.3005 32.3261 17.3005C30.823 17.3005 28.5708 17.5003 28.1348 20.1703C28.1348 20.1703 26.5592 27.699 26.5592 29.2021C26.5592 30.7051 27.2176 31.9266 31.2408 31.9266V31.922Z" fill="black"/>
<path d="M45.876 16.8554C45.3811 16.8554 44.927 16.533 44.7862 16.0335C43.7055 12.2737 41.2398 11.4245 41.2171 11.42C40.6177 11.2384 40.2817 10.6026 40.4633 10.0032C40.645 9.40385 41.2807 9.06783 41.8801 9.24946C42.0299 9.29487 45.5309 10.4165 46.9658 15.4069C47.1384 16.0108 46.7933 16.6374 46.1894 16.81C46.0849 16.8418 45.9805 16.8554 45.876 16.8554Z" fill="white"/>
<path d="M49.6177 38.4291C49.5496 33.6249 52.2469 32.0946 55.6798 32.0946C56.2247 32.0946 57.6914 32.1718 58.2363 32.1718C59.2171 32.1718 59.6076 31.972 60.2615 30.6597C61.0153 29.1476 61.8145 26.1097 62.1868 24.4886C62.6409 22.527 63.0541 20.47 62.4865 19.1486C62.0415 18.1087 61.5193 18.2041 60.484 18.2041C59.8301 18.2041 59.2852 18.3131 58.3589 18.3131C55.7978 18.3131 53.818 15.7702 53.818 13.0457C53.818 8.41401 57.3054 6.01643 61.1197 6.01643C64.7161 6.01643 65.1747 8.00987 68.3351 8.00987C71.3321 8.00987 74.1838 5.33984 79.4693 5.33984C89.55 5.33984 94.8174 11.7379 94.8174 22.636C94.8174 35.6592 88.3467 45.0497 73.8114 44.4139C66.8639 44.1142 66.9593 41.1173 62.8952 41.2308C59.09 41.3398 57.0102 43.8872 54.3402 43.8872C51.6702 43.8872 49.6495 41.4215 49.6086 38.4245L49.6177 38.4291ZM75.3281 31.922C79.3513 31.922 83.8104 28.0441 83.1429 22.5361C82.6616 18.5628 79.9552 17.3005 76.4133 17.3005C74.9103 17.3005 72.658 17.5003 72.2221 20.1703C72.2221 20.1703 70.6464 27.699 70.6464 29.2021C70.6464 30.7051 71.3049 31.9266 75.3281 31.9266V31.922Z" fill="black"/>
<path d="M89.9632 16.8554C89.4682 16.8554 89.0142 16.533 88.8734 16.0335C87.7927 12.2737 85.327 11.4245 85.3043 11.42C84.7049 11.2384 84.3689 10.6026 84.5505 10.0032C84.7321 9.40385 85.3678 9.06783 85.9672 9.24946C86.1171 9.29487 89.6181 10.4165 91.053 15.4069C91.2256 16.0108 90.8804 16.6374 90.2765 16.81C90.1721 16.8418 90.0676 16.8554 89.9632 16.8554Z" fill="white"/>
<path d="M137.315 38.7648C137.315 34.3511 139.386 31.0544 142.796 31.454C144.295 31.6311 144.617 32.1715 145.434 32.1715C146.524 32.1715 146.946 31.7038 147.6 30.7502C148.254 29.7966 149.439 27.2492 149.716 25.451C150.043 23.3804 150.32 20.674 150.021 19.0348C149.834 18.0131 149.09 17.5681 148.054 17.5681C147.292 17.5681 146.365 17.677 145.602 17.677C142.769 17.677 141.407 15.8244 141.407 12.7184C141.407 8.52267 143.695 6.01611 147.455 6.01611C150.833 6.01611 151.764 8.38644 157.322 8.38644C163.861 8.38644 167.784 6.33397 172.198 6.33397C175.468 6.33397 177.815 7.49643 179.023 9.68967C180.158 11.7512 180.667 17.4182 179.772 19.6977C178.878 21.9772 177.942 23.0398 174.909 23.0398C171.876 23.0398 170.763 21.5277 170.146 20.4606C169.528 19.3935 168.756 17.3456 164.56 17.3456C160.801 17.3456 159.656 17.509 159.656 20.5605C159.656 21.5958 160.201 21.7048 161.455 21.7048C162.599 21.7048 164.016 21.3551 165.051 21.3234C167.63 21.2371 168.802 23.3077 168.42 25.5963C168.093 27.7759 166.513 28.7658 164.016 28.5161C162.876 28.4026 161.455 27.8622 159.929 27.8622C158.621 27.8622 157.967 28.8975 157.967 30.9681C157.967 32.2214 158.839 32.4258 161.727 32.3849C164.833 32.3395 165.559 31.6674 167.176 30.732C168.87 29.7512 169.91 28.0347 172.92 28.5161C175.931 28.9974 176.276 32.2804 176.458 33.6109C176.644 34.9459 176.33 37.5251 175.672 39.4096C174.696 42.2204 171.762 43.569 167.135 43.569C161.359 43.569 158.085 40.0907 153.29 40.0907C149.748 40.0907 145.162 43.7143 142.001 43.7143C138.841 43.7143 137.315 41.7527 137.315 38.7557V38.7648Z" fill="black"/>
<path d="M176.68 15.6021C176.071 15.6021 175.567 15.1208 175.545 14.5078C175.495 13.091 175.132 12.0648 174.464 11.4609C173.701 10.7752 172.757 10.8251 172.716 10.8297C172.103 10.8705 171.549 10.4074 171.503 9.78528C171.453 9.16318 171.908 8.62282 172.525 8.56833C172.72 8.55017 174.464 8.4321 175.944 9.73987C177.111 10.7706 177.743 12.3463 177.811 14.4306C177.833 15.0572 177.343 15.584 176.716 15.6021C176.703 15.6021 176.689 15.6021 176.675 15.6021H176.68Z" fill="white"/>
<path d="M178.401 39.4917C178.401 35.8409 180.508 33.5432 183.414 32.8984C185.889 32.349 188.268 31.2546 189.817 28.6118C191.365 25.9691 194.662 19.0896 194.952 17.9681C195.243 16.8465 192.405 17.6411 191.751 17.6411C191.37 17.6411 190.716 17.8591 189.299 17.8591C187.446 17.8591 185.866 16.2244 185.866 13.1729C185.866 8.81368 188.591 6.30713 192.405 6.30713C195.239 6.30713 196.978 9.20874 199.975 9.20874C203.625 9.20874 206.491 5.80763 210.024 6.4706C215.863 7.56949 215.963 13.3091 216.971 19.2486C217.843 24.4025 219.591 26.8681 222.429 30.6098C225.263 34.3515 226.689 36.463 226.035 39.3828C225.331 42.5205 222.384 43.969 213.702 44.0144C205.02 44.0553 203.031 42.2798 202.54 39.3828C201.909 35.6456 203.507 33.7158 208.098 33.7158C209.928 33.7158 210.037 32.4943 209.951 31.8177C209.865 31.1411 209.161 30.5735 208.262 30.7188C207.453 30.8459 205.047 31.2455 202.758 31.2455C200.688 31.2455 199.339 30.9186 198.404 30.7506C197.468 30.5826 196.605 30.5235 196.092 31.0548C195.634 31.5361 195.52 32.1991 195.738 32.7803C195.956 33.3616 196.41 33.4842 198.04 33.6794C199.793 33.8883 200.951 35.5684 200.951 37.857C200.951 41.9438 196.61 43.91 189.208 44.0099C181.811 44.1098 178.396 42.3207 178.396 39.4872L178.401 39.4917ZM200.678 24.189C201.096 24.4252 202.354 24.7476 203.893 24.7339C205.433 24.7203 206.781 24.3434 207.176 24.1527C207.635 23.9347 207.749 23.3853 207.549 22.6678C207.408 22.1684 206.682 19.4892 206.682 19.4892C206.3 18.1815 205.383 17.9181 204.502 17.9181C203.621 17.9181 202.922 18.127 202.213 19.4348C202.213 19.4348 200.52 22.3863 200.261 22.9948C200.002 23.6033 200.261 23.9484 200.683 24.1845L200.678 24.189Z" fill="black"/>
<path d="M212.853 16.0108C212.244 16.0108 211.74 15.5295 211.717 14.9165C211.667 13.4997 211.304 12.4735 210.637 11.8695C209.874 11.1839 208.929 11.2338 208.888 11.2384C208.275 11.2883 207.721 10.8161 207.676 10.194C207.626 9.57187 208.08 9.03151 208.698 8.97702C208.893 8.95886 210.637 8.84079 212.117 10.1486C213.284 11.1793 213.915 12.755 213.988 14.8393C214.01 15.4659 213.52 15.9926 212.893 16.0108C212.88 16.0108 212.866 16.0108 212.853 16.0108Z" fill="white"/>
<path d="M228.251 38.665C228.251 34.3058 230.444 30.9501 233.377 30.5641C236.311 30.1782 236.338 31.4996 237.564 31.3815C239.489 31.1908 239.635 29.2155 240.397 24.5884C240.397 24.5884 241.001 20.765 241.001 19.1893C241.001 17.6136 240.139 16.2105 238.068 16.2105C236.106 16.2105 234.694 16.4057 235.135 19.8613C235.775 24.8744 233.214 26.2185 229.894 26.2185C226.952 26.2185 223.846 25.2695 223.846 21.0737C223.846 17.3184 226.516 15.1842 226.203 11.0294C225.885 6.87901 228.877 5.48043 232.959 6.17972C237.042 6.87901 240.016 8.89061 247.154 8.89061C254.292 8.89061 256.318 6.67467 260.709 6.22967C264.618 5.83007 268.424 6.65197 269.781 9.6898C271.248 12.9683 270.081 19.0258 268.701 23.0853C267.597 26.323 264.673 27.3765 260.359 27.0495C257.153 26.8043 253.788 24.3432 254.96 20.6741C256.131 17.0051 255.618 16.2059 253.548 16.2059C251.913 16.2059 250.987 16.6964 250.605 18.9849L249.679 24.6519C248.916 29.3381 248.239 31.1908 250.169 31.8447C252.099 32.4985 252.785 31.1544 254.756 31.1544C256.885 31.1544 260.341 32.9299 260.341 37.9612C260.341 42.6474 254.66 44.9314 249.316 44.1776C243.976 43.4238 242.963 41.7937 240.674 41.7937C238.386 41.7937 236.892 43.5192 234.249 43.7235C230.448 44.0187 228.246 42.3159 228.246 38.665H228.251Z" fill="black"/>
<path d="M266.93 15.6021C266.321 15.6021 265.817 15.1208 265.794 14.5078C265.744 13.091 265.381 12.0648 264.714 11.4609C263.951 10.7752 263.006 10.8251 262.965 10.8297C262.352 10.8705 261.798 10.4074 261.753 9.78528C261.703 9.16318 262.157 8.62282 262.775 8.56833C262.97 8.55017 264.714 8.4321 266.194 9.73987C267.361 10.7706 267.992 12.3463 268.06 14.4306C268.083 15.0572 267.593 15.584 266.966 15.6021C266.952 15.6021 266.939 15.6021 266.925 15.6021H266.93Z" fill="white"/>
<path d="M119.524 5.82568C106.065 5.82568 97.1287 14.4896 97.1287 26.6955C97.1287 37.2121 104.212 44.0779 115.982 44.0779C129.387 44.0779 138.759 35.5229 138.759 23.4805C138.759 12.8549 131.131 5.82568 119.524 5.82568Z" fill="black"/>
<path d="M116.423 31.395C115.837 31.395 115.224 31.3632 114.588 31.286C111.8 30.9636 109.766 29.9646 108.549 28.3208C107.014 26.2502 107.418 23.9434 107.437 23.8435C107.55 23.226 108.14 22.8173 108.758 22.9308C109.375 23.0443 109.784 23.6346 109.671 24.2522C109.662 24.3021 109.439 25.728 110.397 26.9949C111.228 28.0983 112.727 28.784 114.852 29.0292C120.11 29.6376 122.825 27.1992 123.189 26.6452C123.425 26.1003 124.052 25.8279 124.615 26.0367C125.205 26.2502 125.509 26.904 125.296 27.4898C124.846 28.7249 121.636 31.3904 116.427 31.3904L116.423 31.395ZM123.175 26.6725C123.175 26.6725 123.162 26.7043 123.157 26.7179C123.162 26.7043 123.171 26.6861 123.175 26.6725Z" fill="white"/>
<path d="M127.221 28.9564C125.763 28.9564 124.397 28.2753 123.457 27.0765C121.786 24.9378 122.653 22.7128 123.343 21.8318C123.729 21.3414 124.447 21.2551 124.937 21.6411C125.427 22.0271 125.514 22.7355 125.132 23.2259C124.982 23.4302 124.301 24.4746 125.241 25.6779C125.918 26.5452 126.758 26.6815 127.194 26.686C127.793 26.7087 128.129 26.4862 128.193 26.409C128.551 25.8959 129.26 25.7733 129.773 26.132C130.286 26.4908 130.409 27.1991 130.05 27.7168C129.537 28.4524 128.497 28.9247 127.344 28.9564C127.303 28.9564 127.257 28.9564 127.216 28.9564H127.221Z" fill="white"/>
<path d="M113.312 21.6957C112.813 21.6957 112.404 21.287 112.404 20.7875C112.404 19.9248 112.935 18.0312 113.044 17.6589C113.181 17.1776 113.685 16.896 114.166 17.0368C114.647 17.1776 114.924 17.677 114.788 18.1584C114.552 18.9803 114.221 20.338 114.221 20.783C114.221 21.2825 113.812 21.6912 113.312 21.6912V21.6957Z" fill="white"/>
<path d="M119.76 21.6958C119.261 21.6958 118.852 21.2871 118.852 20.7876C118.852 19.9249 119.383 18.0313 119.492 17.659C119.633 17.1776 120.133 16.9007 120.619 17.0369C121.1 17.1776 121.377 17.6771 121.241 18.163C121.005 18.9849 120.673 20.3426 120.673 20.7876C120.673 21.2871 120.264 21.6958 119.765 21.6958H119.76Z" fill="white"/>
<path d="M273.923 60.0429C272.152 56.0742 267.983 53.7992 262.493 53.7992C261.762 53.7992 261.008 53.8401 260.245 53.9173C258.016 54.1443 256.259 54.7255 254.706 55.2386C252.649 55.9152 250.705 56.56 247.154 56.56C243.086 56.56 240.72 55.8335 238.213 55.0661C236.819 54.6393 235.375 54.1942 233.727 53.9127C232.81 53.7538 231.915 53.6766 231.066 53.6766C227.301 53.6766 225.086 55.2114 223.896 56.4965C222.733 57.7497 221.403 59.9975 221.675 63.5802C221.757 64.6428 221.448 65.4601 220.853 66.895C219.991 61.7275 218.306 55.6155 210.873 54.217C210.291 54.108 209.697 54.0535 209.102 54.0535C206.536 54.0535 204.425 55.0661 202.726 55.8744C201.655 56.3875 200.638 56.8734 199.979 56.8734C199.757 56.8734 198.962 56.3784 198.485 56.0787C197.059 55.1887 195.102 53.9717 192.41 53.9717C188.096 53.9717 184.64 56.0242 182.797 59.3617C180.721 55.9062 176.98 54.0035 172.198 54.0035C169.714 54.0035 167.448 54.503 165.26 54.9844C162.876 55.5111 160.415 56.0515 157.318 56.0515C155.17 56.0515 154.189 55.6065 152.945 55.0479C151.592 54.4395 149.912 53.6811 147.455 53.6811C142.633 53.6811 139.018 56.3012 137.565 60.5197C137.243 60.1791 136.916 59.8476 136.571 59.5343C132.27 55.5837 126.376 53.495 119.529 53.495C109.866 53.495 101.983 57.3774 97.2967 63.7936C94.277 56.8915 88.0742 53.0045 79.4829 53.0045C75.6095 53.0045 72.7624 54.1171 70.6782 54.9344C69.7881 55.2841 68.7755 55.6791 68.3442 55.6791C67.9536 55.6791 67.8719 55.6519 67.0863 55.2432C65.8966 54.6211 64.0939 53.6857 61.1242 53.6857C56.4199 53.6857 52.601 55.9743 50.6666 59.5706C47.2473 55.3249 42.0344 53 35.3911 53C31.5178 53 28.6707 54.1125 26.5864 54.9299C25.6964 55.2795 24.6838 55.6746 24.2524 55.6746C23.8619 55.6746 23.7802 55.6473 22.9946 55.2386C21.8049 54.6165 20.0022 53.6811 17.0324 53.6811C10.1712 53.6811 5.18988 58.5489 5.18988 65.2512C5.18988 70.4914 9.01783 74.787 13.813 75.0459C13.7585 75.3047 13.704 75.5272 13.6722 75.6725C13.3226 77.1846 12.8866 78.724 12.5234 79.782C12.1419 79.7684 11.8014 79.7593 11.5834 79.7593C7.52842 79.7593 5.12177 81.335 3.814 82.6609C1.89776 84.6135 0.944177 87.3153 0.989586 90.6937C1.06678 96.2653 5.13993 100.634 10.262 100.634C12.5552 100.634 14.3715 99.7391 15.8291 99.0216C17.1096 98.3904 17.9452 98.0045 18.9441 97.9772H19.0395C19.4527 97.9772 19.5299 97.9954 20.5017 98.563C22.1273 99.512 24.5884 100.947 29.538 101.16C30.0647 101.183 30.5869 101.197 31.1 101.197C37.3074 101.197 42.602 99.4802 46.6434 96.2017C48.2963 98.8945 51.1116 100.638 54.3492 100.638C56.6424 100.638 58.4587 99.7436 59.9163 99.0262C61.1968 98.395 62.0324 98.009 63.0314 97.9818H63.1267C63.5399 97.9818 63.6171 97.9999 64.5889 98.5675C66.2145 99.5166 68.6756 100.951 73.6252 101.165C74.1519 101.188 74.6741 101.201 75.1872 101.201C82.9884 101.201 89.3547 98.4949 93.5959 93.3819C94.3224 92.5055 94.9854 91.5564 95.5802 90.5438C96.5247 92.1331 97.6781 93.5817 99.0494 94.8622C103.227 98.7673 109.085 100.833 115.991 100.833C122.898 100.833 128.987 98.8173 133.651 95.3299C135.054 98.5176 138.065 100.479 142.011 100.479C144.535 100.479 146.919 99.3894 149.23 98.3359C150.597 97.7093 152.468 96.8556 153.299 96.8556C154.693 96.8556 156.083 97.4232 157.844 98.1407C160.247 99.1215 163.235 100.338 167.149 100.338C171.694 100.338 174.714 99.226 176.716 97.6866C177.37 98.236 178.124 98.7219 178.978 99.1215C181.362 100.239 184.522 100.779 188.636 100.779C188.849 100.779 189.067 100.779 189.285 100.779C193.804 100.715 197.277 100.039 199.916 98.7083C200.379 98.4722 200.819 98.2179 201.228 97.9454C204.756 100.774 210.246 100.779 213.388 100.779C213.397 100.779 213.733 100.779 213.733 100.779C217.275 100.761 222.883 100.734 226.688 98.1816C228.364 99.6755 230.671 100.52 233.45 100.52C233.827 100.52 234.222 100.506 234.617 100.475C236.737 100.311 238.327 99.5756 239.485 99.0398C239.852 98.8718 240.534 98.5539 240.697 98.5539C240.838 98.5721 241.346 98.79 241.719 98.9444C243.086 99.5211 245.147 100.393 248.698 100.892C249.574 101.015 250.469 101.079 251.354 101.079C259.201 101.079 264.9 96.4924 264.9 90.1806C264.9 87.6468 264.282 85.5171 263.279 83.8097C269.804 83.2785 272.17 79.2462 273.014 76.7714C273.868 74.2694 276.452 65.6735 273.945 60.061L273.923 60.0429Z" fill="white"/>
<path d="M5.53044 90.6303C5.46233 85.826 8.1596 84.2958 11.5925 84.2958C12.1374 84.2958 13.6041 84.373 14.149 84.373C15.1298 84.373 15.5203 84.1732 16.1742 82.8609C16.928 81.3487 17.7272 78.3109 18.0995 76.6898C18.5536 74.7282 18.9668 72.6712 18.3992 71.3498C17.9542 70.3099 17.432 70.4053 16.3967 70.4053C15.7428 70.4053 15.1979 70.5143 14.2716 70.5143C11.7106 70.5143 9.73074 67.9714 9.73074 65.2469C9.73074 60.6152 13.2181 58.2176 17.0324 58.2176C20.6288 58.2176 21.0874 60.211 24.2479 60.211C27.2448 60.211 30.0965 57.541 35.3821 57.541C45.4628 57.541 50.7302 63.9391 50.7302 74.8372C50.7302 87.8603 44.2594 97.2508 29.7241 96.6151C22.7766 96.3154 22.872 93.3185 18.8079 93.432C15.0027 93.541 12.923 96.0884 10.2529 96.0884C7.58291 96.0884 5.56223 93.6227 5.52136 90.6257L5.53044 90.6303ZM31.2408 84.1232C35.264 84.1232 39.7231 80.2453 39.0556 74.7373C38.5743 70.764 35.8679 69.5016 32.3261 69.5016C30.823 69.5016 28.5708 69.7014 28.1348 72.3715C28.1348 72.3715 26.5592 79.9002 26.5592 81.4032C26.5592 82.9063 27.2176 84.1278 31.2408 84.1278V84.1232Z" fill="black"/>
<path d="M45.876 69.0566C45.3811 69.0566 44.927 68.7342 44.7862 68.2347C43.7055 64.4748 41.2398 63.6257 41.2171 63.6212C40.6177 63.4395 40.2817 62.8038 40.4633 62.2044C40.645 61.605 41.2807 61.269 41.8801 61.4506C42.0299 61.496 45.5309 62.6176 46.9658 67.608C47.1384 68.212 46.7933 68.8386 46.1894 69.0112C46.0849 69.043 45.9805 69.0566 45.876 69.0566Z" fill="white"/>
<path d="M49.6177 90.6303C49.5496 85.826 52.2469 84.2958 55.6798 84.2958C56.2247 84.2958 57.6914 84.373 58.2363 84.373C59.2171 84.373 59.6076 84.1732 60.2615 82.8609C61.0153 81.3487 61.8145 78.3109 62.1868 76.6898C62.6409 74.7282 63.0541 72.6712 62.4865 71.3498C62.0415 70.3099 61.5193 70.4053 60.484 70.4053C59.8301 70.4053 59.2852 70.5143 58.3589 70.5143C55.7978 70.5143 53.818 67.9714 53.818 65.2469C53.818 60.6152 57.3054 58.2176 61.1197 58.2176C64.7161 58.2176 65.1747 60.211 68.3351 60.211C71.3321 60.211 74.1838 57.541 79.4693 57.541C89.55 57.541 94.8174 63.9391 94.8174 74.8372C94.8174 87.8603 88.3467 97.2508 73.8114 96.6151C66.8639 96.3154 66.9593 93.3185 62.8952 93.432C59.09 93.541 57.0102 96.0884 54.3402 96.0884C51.6702 96.0884 49.6495 93.6227 49.6086 90.6257L49.6177 90.6303ZM75.3281 84.1232C79.3513 84.1232 83.8104 80.2453 83.1429 74.7373C82.6616 70.764 79.9552 69.5016 76.4133 69.5016C74.9103 69.5016 72.658 69.7014 72.2221 72.3715C72.2221 72.3715 70.6464 79.9002 70.6464 81.4032C70.6464 82.9063 71.3049 84.1278 75.3281 84.1278V84.1232Z" fill="black"/>
<path d="M89.9632 69.0566C89.4682 69.0566 89.0142 68.7342 88.8734 68.2347C87.7927 64.4748 85.327 63.6257 85.3043 63.6212C84.7049 63.4395 84.3689 62.8038 84.5505 62.2044C84.7321 61.605 85.3678 61.269 85.9672 61.4506C86.1171 61.496 89.6181 62.6176 91.053 67.608C91.2256 68.212 90.8804 68.8386 90.2765 69.0112C90.1721 69.043 90.0676 69.0566 89.9632 69.0566Z" fill="white"/>
<path d="M137.315 90.966C137.315 86.5523 139.386 83.2556 142.796 83.6552C144.295 83.8323 144.617 84.3726 145.434 84.3726C146.524 84.3726 146.946 83.9049 147.6 82.9513C148.254 81.9978 149.439 79.4503 149.716 77.6522C150.043 75.5815 150.32 72.8752 150.021 71.2359C149.834 70.2142 149.09 69.7692 148.054 69.7692C147.292 69.7692 146.365 69.8782 145.602 69.8782C142.769 69.8782 141.407 68.0255 141.407 64.9196C141.407 60.7238 143.695 58.2173 147.455 58.2173C150.833 58.2173 151.764 60.5876 157.322 60.5876C163.861 60.5876 167.784 58.5351 172.198 58.5351C175.468 58.5351 177.815 59.6976 179.023 61.8908C180.158 63.9524 180.667 69.6194 179.772 71.8989C178.878 74.1784 177.942 75.241 174.909 75.241C171.876 75.241 170.763 73.7289 170.146 72.6618C169.528 71.5947 168.756 69.5467 164.56 69.5467C160.801 69.5467 159.656 69.7102 159.656 72.7617C159.656 73.797 160.201 73.906 161.455 73.906C162.599 73.906 164.016 73.5563 165.051 73.5245C167.63 73.4382 168.802 75.5089 168.42 77.7975C168.093 79.9771 166.513 80.967 164.016 80.7172C162.876 80.6037 161.455 80.0634 159.929 80.0634C158.621 80.0634 157.967 81.0987 157.967 83.1693C157.967 84.4226 158.839 84.6269 161.727 84.5861C164.833 84.5406 165.559 83.8686 167.176 82.9332C168.87 81.9524 169.91 80.2359 172.92 80.7172C175.931 81.1986 176.276 84.4816 176.458 85.8121C176.644 87.1471 176.33 89.7263 175.672 91.6108C174.696 94.4216 171.762 95.7702 167.135 95.7702C161.359 95.7702 158.085 92.2919 153.29 92.2919C149.748 92.2919 145.162 95.9155 142.001 95.9155C138.841 95.9155 137.315 93.9538 137.315 90.9569V90.966Z" fill="black"/>
<path d="M176.68 67.8033C176.071 67.8033 175.567 67.322 175.545 66.7089C175.495 65.2922 175.132 64.266 174.464 63.662C173.701 62.9764 172.757 63.0263 172.716 63.0308C172.103 63.0717 171.549 62.6085 171.503 61.9865C171.453 61.3644 171.908 60.824 172.525 60.7695C172.72 60.7513 174.464 60.6333 175.944 61.941C177.111 62.9718 177.743 64.5475 177.811 66.6318C177.833 67.2584 177.343 67.7851 176.716 67.8033C176.703 67.8033 176.689 67.8033 176.675 67.8033H176.68Z" fill="white"/>
<path d="M178.401 91.6929C178.401 88.0421 180.508 85.7444 183.414 85.0996C185.889 84.5501 188.268 83.4558 189.817 80.813C191.365 78.1702 194.662 71.2908 194.952 70.1692C195.243 69.0476 192.405 69.8423 191.751 69.8423C191.37 69.8423 190.716 70.0602 189.299 70.0602C187.446 70.0602 185.866 68.4255 185.866 65.3741C185.866 61.0149 188.591 58.5083 192.405 58.5083C195.239 58.5083 196.978 61.4099 199.975 61.4099C203.625 61.4099 206.491 58.0088 210.024 58.6718C215.863 59.7707 215.963 65.5103 216.971 71.4498C217.843 76.6036 219.591 79.0693 222.429 82.811C225.263 86.5527 226.689 88.6642 226.035 91.5839C225.331 94.7217 222.384 96.1702 213.702 96.2156C205.02 96.2565 203.031 94.481 202.54 91.5839C201.909 87.8468 203.507 85.9169 208.098 85.9169C209.928 85.9169 210.037 84.6954 209.951 84.0188C209.865 83.3423 209.161 82.7747 208.262 82.92C207.453 83.0471 205.047 83.4467 202.758 83.4467C200.688 83.4467 199.339 83.1198 198.404 82.9517C197.468 82.7837 196.605 82.7247 196.092 83.256C195.634 83.7373 195.52 84.4003 195.738 84.9815C195.956 85.5627 196.41 85.6853 198.04 85.8806C199.793 86.0895 200.951 87.7696 200.951 90.0582C200.951 94.145 196.61 96.1112 189.208 96.2111C181.811 96.311 178.396 94.5219 178.396 91.6884L178.401 91.6929ZM200.678 76.3902C201.096 76.6263 202.354 76.9487 203.893 76.9351C205.433 76.9215 206.781 76.5446 207.176 76.3539C207.635 76.1359 207.749 75.5865 207.549 74.869C207.408 74.3695 206.682 71.6904 206.682 71.6904C206.3 70.3826 205.383 70.1193 204.502 70.1193C203.621 70.1193 202.922 70.3282 202.213 71.6359C202.213 71.6359 200.52 74.5875 200.261 75.196C200.002 75.8044 200.261 76.1495 200.683 76.3857L200.678 76.3902Z" fill="black"/>
<path d="M212.853 68.212C212.244 68.212 211.74 67.7307 211.717 67.1176C211.667 65.7009 211.304 64.6747 210.637 64.0707C209.874 63.385 208.929 63.435 208.888 63.4395C208.275 63.4895 207.721 63.0172 207.676 62.3951C207.626 61.773 208.08 61.2327 208.698 61.1782C208.893 61.16 210.637 61.042 212.117 62.3497C213.284 63.3805 213.915 64.9562 213.988 67.0404C214.01 67.6671 213.52 68.1938 212.893 68.212C212.88 68.212 212.866 68.212 212.853 68.212Z" fill="white"/>
<path d="M228.251 90.8662C228.251 86.507 230.444 83.1513 233.377 82.7653C236.311 82.3793 236.338 83.7007 237.564 83.5827C239.489 83.3919 239.635 81.4167 240.397 76.7895C240.397 76.7895 241.001 72.9661 241.001 71.3905C241.001 69.8148 240.139 68.4116 238.068 68.4116C236.106 68.4116 234.694 68.6069 235.135 72.0625C235.775 77.0756 233.214 78.4197 229.894 78.4197C226.952 78.4197 223.846 77.4707 223.846 73.2749C223.846 69.5196 226.516 67.3854 226.203 63.2305C225.885 59.0802 228.877 57.6816 232.959 58.3809C237.042 59.0802 240.016 61.0918 247.154 61.0918C254.292 61.0918 256.318 58.8758 260.709 58.4308C264.618 58.0312 268.424 58.8531 269.781 61.891C271.248 65.1695 270.081 71.227 268.701 75.2865C267.597 78.5241 264.673 79.5776 260.359 79.2507C257.153 79.0055 253.788 76.5443 254.96 72.8753C256.131 69.2063 255.618 68.4071 253.548 68.4071C251.913 68.4071 250.987 68.8975 250.605 71.1861L249.679 76.8531C248.916 81.5393 248.239 83.3919 250.169 84.0458C252.099 84.6997 252.785 83.3556 254.756 83.3556C256.885 83.3556 260.341 85.1311 260.341 90.1624C260.341 94.8485 254.66 97.1326 249.316 96.3788C243.976 95.625 242.963 93.9949 240.674 93.9949C238.386 93.9949 236.892 95.7204 234.249 95.9247C230.448 96.2199 228.246 94.5171 228.246 90.8662H228.251Z" fill="black"/>
<path d="M266.93 67.8033C266.321 67.8033 265.817 67.322 265.794 66.7089C265.744 65.2922 265.381 64.266 264.714 63.662C263.951 62.9764 263.006 63.0263 262.965 63.0308C262.352 63.0717 261.798 62.6085 261.753 61.9865C261.703 61.3644 262.157 60.824 262.775 60.7695C262.97 60.7513 264.714 60.6333 266.194 61.941C267.361 62.9718 267.992 64.5475 268.06 66.6318C268.083 67.2584 267.593 67.7851 266.966 67.8033C266.952 67.8033 266.939 67.8033 266.925 67.8033H266.93Z" fill="white"/>
<path d="M119.524 58.0269C106.065 58.0269 97.1287 66.6908 97.1287 78.8966C97.1287 89.4133 104.212 96.2791 115.982 96.2791C129.387 96.2791 138.759 87.7241 138.759 75.6817C138.759 65.0561 131.131 58.0269 119.524 58.0269Z" fill="black"/>
<path d="M116.423 83.5961C115.837 83.5961 115.224 83.5643 114.588 83.4871C111.8 83.1647 109.766 82.1658 108.549 80.522C107.014 78.4513 107.418 76.1446 107.437 76.0447C107.55 75.4271 108.14 75.0184 108.758 75.132C109.375 75.2455 109.784 75.8358 109.671 76.4534C109.662 76.5033 109.439 77.9291 110.397 79.196C111.228 80.2995 112.727 80.9851 114.852 81.2303C120.11 81.8388 122.825 79.4004 123.189 78.8464C123.425 78.3015 124.052 78.029 124.615 78.2379C125.205 78.4513 125.509 79.1052 125.296 79.691C124.846 80.9261 121.636 83.5916 116.427 83.5916L116.423 83.5961ZM123.175 78.8736C123.175 78.8736 123.162 78.9054 123.157 78.919C123.162 78.9054 123.171 78.8873 123.175 78.8736Z" fill="white"/>
<path d="M127.221 81.1576C125.763 81.1576 124.397 80.4765 123.457 79.2777C121.786 77.139 122.653 74.9139 123.343 74.033C123.729 73.5426 124.447 73.4563 124.937 73.8423C125.427 74.2283 125.514 74.9366 125.132 75.4271C124.982 75.6314 124.301 76.6758 125.241 77.8791C125.918 78.7464 126.758 78.8826 127.194 78.8872C127.793 78.9099 128.129 78.6874 128.193 78.6102C128.551 78.0971 129.26 77.9745 129.773 78.3332C130.286 78.6919 130.409 79.4003 130.05 79.918C129.537 80.6536 128.497 81.1258 127.344 81.1576C127.303 81.1576 127.257 81.1576 127.216 81.1576H127.221Z" fill="white"/>
<path d="M113.312 73.8969C112.813 73.8969 112.404 73.4882 112.404 72.9887C112.404 72.1259 112.935 70.2324 113.044 69.8601C113.181 69.3787 113.685 69.0972 114.166 69.238C114.647 69.3787 114.924 69.8782 114.788 70.3595C114.552 71.1814 114.221 72.5392 114.221 72.9842C114.221 73.4837 113.812 73.8923 113.312 73.8923V73.8969Z" fill="white"/>
<path d="M119.76 73.897C119.261 73.897 118.852 73.4883 118.852 72.9888C118.852 72.126 119.383 70.2325 119.492 69.8601C119.633 69.3788 120.133 69.1018 120.619 69.2381C121.1 69.3788 121.377 69.8783 121.241 70.3642C121.005 71.1861 120.673 72.5438 120.673 72.9888C120.673 73.4883 120.264 73.897 119.765 73.897H119.76Z" fill="white"/>
</g>
<defs>
<clipPath id="clip0_802_19050">
<rect width="276" height="102" fill="white"/>
</clipPath>
</defs>
</svg>
