<svg width="25" height="24" viewBox="0 0 25 24" fill="none" xmlns="http://www.w3.org/2000/svg">
<path d="M11.1115 3.78273C11.8359 2.26449 13.9971 2.26449 14.7215 3.78273L15.9052 6.26331C16.1968 6.87433 16.7777 7.29636 17.4489 7.38484L20.1738 7.74404C21.8416 7.96389 22.5094 10.0192 21.2894 11.1774L19.296 13.0697C18.805 13.5358 18.5831 14.2187 18.7064 14.8844L19.2068 17.5869C19.5131 19.2411 17.7647 20.5113 16.2862 19.7089L13.8705 18.3978C13.2755 18.0748 12.5575 18.0748 11.9625 18.3978L9.54682 19.7089C8.06831 20.5113 6.31992 19.2411 6.62622 17.5869L7.12665 14.8844C7.24992 14.2187 7.02804 13.5358 6.53703 13.0697L4.54363 11.1774C3.32357 10.0192 3.99139 7.96389 5.6592 7.74404L8.38415 7.38484C9.05536 7.29636 9.63624 6.87433 9.9278 6.26331L11.1115 3.78273Z" fill="#CBD0D5"/>
</svg>
