<svg width="46" height="51" viewBox="0 0 46 51" fill="none" xmlns="http://www.w3.org/2000/svg">
<g filter="url(#filter0_d_3424_24198)">
<path d="M24.732 42C23.9622 43.3333 22.0377 43.3333 21.2679 42L17.8038 36C17.034 34.6667 17.9963 33 19.5359 33L26.4641 33C28.0037 33 28.966 34.6667 28.1962 36L24.732 42Z" fill="white"/>
<circle cx="23" cy="19" r="17.6" fill="#192028" stroke="white" stroke-width="2.8"/>
</g>
<path d="M17 12.3256C17 11.5935 17.5665 11 18.2653 11H27.7347C28.4335 11 29 11.5935 29 12.3256V23.8841H17V12.3256Z" fill="white"/>
<path d="M17 23.8841H29V25.6723C29 26.7137 27.9063 27.3484 27.0636 26.7961L23 24.1328L18.9364 26.7961C18.0937 27.3484 17 26.7137 17 25.6723V23.8841Z" fill="white"/>
<defs>
<filter id="filter0_d_3424_24198" x="0" y="0" width="46" height="52" filterUnits="userSpaceOnUse" color-interpolation-filters="sRGB">
<feFlood flood-opacity="0" result="BackgroundImageFix"/>
<feColorMatrix in="SourceAlpha" type="matrix" values="0 0 0 0 0 0 0 0 0 0 0 0 0 0 0 0 0 0 127 0" result="hardAlpha"/>
<feOffset dy="4"/>
<feGaussianBlur stdDeviation="2"/>
<feComposite in2="hardAlpha" operator="out"/>
<feColorMatrix type="matrix" values="0 0 0 0 0 0 0 0 0 0 0 0 0 0 0 0 0 0 0.25 0"/>
<feBlend mode="normal" in2="BackgroundImageFix" result="effect1_dropShadow_3424_24198"/>
<feBlend mode="normal" in="SourceGraphic" in2="effect1_dropShadow_3424_24198" result="shape"/>
</filter>
</defs>
</svg>
