<svg width="32" height="32" viewBox="0 0 32 32" fill="none" xmlns="http://www.w3.org/2000/svg">
<g id="Pin Bowl3" clip-path="url(#clip0_2527_262)">
<g id="Group 1000004538">
<path id="Union" fill-rule="evenodd" clip-rule="evenodd" d="M21.9681 15.8872C26.1968 13.5966 29.0906 8.94771 29.0906 3.58594H2.90979C2.90979 8.94824 5.80412 13.5975 10.0336 15.8879V18.5496H21.9681V15.8872Z" fill="#838991"/>
<path id="Union (Stroke)" fill-rule="evenodd" clip-rule="evenodd" d="M21.9681 15.8872C25.9189 13.7471 28.7044 9.54868 29.0535 4.63356C29.0781 4.28774 29.0906 3.93838 29.0906 3.58594H2.90979C2.90979 3.93838 2.92229 4.28774 2.94686 4.63356C3.29602 9.5492 6.0821 13.748 10.0336 15.8879V18.5496H21.9681V15.8872ZM20.9204 17.502V15.2632L21.4691 14.966C25.0797 13.0102 27.6563 9.1658 28.0031 4.63356H3.99732C4.34414 9.16628 6.92121 13.0111 10.5324 14.9667L11.0812 15.2638V17.502H20.9204Z" fill="black"/>
</g>
<g id="Group 1000004480">
<g id="Group 1000004430">
<path id="Union_2" fill-rule="evenodd" clip-rule="evenodd" d="M21.9682 22.47C26.197 20.1793 29.0907 15.5305 29.0907 10.1687H2.90991C2.90991 15.531 5.80424 20.1802 10.0337 22.4706V25.1315H21.9682V22.47Z" fill="#F2F4F6"/>
<path id="Union (Stroke)_2" fill-rule="evenodd" clip-rule="evenodd" d="M21.9682 22.47C25.919 20.3299 28.7045 16.1314 29.0537 11.2163C29.0782 10.8705 29.0907 10.5211 29.0907 10.1687H2.90991C2.90991 10.5211 2.92242 10.8705 2.94698 11.2163C3.29615 16.132 6.08223 20.3308 10.0337 22.4706V25.1315H21.9682V22.47ZM20.9206 24.0839V21.846L21.4692 21.5488C25.0799 19.593 27.6564 15.7486 28.0032 11.2163H3.99744C4.34427 15.749 6.92133 19.5938 10.5326 21.5494L11.0813 21.8466V24.0839H20.9206Z" fill="black"/>
</g>
<path id="Vector" d="M28.9103 12.3435C29.0288 11.6356 29.0908 10.9092 29.0908 10.1687H2.91003C2.91003 10.9092 2.9731 11.6356 3.09055 12.3435H28.9092H28.9103Z" fill="#192028"/>
</g>
<g id="Group 1000004439">
<path id="Union_3" fill-rule="evenodd" clip-rule="evenodd" d="M21.9681 29.0517C26.1968 26.7611 29.0906 22.1123 29.0906 16.7505H2.90979C2.90979 22.1128 5.80412 26.762 10.0336 29.0524V31.7141H21.9681V29.0517Z" fill="black"/>
<path id="Vector_2" d="M25.7773 18.2007H27.3616C27.3616 18.2007 27.1703 24.461 21.968 27.0149C21.968 27.0149 25.7773 23.3189 25.7773 18.2007Z" fill="white"/>
</g>
</g>
<defs>
<clipPath id="clip0_2527_262">
<rect width="31.4286" height="31.4286" fill="white" transform="translate(0.285767 0.285645)"/>
</clipPath>
</defs>
</svg>
