<svg width="46" height="51" viewBox="0 0 46 51" fill="none" xmlns="http://www.w3.org/2000/svg">
<g filter="url(#filter0_d_3424_23088)">
<path d="M24.732 42C23.9622 43.3333 22.0377 43.3333 21.2679 42L17.8038 36C17.034 34.6667 17.9963 33 19.5359 33L26.4641 33C28.0037 33 28.966 34.6667 28.1962 36L24.732 42Z" fill="white"/>
<circle cx="23" cy="19" r="17.6" fill="#FF896F" stroke="white" stroke-width="2.8"/>
</g>
<path fill-rule="evenodd" clip-rule="evenodd" d="M27.3711 21.5936C30.4686 19.9158 32.5882 16.5107 32.5882 12.5834H13.4116C13.4116 16.5111 15.5316 19.9164 18.6295 21.5941V23.5431H27.3711V21.5936Z" fill="#565C64"/>
<path fill-rule="evenodd" clip-rule="evenodd" d="M27.3711 21.5936C30.2741 20.0212 32.3181 16.9315 32.5634 13.3167C32.5798 13.0745 32.5882 12.83 32.5882 12.5834H13.4116C13.4116 12.83 13.42 13.0745 13.4364 13.3167C13.6817 16.9319 15.7261 20.0218 18.6295 21.5941V23.5431H27.3711V21.5936ZM26.6378 22.8098V21.1568L27.0218 20.9488C29.6866 19.5054 31.5845 16.6636 31.8282 13.3167H14.1716C14.4153 16.664 16.3136 19.506 18.9787 20.9492L19.3628 21.1572V22.8098H26.6378Z" fill="#565C64"/>
<path d="M32.4559 14.1764C32.5427 13.6579 32.5881 13.1258 32.5881 12.5834H13.4116C13.4116 13.1258 13.4578 13.6579 13.5438 14.1764H32.4551H32.4559Z" fill="#FFEDE9"/>
<path fill-rule="evenodd" clip-rule="evenodd" d="M27.3711 26.4146C30.4686 24.7368 32.5882 21.3317 32.5882 17.4044H13.4116C13.4116 21.3321 15.5316 24.7375 18.6295 26.4151V28.3648H27.3711V26.4146Z" fill="#F2F4F6"/>
<path d="M30.1612 18.4666H31.3217C31.3217 18.4666 31.1815 23.052 27.3711 24.9227C27.3711 24.9227 30.1612 22.2155 30.1612 18.4666Z" fill="#CBD0D5"/>
<defs>
<filter id="filter0_d_3424_23088" x="0" y="0" width="46" height="52" filterUnits="userSpaceOnUse" color-interpolation-filters="sRGB">
<feFlood flood-opacity="0" result="BackgroundImageFix"/>
<feColorMatrix in="SourceAlpha" type="matrix" values="0 0 0 0 0 0 0 0 0 0 0 0 0 0 0 0 0 0 127 0" result="hardAlpha"/>
<feOffset dy="4"/>
<feGaussianBlur stdDeviation="2"/>
<feComposite in2="hardAlpha" operator="out"/>
<feColorMatrix type="matrix" values="0 0 0 0 0 0 0 0 0 0 0 0 0 0 0 0 0 0 0.25 0"/>
<feBlend mode="normal" in2="BackgroundImageFix" result="effect1_dropShadow_3424_23088"/>
<feBlend mode="normal" in="SourceGraphic" in2="effect1_dropShadow_3424_23088" result="shape"/>
</filter>
</defs>
</svg>
