<svg width="46" height="51" viewBox="0 0 46 51" fill="none" xmlns="http://www.w3.org/2000/svg">
<g filter="url(#filter0_d_3634_7746)">
<path d="M24.732 42C23.9622 43.3333 22.0377 43.3333 21.2679 42L17.8038 36C17.034 34.6667 17.9963 33 19.5359 33L26.4641 33C28.0037 33 28.966 34.6667 28.1962 36L24.732 42Z" fill="#192028"/>
<circle cx="23" cy="19" r="17.6" fill="white" stroke="#192028" stroke-width="2.8"/>
</g>
<path fill-rule="evenodd" clip-rule="evenodd" d="M27.5575 18.9142C30.7868 17.165 32.9965 13.615 32.9965 9.52051H13.0039C13.0039 13.6154 15.2141 17.1657 18.4439 18.9147V20.9473H27.5575V18.9142Z" fill="#838991"/>
<path fill-rule="evenodd" clip-rule="evenodd" d="M27.5575 18.9142C30.5745 17.28 32.7016 14.0739 32.9682 10.3205C32.987 10.0564 32.9965 9.78965 32.9965 9.52051H13.0039C13.0039 9.78965 13.0135 10.0564 13.0322 10.3205C13.2988 14.0743 15.4264 17.2806 18.4439 18.9147V20.9473H27.5575V18.9142ZM26.7575 20.1473V18.4377L27.1765 18.2108C29.9337 16.7173 31.9012 13.7815 32.1661 10.3205H13.8344C14.0992 13.7819 16.0672 16.7179 18.8248 18.2112L19.2439 18.4382V20.1473H26.7575Z" fill="black"/>
<path fill-rule="evenodd" clip-rule="evenodd" d="M27.5575 23.9406C30.7868 22.1914 32.9965 18.6413 32.9965 14.5469H13.0039C13.0039 18.6417 15.2141 22.1921 18.4439 23.9411V25.973H27.5575V23.9406Z" fill="#F2F4F6"/>
<path fill-rule="evenodd" clip-rule="evenodd" d="M27.5575 23.9406C30.5745 22.3063 32.7016 19.1002 32.9682 15.3469C32.987 15.0828 32.9965 14.816 32.9965 14.5469H13.0039C13.0039 14.816 13.0135 15.0828 13.0322 15.3469C13.2988 19.1006 15.4264 22.307 18.4439 23.9411V25.973H27.5575V23.9406ZM26.7575 25.173V23.4641L27.1765 23.2371C29.9337 21.7436 31.9012 18.8079 32.1661 15.3469H13.8344C14.0992 18.8082 16.0672 21.7442 18.8248 23.2376L19.2439 23.4645V25.173H26.7575Z" fill="black"/>
<path d="M32.8586 16.2077C32.9492 15.6671 32.9965 15.1124 32.9965 14.5469H13.0039C13.0039 15.1124 13.0521 15.6671 13.1418 16.2077H32.8578H32.8586Z" fill="#192028"/>
<path fill-rule="evenodd" clip-rule="evenodd" d="M27.5575 28.9669C30.7868 27.2177 32.9965 23.6677 32.9965 19.5732H13.0039C13.0039 23.6681 15.2141 27.2184 18.4439 28.9674V31H27.5575V28.9669Z" fill="black"/>
<path d="M30.4665 20.6807H31.6764C31.6764 20.6807 31.5302 25.4613 27.5576 27.4115C27.5576 27.4115 30.4665 24.5891 30.4665 20.6807Z" fill="white"/>
<defs>
<filter id="filter0_d_3634_7746" x="0" y="0" width="46" height="52" filterUnits="userSpaceOnUse" color-interpolation-filters="sRGB">
<feFlood flood-opacity="0" result="BackgroundImageFix"/>
<feColorMatrix in="SourceAlpha" type="matrix" values="0 0 0 0 0 0 0 0 0 0 0 0 0 0 0 0 0 0 127 0" result="hardAlpha"/>
<feOffset dy="4"/>
<feGaussianBlur stdDeviation="2"/>
<feComposite in2="hardAlpha" operator="out"/>
<feColorMatrix type="matrix" values="0 0 0 0 0 0 0 0 0 0 0 0 0 0 0 0 0 0 0.25 0"/>
<feBlend mode="normal" in2="BackgroundImageFix" result="effect1_dropShadow_3634_7746"/>
<feBlend mode="normal" in="SourceGraphic" in2="effect1_dropShadow_3634_7746" result="shape"/>
</filter>
</defs>
</svg>
