<svg width="32" height="32" viewBox="0 0 32 32" fill="none" xmlns="http://www.w3.org/2000/svg">
<g id="Pin Bowl2">
<g id="Group 1000004556">
<g id="Group 1000004482">
<g id="Group 1000004478">
<path id="Union" fill-rule="evenodd" clip-rule="evenodd" d="M22.2444 20.0227C26.6693 17.6258 29.6973 12.7613 29.6973 7.15088H2.30225C2.30225 12.7618 5.33078 17.6267 9.75637 20.0233V22.8077H22.2444V20.0227Z" fill="#F2F4F6"/>
<path id="Union (Stroke)" fill-rule="evenodd" clip-rule="evenodd" d="M22.2444 20.0227C26.3914 17.7763 29.3115 13.3625 29.6619 8.1985C29.6854 7.85252 29.6973 7.50317 29.6973 7.15088H2.30225C2.30225 7.50317 2.31418 7.85252 2.33766 8.1985C2.68805 13.363 5.60865 17.7772 9.75637 20.0233V22.8077H22.2444V20.0227ZM21.1967 21.76V19.3987L21.7454 19.1015C25.5522 17.0395 28.2635 12.9798 28.6117 8.1985H3.38786C3.73612 12.9803 6.44788 17.0403 10.2552 19.1021L10.804 19.3993V21.76H21.1967Z" fill="black"/>
</g>
<path id="Vector" d="M29.5085 9.42659C29.6325 8.68584 29.6974 7.92576 29.6974 7.15088H2.30237C2.30237 7.92576 2.36836 8.68584 2.49125 9.42659H29.5073H29.5085Z" fill="#192028"/>
</g>
<g id="Group 1000004479">
<path id="Union_2" fill-rule="evenodd" clip-rule="evenodd" d="M22.2445 26.9098C26.6694 24.513 29.6974 19.6485 29.6974 14.0381H2.30237C2.30237 19.649 5.33091 24.5138 9.7565 26.9104V29.6957H22.2445V26.9098Z" fill="black"/>
<path id="Vector_2" d="M26.2305 15.5554H27.8884C27.8884 15.5554 27.6881 22.1061 22.2446 24.7784C22.2446 24.7784 26.2305 20.911 26.2305 15.5554Z" fill="white"/>
</g>
</g>
</g>
</svg>
