<svg width="46" height="51" viewBox="0 0 46 51" fill="none" xmlns="http://www.w3.org/2000/svg">
<g filter="url(#filter0_d_3424_23106)">
<path d="M24.732 42C23.9622 43.3333 22.0377 43.3333 21.2679 42L17.8038 36C17.034 34.6667 17.9963 33 19.5359 33L26.4641 33C28.0037 33 28.966 34.6667 28.1962 36L24.732 42Z" fill="white"/>
<circle cx="23" cy="19" r="17.6" fill="#FF896F" stroke="white" stroke-width="2.8"/>
</g>
<path fill-rule="evenodd" clip-rule="evenodd" d="M27.1777 18.9212C30.1379 17.3177 32.1635 14.0635 32.1635 10.3103H13.8369C13.8369 14.0639 15.8629 17.3184 18.8236 18.9217V20.7849H27.1777V18.9212Z" fill="#192028"/>
<path fill-rule="evenodd" clip-rule="evenodd" d="M27.1777 23.529C30.1379 21.9255 32.1635 18.6713 32.1635 14.9181H13.8369C13.8369 18.6717 15.8629 21.9262 18.8236 23.5294V25.3921H27.1777V23.529Z" fill="#565C64"/>
<path fill-rule="evenodd" clip-rule="evenodd" d="M27.1777 23.529C29.9433 22.0309 31.8932 19.092 32.1375 15.6514C32.1547 15.4094 32.1635 15.1648 32.1635 14.9181H13.8369C13.8369 15.1648 13.8457 15.4094 13.8629 15.6514C14.1073 19.0924 16.0575 22.0315 18.8236 23.5294V25.3921H27.1777V23.529ZM26.4444 24.6587V23.0922L26.8284 22.8842C29.3559 21.5151 31.1595 18.824 31.4022 15.6514H14.5982C14.841 18.8243 16.6449 21.5157 19.1728 22.8846L19.5569 23.0926V24.6587H26.4444Z" fill="#565C64"/>
<path d="M32.0371 16.4405C32.1201 15.9449 32.1634 15.4365 32.1634 14.9181H13.8369C13.8369 15.4365 13.8811 15.9449 13.9633 16.4405H32.0363H32.0371Z" fill="#FFEDE9"/>
<path fill-rule="evenodd" clip-rule="evenodd" d="M27.1777 28.1363C30.1379 26.5328 32.1635 23.2786 32.1635 19.5254H13.8369C13.8369 23.279 15.8629 26.5335 18.8236 28.1367V29.9999H27.1777V28.1363Z" fill="#F2F4F6"/>
<path d="M29.8442 20.5405H30.9533C30.9533 20.5405 30.8193 24.9227 27.1777 26.7105C27.1777 26.7105 29.8442 24.1233 29.8442 20.5405Z" fill="#CBD0D5"/>
<defs>
<filter id="filter0_d_3424_23106" x="0" y="0" width="46" height="52" filterUnits="userSpaceOnUse" color-interpolation-filters="sRGB">
<feFlood flood-opacity="0" result="BackgroundImageFix"/>
<feColorMatrix in="SourceAlpha" type="matrix" values="0 0 0 0 0 0 0 0 0 0 0 0 0 0 0 0 0 0 127 0" result="hardAlpha"/>
<feOffset dy="4"/>
<feGaussianBlur stdDeviation="2"/>
<feComposite in2="hardAlpha" operator="out"/>
<feColorMatrix type="matrix" values="0 0 0 0 0 0 0 0 0 0 0 0 0 0 0 0 0 0 0.25 0"/>
<feBlend mode="normal" in2="BackgroundImageFix" result="effect1_dropShadow_3424_23106"/>
<feBlend mode="normal" in="SourceGraphic" in2="effect1_dropShadow_3424_23106" result="shape"/>
</filter>
</defs>
</svg>
