<svg width="46" height="52" viewBox="0 0 46 52" fill="none" xmlns="http://www.w3.org/2000/svg">
<g filter="url(#filter0_d_3634_1234)">
<path d="M24.732 42.1699C23.9622 43.5033 22.0377 43.5033 21.2679 42.1699L17.8038 36.1699C17.034 34.8366 17.9963 33.1699 19.5359 33.1699L26.4641 33.1699C28.0037 33.1699 28.966 34.8366 28.1962 36.1699L24.732 42.1699Z" fill="#192028"/>
<circle cx="23" cy="19.1699" r="17.6" fill="white" stroke="#192028" stroke-width="2.8"/>
</g>
<path fill-rule="evenodd" clip-rule="evenodd" d="M28.0487 25.7789C31.6263 23.8411 34.0745 19.9081 34.0745 15.3721H11.9253C11.9253 19.9085 14.3739 23.8418 17.952 25.7794V28.0314H28.0487V25.7789Z" fill="black"/>
<path d="M31.271 16.5991H32.6114C32.6114 16.5991 32.4495 21.8954 28.0483 24.056C28.0483 24.056 31.271 20.9292 31.271 16.5991Z" fill="white"/>
<defs>
<filter id="filter0_d_3634_1234" x="0" y="0.169922" width="46" height="52" filterUnits="userSpaceOnUse" color-interpolation-filters="sRGB">
<feFlood flood-opacity="0" result="BackgroundImageFix"/>
<feColorMatrix in="SourceAlpha" type="matrix" values="0 0 0 0 0 0 0 0 0 0 0 0 0 0 0 0 0 0 127 0" result="hardAlpha"/>
<feOffset dy="4"/>
<feGaussianBlur stdDeviation="2"/>
<feComposite in2="hardAlpha" operator="out"/>
<feColorMatrix type="matrix" values="0 0 0 0 0 0 0 0 0 0 0 0 0 0 0 0 0 0 0.25 0"/>
<feBlend mode="normal" in2="BackgroundImageFix" result="effect1_dropShadow_3634_1234"/>
<feBlend mode="normal" in="SourceGraphic" in2="effect1_dropShadow_3634_1234" result="shape"/>
</filter>
</defs>
</svg>
