<svg width="122" height="122" viewBox="0 0 123 122" fill="none" xmlns="http://www.w3.org/2000/svg">
<path d="M110.847 32.0685C111.373 31.0031 111.661 29.8695 111.661 28.6904C111.661 24.6049 108.244 21.0422 103.18 19.1528C102.457 15.2065 99.132 11.1637 94.1745 8.80558C89.6429 6.64919 84.8466 6.42471 81.3198 7.85378C78.3228 3.34212 73.1579 0.361816 67.2848 0.361816C62.2293 0.361816 57.7007 2.57221 54.626 6.06107C52.9821 5.52979 51.2288 5.23999 49.4064 5.23999C43.0726 5.23999 37.5623 8.7033 34.7063 13.8144C32.4492 13.4962 29.8437 13.5871 27.1461 14.1639C19.8566 15.7265 14.6658 20.2523 15.5525 24.2725C15.9671 26.1618 17.6513 27.6023 20.0754 28.4375C17.2914 30.7047 15.6101 33.6339 15.6101 36.8301C15.6101 44.0266 24.1002 49.8594 34.5768 49.8594C40.1188 49.8594 45.1081 48.2258 48.5744 45.6205C49.1473 45.683 49.7259 45.7171 50.3161 45.7171C51.8362 45.7171 53.3016 45.5012 54.6922 45.1034C56.5693 49.2457 60.1536 52.6124 64.8751 54.1097C73.0111 56.6894 81.6739 52.8113 85.1978 45.3648C88.0797 46.8876 91.7446 47.8025 95.7349 47.8025C104.999 47.8025 112.511 42.8902 112.511 36.8301C112.511 35.1226 111.915 33.5061 110.849 32.0656L110.847 32.0685Z" fill="white"/>
<path d="M32.8639 30.9176C32.2219 30.9176 31.6346 30.4858 31.4647 29.8437C31.4359 29.7386 30.8055 27.2185 32.4666 25.0422C33.6787 23.4569 35.7141 22.5222 38.5269 22.2523C38.7658 21.0079 39.3877 19.1441 41.0172 17.6469C42.9547 15.8655 45.7272 15.1013 49.2568 15.3769C50.0485 15.4394 50.6416 16.1241 50.5783 16.9054C50.5149 17.6867 49.8182 18.2719 49.0294 18.2094C46.3519 17.9992 44.3251 18.5049 43.0037 19.7038C41.2907 21.2608 41.259 23.5734 41.259 23.5961C41.2561 24.3632 40.6343 24.9996 39.857 25.0195C37.3638 25.082 35.6105 25.6758 34.7842 26.7299C33.9493 27.7981 34.243 29.0965 34.2573 29.1505C34.456 29.909 33.9925 30.6761 33.2209 30.8722C33.1 30.9034 32.982 30.9176 32.8639 30.9176Z" fill="#EDE4DD"/>
<path d="M95.1964 29.2015C94.422 29.2015 93.7828 28.5935 93.7569 27.8236C93.7281 26.8633 93.5295 25.5876 92.7435 24.9711C91.972 24.3659 90.8837 24.5705 90.8722 24.5734C90.0977 24.7438 89.3348 24.2608 89.1621 23.4937C88.9893 22.7266 89.4845 21.9681 90.2618 21.7976C90.5037 21.7436 92.6744 21.3203 94.4939 22.7153C95.8442 23.7523 96.5668 25.4427 96.6359 27.7384C96.6589 28.5225 96.0342 29.1788 95.2396 29.2015C95.2252 29.2015 95.2108 29.2015 95.1964 29.2015Z" fill="#EDE4DD"/>
<path d="M42.6381 35.6172C42.6381 35.6172 36.0568 38.0691 28.9227 38.3844C21.7886 38.6998 15.6592 35.8899 15.6592 35.8899C15.6592 35.8899 15.3138 38.3532 16.3905 40.447H55.8987C55.8987 40.447 51.0073 40.1942 47.7829 39.1458C44.5584 38.0946 42.6381 35.62 42.6381 35.62V35.6172Z" fill="#E6E6E6"/>
<path d="M73.7365 35.5686C73.7365 35.5686 81.1499 40.4439 86.5796 40.4439H61.855C61.855 40.4439 72.1876 39.066 73.7365 35.5686Z" fill="#E6E6E6"/>
<path d="M112.436 35.8184C109.079 40.6255 90.3656 40.4465 90.3656 40.4465H111.578C112.894 38.1339 112.439 35.8184 112.439 35.8184H112.436Z" fill="#E6E6E6"/>
<path d="M26.9012 106.462L57.5566 110.753C60.116 111.111 62.0075 113.15 62.0075 115.554V117.145C62.0075 119.827 59.6668 122 56.7764 122H14.5734C11.4958 122 9.27036 119.27 10.1081 116.517C12.1781 109.716 19.3756 105.408 26.9012 106.462Z" fill="#808080"/>
<path d="M105.203 106.462L74.5481 110.753C71.9887 111.111 70.0972 113.15 70.0972 115.554V117.145C70.0972 119.827 72.4378 122 75.3283 122H117.531C120.609 122 122.834 119.27 121.996 116.517C119.926 109.716 112.729 105.408 105.203 106.462Z" fill="#808080"/>
<path d="M113.314 40.4469C114.782 40.4469 116.089 41.3646 116.576 42.7312C124.041 63.7098 135.819 113.477 65.2865 113.477C-5.24551 113.477 6.09766 60.3999 13.8767 42.5067C14.4208 41.2538 15.6703 40.4441 17.0522 40.4441H113.317L113.314 40.4469Z" fill="white"/>
<path opacity="0.5" d="M116.576 42.7312C116.089 41.3647 114.782 40.447 113.314 40.447H76.2298C76.2298 40.447 100.022 77.7819 65.2839 113.477C135.816 113.477 124.038 63.707 116.573 42.7312H116.576Z" fill="#E6E6E6"/>
<path d="M34.0411 59.1812C32.4519 59.1812 31.1621 57.9084 31.1621 56.3401C31.1621 54.2604 31.8761 49.3368 31.9567 48.7828C32.1841 47.2287 33.6438 46.1548 35.2186 46.3793C36.7934 46.6037 37.8816 48.0441 37.6542 49.5982C37.3692 51.5387 36.9172 55.0844 36.9172 56.343C36.9172 57.9113 35.6274 59.1841 34.0382 59.1841L34.0411 59.1812Z" fill="black"/>
<path d="M51.9915 59.1812C50.4023 59.1812 49.1125 57.9084 49.1125 56.3401C49.1125 54.2604 49.8265 49.3368 49.9071 48.7828C50.1346 47.2287 51.5971 46.1548 53.169 46.3793C54.7438 46.6037 55.8321 48.0441 55.6046 49.5982C55.3196 51.5387 54.8676 55.0844 54.8676 56.343C54.8676 57.9113 53.5778 59.1841 51.9886 59.1841L51.9915 59.1812Z" fill="black"/>
<path d="M59.7619 65.1332C59.402 65.1332 59.0392 64.9997 58.76 64.7327C58.1899 64.1872 58.1727 63.2951 58.7226 62.7297C59.0824 62.3604 67.7942 53.695 87.2417 56.6185C88.0277 56.7378 88.5689 57.4623 88.448 58.2379C88.3271 59.0136 87.5929 59.5477 86.807 59.4283C68.9343 56.7435 60.8703 64.6275 60.7897 64.7071C60.5075 64.9912 60.1333 65.1332 59.759 65.1332H59.7619Z" fill="#FF896F"/>
<path d="M28.9942 65.1363C28.617 65.1363 28.2428 64.9913 27.9606 64.7044C27.8656 64.6106 19.8016 56.7437 1.94331 59.4257C1.15447 59.5421 0.42321 59.0109 0.302293 58.2353C0.181376 57.4596 0.722624 56.7351 1.50858 56.6158C20.9589 53.6923 29.6679 62.3577 30.0277 62.727C30.5805 63.2924 30.5632 64.1902 29.9903 64.7357C29.711 64.9999 29.3512 65.1334 28.9913 65.1334L28.9942 65.1363Z" fill="#FF896F"/>
</svg>
