<svg width="150" height="362" viewBox="0 0 150 362" fill="none" xmlns="http://www.w3.org/2000/svg">
<path d="M150 84.1399C150 77.9799 143.628 72.8038 135.015 71.3518C138.753 68.9534 141.08 65.5949 141.08 61.8709C141.08 57.5422 137.936 53.702 133.081 51.2967C135.148 49.2161 136.358 46.7254 136.358 44.0468C136.358 37.5691 129.316 32.1846 120.03 31.0674C120.42 30.5652 120.761 30.0254 121.042 29.4412C123.976 23.3529 119.514 15.1225 111.079 11.0534C105.701 8.46021 100.009 8.1903 95.8241 9.90882C92.2675 4.48336 86.1382 0.899414 79.1685 0.899414C74.8295 0.899414 70.8151 2.29336 67.5454 4.65077C64.6995 3.08258 61.4298 2.18745 57.9518 2.18745C48.7545 2.18745 41.0194 8.42604 38.7338 16.9025C36.4994 16.7692 34.0531 16.9537 31.5386 17.5004C22.8879 19.3795 16.7279 24.822 17.7802 29.6564C18.1901 31.5423 19.6388 33.0559 21.7639 34.0911C18.1662 36.8687 15.9728 40.5449 15.9728 44.5798C15.9728 47.2447 16.9294 49.7525 18.6138 51.9493C10.5747 54.3409 4.93741 59.8927 4.93741 66.3637C4.93741 68.8577 5.77786 71.2151 7.26747 73.3095C2.57315 75.4243 -0.371913 78.7418 0.0380714 82.0831C0.485638 85.7252 4.7905 88.3764 10.5679 89.0631C9.41307 91.4923 8.76392 94.2084 8.76392 97.0783C8.76392 104.345 12.915 110.635 18.9725 113.724C18.2448 115.265 17.8451 116.908 17.8451 118.62C17.8451 127.274 27.9204 134.288 40.3532 134.288C46.93 134.288 52.8509 132.323 56.9644 129.19C57.6443 129.266 58.331 129.307 59.0314 129.307C60.8354 129.307 62.5744 129.047 64.2245 128.569C66.4521 133.55 70.7057 137.598 76.3088 139.399C85.964 142.501 96.2444 137.838 100.426 128.883C103.846 130.714 108.195 131.814 112.931 131.814C123.925 131.814 132.839 125.907 132.839 118.62C132.839 117.181 132.487 115.801 131.848 114.506C134.246 113.532 136.153 111.906 137.222 109.685C139.105 105.78 137.94 100.99 134.636 96.9861C143.44 95.6229 150 90.3922 150 84.1399Z" fill="white"/>
<path d="M51.86 120.789C51.86 120.789 44.0498 123.738 35.5836 124.117C27.1174 124.496 18.0157 120.789 18.0157 120.789C18.3642 122.877 19.3004 124.841 20.7114 126.597H67.5965C67.5965 126.597 61.7918 126.293 57.9653 125.032C54.1388 123.768 51.86 120.792 51.86 120.792V120.789Z" fill="#E6E6E6"/>
<path d="M87.5049 120.789C87.5049 120.789 97.5632 126.597 104.01 126.597H74.6689C74.6689 126.597 87.7406 124.786 87.5083 120.789H87.5049Z" fill="#E6E6E6"/>
<path d="M132.853 118.497C124.639 125.808 104.007 126.597 104.007 126.597H129.18C131.489 124.441 132.853 121.343 132.853 118.497Z" fill="#E6E6E6"/>
<path d="M36.5231 42.4958C35.7612 42.4958 35.0642 41.9765 34.8627 41.2044C34.8285 41.078 34.0803 38.0475 36.0516 35.4304C37.49 33.524 39.9055 32.4 43.2434 32.0754C43.527 30.579 44.2649 28.3377 46.1987 26.5372C48.498 24.395 51.7916 23.476 55.9769 23.8074C56.9164 23.8826 57.6202 24.7059 57.545 25.6455C57.4699 26.585 56.6431 27.2888 55.7069 27.2137C52.533 26.9643 50.1243 27.569 48.5561 29.0108C46.5233 30.883 46.4857 33.6641 46.4857 33.6914C46.4823 34.6139 45.7443 35.3792 44.8219 35.4031C41.8631 35.4783 39.7825 36.1923 38.8019 37.4599C37.8111 38.7445 38.1596 40.3058 38.1767 40.3708C38.4124 41.283 37.8624 42.2054 36.9467 42.4412C36.8032 42.4788 36.6632 42.4958 36.5231 42.4958Z" fill="#EDE4DD"/>
<path d="M25.5423 66.6303C24.7667 66.6303 24.0663 66.1007 23.8853 65.3115C23.8545 65.1748 23.1439 61.9531 25.1869 59.3052C26.5057 57.6004 28.5796 56.572 31.3743 56.244C31.6442 54.6622 32.3822 52.2296 34.3877 50.3778C36.4752 48.4543 39.3587 47.6378 42.9598 47.9555C43.8993 48.0375 44.5929 48.8677 44.5109 49.8073C44.4289 50.7468 43.5987 51.4438 42.6591 51.3584C40.066 51.1295 38.0741 51.6385 36.7246 52.8685C34.6678 54.7476 34.6371 57.8054 34.6371 57.8361C34.6371 58.7586 33.8991 59.5205 32.9801 59.5478C30.5099 59.6196 28.8085 60.2311 27.9134 61.3654C26.8474 62.7184 27.2164 64.536 27.2198 64.553C27.4145 65.4687 26.8337 66.3809 25.9181 66.5825C25.7917 66.6098 25.6687 66.6235 25.5457 66.6235L25.5423 66.6303Z" fill="#EDE4DD"/>
<path d="M123.833 81.3416C123.706 81.3416 123.576 81.328 123.447 81.2972C122.531 81.0854 121.96 80.1766 122.162 79.261C122.176 79.1995 122.521 77.4092 121.468 76.0733C120.577 74.9391 118.872 74.3275 116.402 74.2557C115.472 74.2284 114.734 73.4631 114.745 72.5338C114.745 72.5133 114.714 69.4521 112.657 67.573C111.308 66.343 109.312 65.834 106.723 66.0629C105.783 66.1449 104.953 65.4513 104.871 64.5118C104.789 63.5722 105.482 62.742 106.422 62.66C110.023 62.3423 112.907 63.1554 114.994 65.0823C117 66.9341 117.737 69.3667 118.007 70.9485C120.799 71.2765 122.876 72.3049 124.195 74.0098C126.241 76.6576 125.527 79.8794 125.496 80.016C125.315 80.8052 124.612 81.3416 123.833 81.3416Z" fill="#EDE4DD"/>
<path d="M121.39 58.9735H121.376C120.437 58.9667 119.678 58.2014 119.682 57.2584C119.682 57.1901 119.637 54.1562 117.594 52.2908C116.244 51.0608 114.249 50.5518 111.66 50.7807C110.72 50.8627 109.89 50.1691 109.808 49.2296C109.726 48.29 110.419 47.4598 111.359 47.3778C114.96 47.0601 117.843 47.8732 119.931 49.7967C123.098 52.7178 123.101 57.091 123.098 57.2755C123.091 58.2151 122.326 58.9701 121.39 58.9701V58.9735Z" fill="#EDE4DD"/>
<path d="M132.098 126.074C133.84 126.074 135.391 127.178 135.968 128.821C144.828 154.049 158.805 213.897 75.1029 213.897C-8.59885 213.897 4.86228 150.069 14.0938 128.551C14.7395 127.045 16.2223 126.071 17.8622 126.071H132.101L132.098 126.074Z" fill="white"/>
<path opacity="0.5" d="M135.965 128.822C135.387 127.178 133.836 126.075 132.094 126.075H88.0855C88.0855 126.075 116.32 170.971 75.0958 213.897C158.798 213.897 144.821 154.046 135.961 128.822H135.965Z" fill="#E6E6E6"/>
<path d="M39.1709 148.398C37.285 148.398 35.7544 146.868 35.7544 144.982C35.7544 142.481 36.6017 136.56 36.6974 135.894C36.9673 134.025 38.6994 132.73 40.5683 133.003C42.4371 133.273 43.7286 135.005 43.4587 136.874C43.1205 139.208 42.584 143.471 42.584 144.985C42.584 146.871 41.0534 148.402 39.1675 148.402L39.1709 148.398Z" fill="black"/>
<path d="M59.291 148.398C57.4051 148.398 55.8745 146.868 55.8745 144.982C55.8745 142.481 56.7218 136.56 56.8175 135.894C57.0874 134.025 58.8196 132.73 60.6884 133.003C62.5572 133.273 63.8487 135.005 63.5788 136.874C63.2406 139.208 62.7042 143.471 62.7042 144.985C62.7042 146.871 61.1736 148.402 59.2876 148.402L59.291 148.398Z" fill="black"/>
<path d="M49.6972 165.689C48.5629 165.689 47.3739 165.624 46.1235 165.477C40.9645 164.883 37.2268 163.065 35.0163 160.076C32.2626 156.355 32.9801 152.231 33.0108 152.061C33.1475 151.319 33.8581 150.827 34.6029 150.964C35.3443 151.101 35.8363 151.811 35.6996 152.553C35.6962 152.577 35.1803 155.733 37.2371 158.484C38.9863 160.821 42.0817 162.262 46.4378 162.765C57.4493 164.036 62.9158 158.617 63.4009 157.715C63.6708 157.028 64.443 156.676 65.1399 156.929C65.8506 157.185 66.2161 157.971 65.9565 158.682C65.3518 160.346 59.8922 165.689 49.6972 165.689ZM63.3941 157.729C63.3941 157.729 63.3907 157.742 63.3873 157.746C63.3873 157.739 63.3907 157.736 63.3941 157.729Z" fill="black"/>
<path d="M71.1155 161.955C68.4847 161.955 66.0112 160.773 64.3029 158.689C61.2554 154.975 62.8235 151.121 64.0774 149.604C64.5591 149.024 65.4201 148.942 66.0009 149.42C66.5817 149.898 66.6637 150.756 66.1888 151.337C65.9633 151.62 64.0979 154.124 66.4143 156.953C68.1499 159.068 70.3946 159.242 71.2795 159.215C72.6973 159.177 73.5788 158.662 73.8248 158.327C74.2724 157.719 75.1265 157.585 75.7346 158.033C76.3428 158.48 76.476 159.335 76.0285 159.943C75.1641 161.125 73.3704 161.894 71.3546 161.948C71.276 161.948 71.1941 161.948 71.1155 161.948V161.955Z" fill="black"/>
<path d="M78.2698 152.306C82.7059 152.306 86.3021 150.385 86.3021 148.015C86.3021 145.645 82.7059 143.724 78.2698 143.724C73.8337 143.724 70.2375 145.645 70.2375 148.015C70.2375 150.385 73.8337 152.306 78.2698 152.306Z" fill="#FF896F"/>
<path d="M22.8945 152.306C27.3306 152.306 30.9267 150.385 30.9267 148.015C30.9267 145.645 27.3306 143.724 22.8945 143.724C18.4584 143.724 14.8622 145.645 14.8622 148.015C14.8622 150.385 18.4584 152.306 22.8945 152.306Z" fill="#FF896F"/>
<path opacity="0.6" d="M14.319 189.079H136.573C136.908 188.501 137.229 187.921 137.533 187.333H13.3043C13.6289 187.921 13.9671 188.501 14.319 189.079Z" fill="#CCCCCC"/>
<path d="M135.596 189.079C137.444 189.079 139.091 190.234 139.703 191.959C149.105 218.427 163.936 281.219 75.1062 281.219C-13.7238 281.219 0.560748 214.252 10.356 191.679C11.0427 190.097 12.6143 189.075 14.3533 189.075H135.596V189.079Z" fill="#E6E6E6"/>
<path opacity="0.5" d="M98.8306 236.299C93.183 260.912 74.9319 277.106 68.0168 281.069C70.3059 281.168 72.6633 281.223 75.1062 281.223C163.94 281.223 149.108 218.43 139.703 191.962C139.091 190.237 137.444 189.082 135.596 189.082H91.8506C91.8506 189.082 104.478 211.683 98.8306 236.299Z" fill="#CCCCCC"/>
<path opacity="0.5" d="M139.819 224.245H12.9526C12.1975 224.245 11.5859 223.634 11.5859 222.879C11.5859 222.124 12.1975 221.512 12.9526 221.512H139.819C140.574 221.512 141.185 222.124 141.185 222.879C141.185 223.634 140.574 224.245 139.819 224.245Z" fill="#B3B3B3"/>
<path opacity="0.4" d="M140.171 255.476H10.7797C11.6714 256.89 12.6588 258.27 13.7384 259.61H137.332C138.377 258.27 139.32 256.89 140.171 255.476Z" fill="#B3B3B3"/>
<path d="M29.0135 343.315L65.3928 348.474C68.4301 348.905 70.6747 351.358 70.6747 354.248V356.161C70.6747 359.386 67.8971 362 64.4669 362H14.3839C10.7316 362 8.09064 358.717 9.08486 355.406C11.5413 347.227 20.0827 342.048 29.0135 343.315Z" fill="#808080"/>
<path d="M121.937 343.315L85.5573 348.474C82.52 348.905 80.2754 351.358 80.2754 354.248V356.161C80.2754 359.386 83.053 362 86.4832 362H136.566C140.218 362 142.859 358.717 141.865 355.406C139.409 347.227 130.867 342.048 121.937 343.315Z" fill="#808080"/>
<path d="M135.695 259.61C137.543 259.61 139.19 260.764 139.802 262.49C149.204 288.958 164.035 351.75 75.2053 351.75C-13.6247 351.75 0.659868 284.783 10.4551 262.21C11.1418 260.628 12.7134 259.606 14.4525 259.606H135.695V259.61Z" fill="#E6E6E6"/>
<path opacity="0.5" d="M98.9297 306.826C93.2822 331.439 75.031 347.633 68.116 351.597C70.405 351.696 72.7625 351.75 75.2053 351.75C164.039 351.75 149.207 288.958 139.802 262.49C139.19 260.765 137.543 259.61 135.695 259.61H91.9497C91.9497 259.61 104.577 282.21 98.9297 306.826Z" fill="#CCCCCC"/>
<path opacity="0.5" d="M139.921 294.776H13.055C12.2999 294.776 11.6884 294.165 11.6884 293.41C11.6884 292.655 12.2999 292.043 13.055 292.043H139.921C140.676 292.043 141.288 292.655 141.288 293.41C141.288 294.165 140.676 294.776 139.921 294.776Z" fill="#B3B3B3"/>
</svg>
