<svg width="81" height="81" viewBox="0 0 81 81" fill="none" xmlns="http://www.w3.org/2000/svg">
<path d="M12.011 23.2853C11.6829 22.6129 11.5035 21.8975 11.5035 21.1533C11.5035 18.5749 13.6319 16.3263 16.786 15.1339C17.2361 12.6433 19.3071 10.0918 22.3948 8.60348C25.2171 7.24253 28.2044 7.10088 30.401 8.0028C32.2676 5.15537 35.4844 3.27441 39.1423 3.27441C42.291 3.27441 45.1115 4.66944 47.0265 6.87136C48.0504 6.53605 49.1424 6.35315 50.2774 6.35315C54.2222 6.35315 57.6542 8.53893 59.4329 11.7647C60.8387 11.5639 62.4615 11.6213 64.1416 11.9853C68.6817 12.9715 71.9147 15.8279 71.3624 18.3651C71.1042 19.5575 70.0552 20.4666 68.5454 20.9938C70.2794 22.4247 71.3265 24.2733 71.3265 26.2906C71.3265 30.8325 66.0387 34.5137 59.5136 34.5137C56.0619 34.5137 52.9545 33.4827 50.7956 31.8384C50.4388 31.8778 50.0784 31.8994 49.7108 31.8994C48.764 31.8994 47.8514 31.7631 46.9853 31.5121C45.8162 34.1264 43.5838 36.2512 40.6431 37.1962C35.5758 38.8243 30.1804 36.3767 27.9857 31.677C26.1908 32.6381 23.9082 33.2155 21.4229 33.2155C15.6528 33.2155 10.9746 30.1152 10.9746 26.2906C10.9746 25.2129 11.3458 24.1926 12.0092 23.2835L12.011 23.2853Z" fill="white"/>
<path d="M60.5808 22.5591C60.9806 22.5591 61.3464 22.2866 61.4522 21.8813C61.4701 21.815 61.8628 20.2245 60.8282 18.851C60.0733 17.8505 58.8056 17.2605 57.0538 17.0902C56.9049 16.3048 56.5176 15.1286 55.5027 14.1836C54.296 13.0593 52.5692 12.577 50.3709 12.7509C49.8778 12.7904 49.5084 13.2225 49.5479 13.7156C49.5873 14.2087 50.0212 14.5763 50.5125 14.5386C52.1801 14.4077 53.4425 14.7251 54.2655 15.4818C55.3324 16.4644 55.3521 17.924 55.3521 17.9383C55.3539 18.4225 55.7412 18.8241 56.2253 18.8367C57.7782 18.8761 58.8702 19.2509 59.3848 19.9161C59.9048 20.5903 59.7219 21.4098 59.7129 21.4438C59.5892 21.9226 59.8779 22.4067 60.3584 22.5304C60.4337 22.5502 60.5073 22.5591 60.5808 22.5591Z" fill="#EDE4DD"/>
<path d="M21.7586 21.476C22.2409 21.476 22.639 21.0923 22.6551 20.6064C22.6731 20.0003 22.7968 19.1952 23.2863 18.8061C23.7669 18.4242 24.4446 18.5533 24.4518 18.5551C24.9342 18.6626 25.4093 18.3578 25.5169 17.8737C25.6245 17.3896 25.3161 16.9108 24.832 16.8032C24.6813 16.7691 23.3293 16.5002 22.1961 17.3824C21.3551 18.0369 20.9051 19.1037 20.862 20.5526C20.8477 21.0475 21.2368 21.4617 21.7317 21.476C21.7407 21.476 21.7496 21.476 21.7586 21.476Z" fill="#EDE4DD"/>
<path d="M54.4931 25.5249C54.4931 25.5249 58.5922 27.0723 63.0354 27.2714C67.4787 27.4704 71.2962 25.697 71.2962 25.697C71.2962 25.697 71.5114 27.2517 70.8408 28.5732H46.2342C46.2342 28.5732 49.2806 28.4136 51.2889 27.7519C53.2971 27.0885 54.4931 25.5267 54.4931 25.5267V25.5249Z" fill="#E6E6E6"/>
<path d="M35.1241 25.4944C35.1241 25.4944 30.5069 28.5713 27.1251 28.5713H42.5242C42.5242 28.5713 36.0888 27.7017 35.1241 25.4944Z" fill="#E6E6E6"/>
<path d="M11.0212 25.6521C13.112 28.686 24.7671 28.573 24.7671 28.573H11.5556C10.7361 27.1135 11.0194 25.6521 11.0194 25.6521H11.0212Z" fill="#E6E6E6"/>
<path d="M64.2942 70.2376L45.2013 72.9452C43.6073 73.1711 42.4292 74.4585 42.4292 75.9755V76.9796C42.4292 78.6723 43.887 80.044 45.6872 80.044H71.9722C73.889 80.044 75.2751 78.3208 74.7533 76.5833C73.4641 72.2907 68.9813 69.5723 64.2942 70.2376Z" fill="#808080"/>
<path d="M15.5254 70.2376L34.6183 72.9452C36.2123 73.1711 37.3904 74.4585 37.3904 75.9755V76.9796C37.3904 78.6723 35.9326 80.044 34.1323 80.044H7.84737C5.93055 80.044 4.54448 78.3208 5.06628 76.5833C6.35551 72.2907 10.8382 69.5723 15.5254 70.2376Z" fill="#808080"/>
<path d="M10.4743 28.5732C9.55988 28.5732 8.7458 29.1524 8.44277 30.0149C3.79328 43.2551 -3.54227 74.6647 40.3867 74.6647C84.3157 74.6647 77.2527 41.1661 72.4078 29.875C72.0689 29.0843 71.2907 28.5732 70.43 28.5732H10.4743Z" fill="white"/>
<path opacity="0.5" d="M8.44267 30.0149C8.7457 29.1524 9.55976 28.5732 10.4742 28.5732H33.5711C33.5711 28.5732 18.753 52.1363 40.3884 74.6647C-3.54058 74.6647 3.79497 43.2533 8.44446 30.0149H8.44267Z" fill="#E6E6E6"/>
<path d="M59.2445 40.289C60.2343 40.289 61.0376 39.4857 61.0376 38.4959C61.0376 37.1833 60.5929 34.0759 60.5427 33.7262C60.401 32.7454 59.492 32.0658 58.5111 32.2093C57.5303 32.351 56.8525 33.26 56.9942 34.2409C57.1717 35.4655 57.4532 37.7033 57.4532 38.4977C57.4532 39.4875 58.2565 40.2908 59.2463 40.2908L59.2445 40.289Z" fill="black"/>
<path d="M48.6847 40.289C49.6745 40.289 50.4778 39.4857 50.4778 38.4959C50.4778 37.1833 50.0331 34.0759 49.9829 33.7262C49.8412 32.7454 48.9321 32.0658 47.9513 32.2093C46.9705 32.351 46.2927 33.26 46.4344 34.2409C46.6119 35.4655 46.8934 37.7033 46.8934 38.4977C46.8934 39.4875 47.6967 40.2908 48.6865 40.2908L48.6847 40.289Z" fill="black"/>
<path d="M53.7199 49.362C54.3152 49.362 54.9392 49.328 55.5955 49.2508C58.303 48.9371 60.2647 47.9849 61.4248 46.416C62.8701 44.4651 62.4935 42.3008 62.4774 42.2094C62.4056 41.8203 62.0327 41.5621 61.6418 41.6338C61.2527 41.7055 60.9945 42.0785 61.0662 42.4676C61.068 42.4801 61.3388 44.137 60.2593 45.5804C59.3412 46.8069 57.7167 47.5635 55.4305 47.8271C49.6532 48.4942 46.7806 45.6503 46.5278 45.1769C46.3861 44.8165 45.9809 44.6318 45.6151 44.7645C45.2422 44.899 45.0503 45.3114 45.1866 45.6844C45.5039 46.5576 48.3693 49.362 53.7199 49.362ZM46.5314 45.1859C46.5314 45.1859 46.5332 45.1931 46.535 45.1949C46.535 45.1913 46.5332 45.1895 46.5314 45.1859Z" fill="black"/>
<path d="M42.4788 47.4041C43.8595 47.4041 45.1577 46.7836 46.0542 45.6899C47.6537 43.7408 46.8306 41.7181 46.1726 40.922C45.9197 40.6172 45.4679 40.5742 45.1631 40.8252C44.8582 41.0762 44.8152 41.5263 45.0644 41.8311C45.1828 41.9799 46.1618 43.2943 44.9461 44.779C44.037 45.8889 42.8571 45.9785 42.3945 45.966C41.6504 45.9463 41.1878 45.6755 41.0587 45.4998C40.8238 45.1806 40.3755 45.1107 40.0563 45.3456C39.7372 45.5805 39.6672 46.0287 39.9021 46.3479C40.3576 46.9683 41.2971 47.3718 42.3569 47.4005C42.3981 47.4005 42.4411 47.4005 42.4824 47.4005L42.4788 47.4041Z" fill="black"/>
<path d="M38.7244 42.3387C36.3962 42.3387 34.5088 41.3304 34.5088 40.0866C34.5088 38.8428 36.3962 37.8345 38.7244 37.8345C41.0526 37.8345 42.9399 38.8428 42.9399 40.0866C42.9399 41.3304 41.0526 42.3387 38.7244 42.3387Z" fill="#FF896F"/>
<path d="M67.7868 42.3387C65.4586 42.3387 63.5712 41.3304 63.5712 40.0866C63.5712 38.8428 65.4586 37.8345 67.7868 37.8345C70.1149 37.8345 72.0023 38.8428 72.0023 40.0866C72.0023 41.3304 70.1149 42.3387 67.7868 42.3387Z" fill="#FF896F"/>
</svg>
