<svg width="150" height="163" viewBox="0 0 150 163" fill="none" xmlns="http://www.w3.org/2000/svg">
<path d="M134.979 42.3675C135.671 40.9497 136.049 39.4413 136.049 37.8723C136.049 32.4358 131.561 27.6949 124.911 25.1808C123.962 19.9295 119.595 14.5497 113.085 11.4118C107.134 8.54228 100.836 8.24362 96.2046 10.1453C92.269 4.14165 85.4866 0.175781 77.7741 0.175781C71.1354 0.175781 65.1885 3.1171 61.1508 7.7597C58.992 7.05272 56.6896 6.6671 54.2965 6.6671C45.9791 6.6671 38.743 11.2757 34.9927 18.077C32.0287 17.6536 28.6072 17.7745 25.0648 18.542C15.4922 20.6213 8.67579 26.6439 9.84022 31.9935C10.3846 34.5076 12.5963 36.4243 15.7796 37.5358C12.1237 40.5528 9.91583 44.4506 9.91583 48.7038C9.91583 58.2801 21.0649 66.0417 34.8225 66.0417C42.1002 66.0417 48.652 63.8678 53.2039 60.401C53.9562 60.4842 54.7161 60.5295 55.4912 60.5295C57.4873 60.5295 59.4117 60.2422 61.2377 59.7129C63.7027 65.2251 68.4095 69.7051 74.6098 71.6975C85.2938 75.1303 96.6697 69.9697 101.297 60.0608C105.082 62.0872 109.894 63.3045 115.134 63.3045C127.3 63.3045 137.164 56.7678 137.164 48.7038C137.164 46.4316 136.381 44.2805 134.982 42.3637L134.979 42.3675Z" fill="white"/>
<path d="M32.5731 40.8364C31.73 40.8364 30.9588 40.2618 30.7357 39.4074C30.6979 39.2675 29.8699 35.9141 32.0514 33.0181C33.643 30.9085 36.3159 29.6647 40.0096 29.3056C40.3234 27.6496 41.14 25.1696 43.2798 23.1772C45.8242 20.8067 49.4649 19.7897 54.0999 20.1565C55.1396 20.2396 55.9184 21.1508 55.8352 22.1904C55.7521 23.2301 54.8371 24.0051 53.8013 23.9257C50.2853 23.6498 47.6237 24.3189 45.8884 25.9143C43.639 27.9861 43.5974 31.0635 43.5974 31.0938C43.5936 32.1146 42.777 32.9614 41.7562 32.9879C38.4822 33.0711 36.1798 33.8612 35.0948 35.2638C33.9984 36.6853 34.384 38.4131 34.4029 38.4849C34.6638 39.4943 34.0551 40.5151 33.0419 40.7759C32.8831 40.8175 32.7281 40.8364 32.5731 40.8364Z" fill="#EDE4DD"/>
<path d="M114.427 38.5529C113.41 38.5529 112.571 37.7438 112.537 36.7193C112.499 35.4415 112.238 33.744 111.206 32.9236C110.193 32.1183 108.764 32.3905 108.749 32.3943C107.732 32.6211 106.73 31.9784 106.503 30.9576C106.276 29.9369 106.926 28.9274 107.947 28.7006C108.265 28.6288 111.115 28.0617 113.505 29.9218C115.278 31.3017 116.227 33.5511 116.318 36.6059C116.348 37.6493 115.527 38.5227 114.484 38.5529C114.465 38.5529 114.446 38.5529 114.427 38.5529Z" fill="#EDE4DD"/>
<path d="M45.4081 47.0894C45.4081 47.0894 36.7656 50.352 27.3973 50.7717C18.0289 51.1913 9.97996 47.4523 9.97996 47.4523C9.97996 47.4523 9.52629 50.7301 10.9402 53.5164H62.8217C62.8217 53.5164 56.3984 53.1799 52.1641 51.7849C47.9298 50.3861 45.4081 47.0931 45.4081 47.0931V47.0894Z" fill="#E6E6E6"/>
<path d="M86.2464 47.0251C86.2464 47.0251 95.9815 53.5127 103.112 53.5127H70.6438C70.6438 53.5127 84.2124 51.6791 86.2464 47.0251Z" fill="#E6E6E6"/>
<path d="M137.066 47.3577C132.657 53.7545 108.083 53.5163 108.083 53.5163H135.939C137.667 50.4389 137.069 47.3577 137.069 47.3577H137.066Z" fill="#E6E6E6"/>
<path d="M24.7433 141.363L64.9993 147.071C68.3603 147.548 70.8442 150.262 70.8442 153.461V155.578C70.8442 159.147 67.7705 162.039 63.9748 162.039H8.55472C4.51324 162.039 1.59082 158.406 2.69098 154.742C5.40924 145.692 14.8608 139.96 24.7433 141.363Z" fill="#808080"/>
<path d="M127.568 141.363L87.3124 147.071C83.9514 147.548 81.4675 150.262 81.4675 153.461V155.578C81.4675 159.147 84.5412 162.039 88.3369 162.039H143.757C147.798 162.039 150.721 158.406 149.621 154.742C146.902 145.692 137.451 139.96 127.568 141.363Z" fill="#808080"/>
<path d="M138.218 53.5164C140.147 53.5164 141.863 54.7375 142.502 56.556C152.305 84.4721 167.772 150.697 75.1502 150.697C-17.4712 150.697 -2.57931 80.0676 7.63592 56.2611C8.35046 54.5938 9.99124 53.5164 11.8059 53.5164H138.218Z" fill="white"/>
<path opacity="0.5" d="M142.502 56.556C141.863 54.7375 140.147 53.5164 138.219 53.5164H89.5204C89.5204 53.5164 120.763 103.197 75.1465 150.697C167.768 150.697 152.301 84.4683 142.498 56.556H142.502Z" fill="#E6E6E6"/>
<path d="M35.3895 78.2191C33.3026 78.2191 31.6089 76.5254 31.6089 74.4385C31.6089 71.671 32.5465 65.1192 32.6523 64.382C32.951 62.314 34.8678 60.8812 36.9358 61.1836C39.0038 61.4823 40.4328 63.399 40.1342 65.467C39.7599 68.0492 39.1663 72.7674 39.1663 74.4422C39.1663 76.5291 37.4726 78.2229 35.3857 78.2229L35.3895 78.2191Z" fill="black"/>
<path d="M57.6537 78.2191C55.5668 78.2191 53.873 76.5254 53.873 74.4385C53.873 71.671 54.8106 65.1192 54.9165 64.382C55.2152 62.314 57.1319 60.8812 59.1999 61.1836C61.2679 61.4823 62.697 63.399 62.3983 65.467C62.0241 68.0492 61.4305 72.7674 61.4305 74.4422C61.4305 76.5291 59.7368 78.2229 57.6499 78.2229L57.6537 78.2191Z" fill="black"/>
<path d="M47.0378 97.3487C45.7827 97.3487 44.467 97.2769 43.0833 97.1143C37.3746 96.4527 33.2386 94.4452 30.7925 91.1372C27.7453 87.0239 28.5393 82.4607 28.5733 82.2678C28.7245 81.4474 29.5109 80.9031 30.3351 81.0543C31.1555 81.2055 31.6999 81.9919 31.5486 82.8123C31.5449 82.8387 30.974 86.332 33.2499 89.3754C35.1856 91.9614 38.6108 93.5568 43.4311 94.1125C55.6123 95.5189 61.6688 89.5229 62.2019 88.5248C62.5006 87.7649 63.355 87.3755 64.1262 87.6552C64.9126 87.9388 65.3171 88.8083 65.0298 89.5947C64.3606 91.4358 58.3192 97.3487 47.0378 97.3487ZM62.1943 88.5437C62.1943 88.5437 62.1905 88.5588 62.1868 88.5626C62.1868 88.555 62.1905 88.5512 62.1943 88.5437Z" fill="black"/>
<path d="M70.7384 93.2203C67.8274 93.2203 65.0902 91.9122 63.1999 89.6061C59.8276 85.4965 61.5629 81.232 62.9504 79.5534C63.4834 78.9107 64.4362 78.82 65.0789 79.3492C65.7216 79.8785 65.8123 80.8275 65.2868 81.4702C65.0373 81.784 62.9731 84.5552 65.5363 87.6855C67.4531 90.0257 69.9407 90.2147 70.9161 90.1883C72.4851 90.1467 73.4605 89.5758 73.7327 89.2053C74.228 88.5324 75.1731 88.3849 75.8461 88.8802C76.519 89.3755 76.6665 90.3206 76.1712 90.9935C75.2109 92.3016 73.2299 93.1523 70.9955 93.2128C70.9086 93.2128 70.8178 93.2128 70.7309 93.2128L70.7384 93.2203Z" fill="black"/>
<path d="M78.6548 82.5401C83.5637 82.5401 87.5431 80.4142 87.5431 77.7917C87.5431 75.1692 83.5637 73.0432 78.6548 73.0432C73.746 73.0432 69.7666 75.1692 69.7666 77.7917C69.7666 80.4142 73.746 82.5401 78.6548 82.5401Z" fill="#FF896F"/>
<path d="M17.3787 82.5401C22.2875 82.5401 26.2669 80.4142 26.2669 77.7917C26.2669 75.1692 22.2875 73.0432 17.3787 73.0432C12.4699 73.0432 8.49048 75.1692 8.49048 77.7917C8.49048 80.4142 12.4699 82.5401 17.3787 82.5401Z" fill="#FF896F"/>
</svg>
