<svg width="134" height="63" viewBox="0 0 134 63" fill="none" xmlns="http://www.w3.org/2000/svg">
<g filter="url(#filter0_d_3260_8074)">
<path d="M55.7942 4.95801C56.4773 4.95801 57.0855 5.39068 57.3119 6.03499C60.7853 15.9261 66.2653 39.3906 33.4481 39.3906C0.631001 39.3906 5.90875 14.3655 9.52816 5.93051C9.78133 5.33977 10.3627 4.95801 11.0057 4.95801H55.7955H55.7942Z" fill="#E6E6E6"/>
<path d="M19.9196 14.0347C19.1802 14.0347 18.5801 13.4346 18.5801 12.6952V10.86C18.5801 10.1206 19.1802 9.52051 19.9196 9.52051C20.659 9.52051 21.2591 10.1206 21.2591 10.86V12.6952C21.2591 13.4346 20.659 14.0347 19.9196 14.0347Z" fill="black"/>
<path d="M28.1647 14.0347C27.4253 14.0347 26.8252 13.4346 26.8252 12.6952V10.86C26.8252 10.1206 27.4253 9.52051 28.1647 9.52051C28.9041 9.52051 29.5043 10.1206 29.5043 10.86V12.6952C29.5043 13.4346 28.9041 14.0347 28.1647 14.0347Z" fill="black"/>
<path fill-rule="evenodd" clip-rule="evenodd" d="M31.1365 15.9273C31.5087 16.1693 31.6142 16.6671 31.3723 17.0392L30.6985 16.6012C31.3723 17.0392 31.372 17.0397 31.3717 17.0401L31.3711 17.0411L31.3697 17.0432L31.3665 17.048C31.3642 17.0516 31.3614 17.0557 31.3582 17.0604C31.3518 17.0698 31.3437 17.0815 31.3338 17.0953C31.3141 17.123 31.2874 17.1592 31.2532 17.2028C31.1848 17.2899 31.0866 17.4065 30.9555 17.5425C30.6933 17.8144 30.2994 18.1639 29.7502 18.5088C28.645 19.2029 26.9419 19.8589 24.479 19.8589C22.0166 19.8589 20.2698 19.2034 19.1227 18.5182C18.552 18.1773 18.1355 17.8326 17.8562 17.5656C17.7165 17.4321 17.611 17.3178 17.5375 17.233C17.5007 17.1905 17.4719 17.1554 17.4508 17.1288C17.4402 17.1155 17.4316 17.1044 17.4248 17.0955C17.4214 17.0911 17.4185 17.0872 17.4161 17.0839L17.4127 17.0795L17.4113 17.0776L17.4107 17.0767C17.4104 17.0763 17.4101 17.0759 18.0587 16.6012L17.4101 17.0759C17.1479 16.7177 17.2258 16.2148 17.5839 15.9526C17.9405 15.6917 18.4404 15.7676 18.7036 16.1215C18.7044 16.1226 18.7062 16.125 18.7091 16.1287C18.7166 16.138 18.7309 16.1556 18.7523 16.1803C18.795 16.2296 18.866 16.3071 18.967 16.4037C19.1689 16.5967 19.4905 16.8656 19.947 17.1382C20.854 17.68 22.3173 18.2515 24.479 18.2515C26.6402 18.2515 28.0468 17.6805 28.8953 17.1476C29.323 16.879 29.6169 16.6149 29.7983 16.4268C29.8891 16.3326 29.9517 16.2575 29.9886 16.2105C30.007 16.1869 30.0191 16.1705 30.025 16.1622C30.0268 16.1596 30.0281 16.1578 30.0287 16.1569C30.2722 15.7898 30.7665 15.6868 31.1365 15.9273Z" fill="black"/>
<path fill-rule="evenodd" clip-rule="evenodd" d="M52.912 7.62016C53.5694 7.28088 54.3774 7.53878 54.7167 8.19619L53.5263 8.81051C54.7167 8.19619 54.7169 8.19656 54.7171 8.19694L54.7185 8.19979L54.7212 8.20504C54.7233 8.20908 54.7259 8.21422 54.729 8.22044C54.7353 8.23288 54.7437 8.24965 54.754 8.27067C54.7747 8.31269 54.8032 8.37171 54.8384 8.447C54.9087 8.59755 55.0056 8.8134 55.1194 9.08879C55.3469 9.63917 55.6429 10.4297 55.9289 11.4141C56.4996 13.379 57.0374 16.141 56.8939 19.3193C56.8605 20.0583 56.2343 20.6304 55.4953 20.597C54.7562 20.5636 54.1842 19.9375 54.2176 19.1984C54.3446 16.385 53.8678 13.9229 53.3561 12.1614C53.1009 11.2827 52.8388 10.5846 52.6435 10.1122C52.546 9.87613 52.4653 9.69699 52.4109 9.58042C52.3837 9.52215 52.363 9.47957 52.3502 9.45338C52.3437 9.44029 52.3392 9.43131 52.3368 9.42652L52.3348 9.42262C51.9973 8.7656 52.2553 7.95905 52.912 7.62016Z" fill="white"/>
<path fill-rule="evenodd" clip-rule="evenodd" d="M31.516 13.6834C31.7641 13.9578 31.7428 14.3813 31.4685 14.6294C31.3413 14.7444 31.1847 15.0305 31.1526 15.3959C31.1221 15.7441 31.2136 16.0566 31.4295 16.2721C32.024 16.8656 32.9447 16.9823 33.5404 16.5563C33.8413 16.3411 34.2596 16.4106 34.4748 16.7115C34.69 17.0123 34.6205 17.4307 34.3196 17.6459C33.0909 18.5245 31.4478 18.1831 30.4831 17.2201C29.9193 16.6573 29.7623 15.9162 29.8182 15.2789C29.8726 14.6587 30.1372 14.0273 30.57 13.6359C30.8444 13.3878 31.2679 13.4091 31.516 13.6834Z" fill="black"/>
</g>
<g filter="url(#filter1_d_3260_8074)">
<path d="M89.5295 4.95801C90.2127 4.95801 90.8208 5.39068 91.0472 6.03499C94.5206 15.9261 100.001 39.3906 67.1835 39.3906C34.3664 39.3906 39.6441 14.3655 43.2635 5.93051C43.5167 5.33977 44.098 4.95801 44.741 4.95801H89.5309H89.5295Z" fill="#E6E6E6"/>
<path d="M53.655 14.0347C52.9155 14.0347 52.3154 13.4346 52.3154 12.6952V10.86C52.3154 10.1206 52.9155 9.52051 53.655 9.52051C54.3944 9.52051 54.9945 10.1206 54.9945 10.86V12.6952C54.9945 13.4346 54.3944 14.0347 53.655 14.0347Z" fill="black"/>
<path d="M61.9011 14.0347C61.1616 14.0347 60.5615 13.4346 60.5615 12.6952V10.86C60.5615 10.1206 61.1616 9.52051 61.9011 9.52051C62.6405 9.52051 63.2406 10.1206 63.2406 10.86V12.6952C63.2406 13.4346 62.6405 14.0347 61.9011 14.0347Z" fill="black"/>
<path fill-rule="evenodd" clip-rule="evenodd" d="M64.8719 15.9273C65.244 16.1693 65.3496 16.6671 65.1076 17.0392L64.4338 16.6012C65.1076 17.0392 65.1074 17.0397 65.1071 17.0401L65.1064 17.0411L65.1051 17.0432L65.1019 17.048C65.0995 17.0516 65.0967 17.0557 65.0936 17.0604C65.0872 17.0698 65.0791 17.0815 65.0692 17.0953C65.0495 17.123 65.0227 17.1592 64.9885 17.2028C64.9201 17.2899 64.8219 17.4065 64.6909 17.5425C64.4286 17.8144 64.0347 18.1639 63.4856 18.5088C62.3804 19.2029 60.6773 19.8589 58.2144 19.8589C55.752 19.8589 54.0051 19.2034 52.858 18.5182C52.2874 18.1773 51.8709 17.8326 51.5915 17.5656C51.4519 17.4321 51.3464 17.3178 51.2728 17.233C51.2361 17.1905 51.2072 17.1554 51.1861 17.1288C51.1756 17.1155 51.1669 17.1044 51.1601 17.0955C51.1568 17.0911 51.1539 17.0872 51.1514 17.0839L51.1481 17.0795L51.1467 17.0776L51.1461 17.0767C51.1458 17.0763 51.1455 17.0759 51.794 16.6012L51.1455 17.0759C50.8833 16.7177 50.9611 16.2148 51.3193 15.9526C51.6758 15.6917 52.1757 15.7676 52.4389 16.1215C52.4397 16.1226 52.4416 16.125 52.4445 16.1287C52.4519 16.138 52.4662 16.1556 52.4876 16.1803C52.5304 16.2296 52.6013 16.3071 52.7023 16.4037C52.9043 16.5967 53.2259 16.8656 53.6823 17.1382C54.5894 17.68 56.0527 18.2515 58.2144 18.2515C60.3755 18.2515 61.7822 17.6805 62.6307 17.1476C63.0583 16.879 63.3523 16.6149 63.5337 16.4268C63.6244 16.3326 63.687 16.2575 63.7239 16.2105C63.7424 16.1869 63.7544 16.1705 63.7603 16.1622C63.7622 16.1596 63.7634 16.1578 63.7641 16.1569C64.0075 15.7898 64.5018 15.6868 64.8719 15.9273Z" fill="black"/>
<path fill-rule="evenodd" clip-rule="evenodd" d="M86.6474 7.62016C87.3048 7.28088 88.1128 7.53878 88.452 8.19619L87.2617 8.81051C88.452 8.19619 88.4522 8.19656 88.4524 8.19694L88.4539 8.19979L88.4566 8.20504C88.4586 8.20908 88.4612 8.21422 88.4644 8.22044C88.4707 8.23288 88.479 8.24965 88.4894 8.27067C88.5101 8.31269 88.5386 8.37171 88.5737 8.447C88.644 8.59755 88.7409 8.8134 88.8548 9.08879C89.0823 9.63917 89.3783 10.4297 89.6642 11.4141C90.2349 13.379 90.7728 16.141 90.6292 19.3193C90.5959 20.0583 89.9697 20.6304 89.2306 20.597C88.4916 20.5636 87.9195 19.9375 87.9529 19.1984C88.08 16.385 87.6031 13.9229 87.0915 12.1614C86.8362 11.2827 86.5742 10.5846 86.3789 10.1122C86.2813 9.87613 86.2007 9.69699 86.1462 9.58042C86.119 9.52215 86.0984 9.47957 86.0855 9.45338C86.0791 9.44029 86.0746 9.43131 86.0722 9.42652L86.0702 9.42262C85.7326 8.7656 85.9907 7.95905 86.6474 7.62016Z" fill="white"/>
<path fill-rule="evenodd" clip-rule="evenodd" d="M65.2513 13.6834C65.4994 13.9578 65.4782 14.3813 65.2038 14.6294C65.0767 14.7444 64.92 15.0305 64.888 15.3959C64.8575 15.7441 64.949 16.0566 65.1648 16.2721C65.7593 16.8656 66.68 16.9823 67.2758 16.5563C67.5767 16.3411 67.995 16.4106 68.2102 16.7115C68.4253 17.0123 68.3558 17.4307 68.055 17.6459C66.8263 18.5245 65.1831 18.1831 64.2184 17.2201C63.6547 16.6573 63.4977 15.9162 63.5536 15.2789C63.6079 14.6587 63.8726 14.0273 64.3053 13.6359C64.5797 13.3878 65.0032 13.4091 65.2513 13.6834Z" fill="black"/>
</g>
<g filter="url(#filter2_d_3260_8074)">
<path d="M123.265 4.95801C123.948 4.95801 124.556 5.39068 124.783 6.03499C128.256 15.9261 133.736 39.3906 100.919 39.3906C68.1017 39.3906 73.3795 14.3655 76.9989 5.93051C77.252 5.33977 77.8334 4.95801 78.4764 4.95801H123.266H123.265Z" fill="#E6E6E6"/>
<path d="M87.3903 14.0347C86.6509 14.0347 86.0508 13.4346 86.0508 12.6952V10.86C86.0508 10.1206 86.6509 9.52051 87.3903 9.52051C88.1297 9.52051 88.7298 10.1206 88.7298 10.86V12.6952C88.7298 13.4346 88.1297 14.0347 87.3903 14.0347Z" fill="black"/>
<path d="M95.6354 14.0347C94.896 14.0347 94.2959 13.4346 94.2959 12.6952V10.86C94.2959 10.1206 94.896 9.52051 95.6354 9.52051C96.3748 9.52051 96.975 10.1206 96.975 10.86V12.6952C96.975 13.4346 96.3748 14.0347 95.6354 14.0347Z" fill="black"/>
<path fill-rule="evenodd" clip-rule="evenodd" d="M98.6063 15.9273C98.9784 16.1693 99.084 16.6671 98.842 17.0392L98.1682 16.6012C98.842 17.0392 98.8417 17.0397 98.8414 17.0401L98.8408 17.0411L98.8394 17.0432L98.8362 17.048C98.8339 17.0516 98.8311 17.0557 98.8279 17.0604C98.8215 17.0698 98.8134 17.0815 98.8036 17.0953C98.7839 17.123 98.7571 17.1592 98.7229 17.2028C98.6545 17.2899 98.5563 17.4065 98.4252 17.5425C98.163 17.8144 97.7691 18.1639 97.2199 18.5088C96.1147 19.2029 94.4117 19.8589 91.9487 19.8589C89.4864 19.8589 87.7395 19.2034 86.5924 18.5182C86.0217 18.1773 85.6053 17.8326 85.3259 17.5656C85.1863 17.4321 85.0807 17.3178 85.0072 17.233C84.9704 17.1905 84.9416 17.1554 84.9205 17.1288C84.9099 17.1155 84.9013 17.1044 84.8945 17.0955C84.8911 17.0911 84.8882 17.0872 84.8858 17.0839L84.8825 17.0795L84.8811 17.0776L84.8804 17.0767C84.8801 17.0763 84.8798 17.0759 85.5284 16.6012L84.8798 17.0759C84.6177 16.7177 84.6955 16.2148 85.0537 15.9526C85.4102 15.6917 85.9101 15.7676 86.1733 16.1215C86.1741 16.1226 86.176 16.125 86.1789 16.1287C86.1863 16.138 86.2006 16.1556 86.222 16.1803C86.2647 16.2296 86.3357 16.3071 86.4367 16.4037C86.6387 16.5967 86.9603 16.8656 87.4167 17.1382C88.3237 17.68 89.7871 18.2515 91.9487 18.2515C94.1099 18.2515 95.5165 17.6805 96.365 17.1476C96.7927 16.879 97.0867 16.6149 97.2681 16.4268C97.3588 16.3326 97.4214 16.2575 97.4583 16.2105C97.4768 16.1869 97.4888 16.1705 97.4947 16.1622C97.4965 16.1596 97.4978 16.1578 97.4985 16.1569C97.7419 15.7898 98.2362 15.6868 98.6063 15.9273Z" fill="black"/>
<path fill-rule="evenodd" clip-rule="evenodd" d="M120.382 7.62016C121.039 7.28088 121.847 7.53878 122.186 8.19619L120.996 8.81051C122.186 8.19619 122.187 8.19656 122.187 8.19694L122.188 8.19979L122.191 8.20504C122.193 8.20908 122.196 8.21422 122.199 8.22044C122.205 8.23288 122.213 8.24965 122.224 8.27067C122.244 8.31269 122.273 8.37171 122.308 8.447C122.378 8.59755 122.475 8.8134 122.589 9.08879C122.817 9.63917 123.113 10.4297 123.399 11.4141C123.969 13.379 124.507 16.141 124.364 19.3193C124.33 20.0583 123.704 20.6304 122.965 20.597C122.226 20.5636 121.654 19.9375 121.687 19.1984C121.814 16.385 121.337 13.9229 120.826 12.1614C120.571 11.2827 120.309 10.5846 120.113 10.1122C120.016 9.87613 119.935 9.69699 119.881 9.58042C119.853 9.52215 119.833 9.47957 119.82 9.45338C119.813 9.44029 119.809 9.43131 119.807 9.42652L119.805 9.42262C119.467 8.7656 119.725 7.95905 120.382 7.62016Z" fill="white"/>
<path fill-rule="evenodd" clip-rule="evenodd" d="M98.9867 13.6834C99.2348 13.9578 99.2135 14.3813 98.9392 14.6294C98.812 14.7444 98.6554 15.0305 98.6233 15.3959C98.5928 15.7441 98.6843 16.0566 98.9002 16.2721C99.4947 16.8656 100.415 16.9823 101.011 16.5563C101.312 16.3411 101.73 16.4106 101.946 16.7115C102.161 17.0123 102.091 17.4307 101.79 17.6459C100.562 18.5245 98.9185 18.1831 97.9538 17.2201C97.39 16.6573 97.233 15.9162 97.2889 15.2789C97.3433 14.6587 97.6079 14.0273 98.0407 13.6359C98.3151 13.3878 98.7386 13.4091 98.9867 13.6834Z" fill="black"/>
</g>
<g filter="url(#filter3_d_3260_8074)">
<path d="M55.7942 33.5674C56.4773 33.5674 57.0855 34.0001 57.3119 34.6444C60.7853 44.5355 66.2653 68 33.4481 68C0.631001 68 5.90875 42.9749 9.52816 34.5399C9.78133 33.9491 10.3627 33.5674 11.0057 33.5674H55.7955H55.7942Z" fill="#E6E6E6"/>
<path d="M19.9196 42.6441C19.1802 42.6441 18.5801 42.044 18.5801 41.3046V39.4694C18.5801 38.73 19.1802 38.1299 19.9196 38.1299C20.659 38.1299 21.2591 38.73 21.2591 39.4694V41.3046C21.2591 42.044 20.659 42.6441 19.9196 42.6441Z" fill="black"/>
<path d="M28.1647 42.6441C27.4253 42.6441 26.8252 42.044 26.8252 41.3046V39.4694C26.8252 38.73 27.4253 38.1299 28.1647 38.1299C28.9041 38.1299 29.5043 38.73 29.5043 39.4694V41.3046C29.5043 42.044 28.9041 42.6441 28.1647 42.6441Z" fill="black"/>
<path fill-rule="evenodd" clip-rule="evenodd" d="M31.1365 44.5367C31.5087 44.7787 31.6142 45.2765 31.3723 45.6486L30.6985 45.2106C31.3723 45.6486 31.372 45.6491 31.3717 45.6495L31.3711 45.6505L31.3697 45.6526L31.3665 45.6574C31.3642 45.6609 31.3614 45.6651 31.3582 45.6698C31.3518 45.6791 31.3437 45.6908 31.3338 45.7047C31.3141 45.7323 31.2874 45.7686 31.2532 45.8122C31.1848 45.8993 31.0866 46.0159 30.9555 46.1518C30.6933 46.4238 30.2994 46.7733 29.7502 47.1182C28.645 47.8123 26.9419 48.4683 24.479 48.4683C22.0166 48.4683 20.2698 47.8128 19.1227 47.1276C18.552 46.7867 18.1355 46.442 17.8562 46.1749C17.7165 46.0414 17.611 45.9272 17.5375 45.8423C17.5007 45.7999 17.4719 45.7648 17.4508 45.7382C17.4402 45.7249 17.4316 45.7137 17.4248 45.7049C17.4214 45.7004 17.4185 45.6966 17.4161 45.6933L17.4127 45.6888L17.4113 45.6869L17.4107 45.6861C17.4104 45.6857 17.4101 45.6853 18.0587 45.2106L17.4101 45.6853C17.1479 45.3271 17.2258 44.8242 17.5839 44.562C17.9405 44.301 18.4404 44.3769 18.7036 44.7309C18.7044 44.732 18.7062 44.7344 18.7091 44.738C18.7166 44.7474 18.7309 44.765 18.7523 44.7896C18.795 44.839 18.866 44.9165 18.967 45.013C19.1689 45.2061 19.4905 45.4749 19.947 45.7476C20.854 46.2894 22.3173 46.8609 24.479 46.8609C26.6402 46.8609 28.0468 46.2898 28.8953 45.7569C29.323 45.4883 29.6169 45.2243 29.7983 45.0361C29.8891 44.942 29.9517 44.8669 29.9886 44.8198C30.007 44.7963 30.0191 44.7798 30.025 44.7716C30.0268 44.769 30.0281 44.7672 30.0287 44.7662C30.2722 44.3992 30.7665 44.2961 31.1365 44.5367Z" fill="black"/>
<path fill-rule="evenodd" clip-rule="evenodd" d="M52.912 36.2295C53.5694 35.8903 54.3774 36.1482 54.7167 36.8056L53.5263 37.4199C54.7167 36.8056 54.7169 36.8059 54.7171 36.8063L54.7185 36.8092L54.7212 36.8144C54.7233 36.8185 54.7259 36.8236 54.729 36.8298C54.7353 36.8423 54.7437 36.859 54.754 36.88C54.7747 36.9221 54.8032 36.9811 54.8384 37.0564C54.9087 37.2069 55.0056 37.4228 55.1194 37.6982C55.3469 38.2485 55.6429 39.0391 55.9289 40.0235C56.4996 41.9883 57.0374 44.7504 56.8939 47.9287C56.8605 48.6677 56.2343 49.2398 55.4953 49.2064C54.7562 49.173 54.1842 48.5468 54.2176 47.8078C54.3446 44.9943 53.8678 42.5322 53.3561 40.7708C53.1009 39.8921 52.8388 39.194 52.6435 38.7215C52.546 38.4855 52.4653 38.3064 52.4109 38.1898C52.3837 38.1315 52.363 38.0889 52.3502 38.0628C52.3437 38.0497 52.3392 38.0407 52.3368 38.0359L52.3348 38.032C51.9973 37.375 52.2553 36.5684 52.912 36.2295Z" fill="white"/>
<path fill-rule="evenodd" clip-rule="evenodd" d="M31.516 42.2928C31.7641 42.5672 31.7428 42.9907 31.4685 43.2388C31.3413 43.3538 31.1847 43.6399 31.1526 44.0053C31.1221 44.3535 31.2136 44.666 31.4295 44.8815C32.024 45.475 32.9447 45.5917 33.5404 45.1656C33.8413 44.9505 34.2596 45.02 34.4748 45.3208C34.69 45.6217 34.6205 46.0401 34.3196 46.2552C33.0909 47.1339 31.4478 46.7925 30.4831 45.8295C29.9193 45.2667 29.7623 44.5256 29.8182 43.8883C29.8726 43.2681 30.1372 42.6366 30.57 42.2453C30.8444 41.9972 31.2679 42.0184 31.516 42.2928Z" fill="black"/>
</g>
<g filter="url(#filter4_d_3260_8074)">
<path d="M89.5295 33.5674C90.2127 33.5674 90.8208 34.0001 91.0472 34.6444C94.5206 44.5355 100.001 68 67.1835 68C34.3664 68 39.6441 42.9749 43.2635 34.5399C43.5167 33.9491 44.098 33.5674 44.741 33.5674H89.5309H89.5295Z" fill="#E6E6E6"/>
<path d="M53.655 42.6441C52.9155 42.6441 52.3154 42.044 52.3154 41.3046V39.4694C52.3154 38.73 52.9155 38.1299 53.655 38.1299C54.3944 38.1299 54.9945 38.73 54.9945 39.4694V41.3046C54.9945 42.044 54.3944 42.6441 53.655 42.6441Z" fill="black"/>
<path d="M61.9011 42.6441C61.1616 42.6441 60.5615 42.044 60.5615 41.3046V39.4694C60.5615 38.73 61.1616 38.1299 61.9011 38.1299C62.6405 38.1299 63.2406 38.73 63.2406 39.4694V41.3046C63.2406 42.044 62.6405 42.6441 61.9011 42.6441Z" fill="black"/>
<path fill-rule="evenodd" clip-rule="evenodd" d="M64.8719 44.5367C65.244 44.7787 65.3496 45.2765 65.1076 45.6486L64.4338 45.2106C65.1076 45.6486 65.1074 45.6491 65.1071 45.6495L65.1064 45.6505L65.1051 45.6526L65.1019 45.6574C65.0995 45.6609 65.0967 45.6651 65.0936 45.6698C65.0872 45.6791 65.0791 45.6908 65.0692 45.7047C65.0495 45.7323 65.0227 45.7686 64.9885 45.8122C64.9201 45.8993 64.8219 46.0159 64.6909 46.1518C64.4286 46.4238 64.0347 46.7733 63.4856 47.1182C62.3804 47.8123 60.6773 48.4683 58.2144 48.4683C55.752 48.4683 54.0051 47.8128 52.858 47.1276C52.2874 46.7867 51.8709 46.442 51.5915 46.1749C51.4519 46.0414 51.3464 45.9272 51.2728 45.8423C51.2361 45.7999 51.2072 45.7648 51.1861 45.7382C51.1756 45.7249 51.1669 45.7137 51.1601 45.7049C51.1568 45.7004 51.1539 45.6966 51.1514 45.6933L51.1481 45.6888L51.1467 45.6869L51.1461 45.6861C51.1458 45.6857 51.1455 45.6853 51.794 45.2106L51.1455 45.6853C50.8833 45.3271 50.9611 44.8242 51.3193 44.562C51.6758 44.301 52.1757 44.3769 52.4389 44.7309C52.4397 44.732 52.4416 44.7344 52.4445 44.738C52.4519 44.7474 52.4662 44.765 52.4876 44.7896C52.5304 44.839 52.6013 44.9165 52.7023 45.013C52.9043 45.2061 53.2259 45.4749 53.6823 45.7476C54.5894 46.2894 56.0527 46.8609 58.2144 46.8609C60.3755 46.8609 61.7822 46.2898 62.6307 45.7569C63.0583 45.4883 63.3523 45.2243 63.5337 45.0361C63.6244 44.942 63.687 44.8669 63.7239 44.8198C63.7424 44.7963 63.7544 44.7798 63.7603 44.7716C63.7622 44.769 63.7634 44.7672 63.7641 44.7662C64.0075 44.3992 64.5018 44.2961 64.8719 44.5367Z" fill="black"/>
<path fill-rule="evenodd" clip-rule="evenodd" d="M86.6474 36.2295C87.3048 35.8903 88.1128 36.1482 88.452 36.8056L87.2617 37.4199C88.452 36.8056 88.4522 36.8059 88.4524 36.8063L88.4539 36.8092L88.4566 36.8144C88.4586 36.8185 88.4612 36.8236 88.4644 36.8298C88.4707 36.8423 88.479 36.859 88.4894 36.88C88.5101 36.9221 88.5386 36.9811 88.5737 37.0564C88.644 37.2069 88.7409 37.4228 88.8548 37.6982C89.0823 38.2485 89.3783 39.0391 89.6642 40.0235C90.2349 41.9883 90.7728 44.7504 90.6292 47.9287C90.5959 48.6677 89.9697 49.2398 89.2306 49.2064C88.4916 49.173 87.9195 48.5468 87.9529 47.8078C88.08 44.9943 87.6031 42.5322 87.0915 40.7708C86.8362 39.8921 86.5742 39.194 86.3789 38.7215C86.2813 38.4855 86.2007 38.3064 86.1462 38.1898C86.119 38.1315 86.0984 38.0889 86.0855 38.0628C86.0791 38.0497 86.0746 38.0407 86.0722 38.0359L86.0702 38.032C85.7326 37.375 85.9907 36.5684 86.6474 36.2295Z" fill="white"/>
<path fill-rule="evenodd" clip-rule="evenodd" d="M65.2513 42.2928C65.4994 42.5672 65.4782 42.9907 65.2038 43.2388C65.0767 43.3538 64.92 43.6399 64.888 44.0053C64.8575 44.3535 64.949 44.666 65.1648 44.8815C65.7593 45.475 66.68 45.5917 67.2758 45.1656C67.5767 44.9505 67.995 45.02 68.2102 45.3208C68.4253 45.6217 68.3558 46.0401 68.055 46.2552C66.8263 47.1339 65.1831 46.7925 64.2184 45.8295C63.6547 45.2667 63.4977 44.5256 63.5536 43.8883C63.6079 43.2681 63.8726 42.6366 64.3053 42.2453C64.5797 41.9972 65.0032 42.0184 65.2513 42.2928Z" fill="black"/>
</g>
<g filter="url(#filter5_d_3260_8074)">
<path d="M123.265 33.5674C123.948 33.5674 124.556 34.0001 124.783 34.6444C128.256 44.5355 133.736 68 100.919 68C68.1017 68 73.3795 42.9749 76.9989 34.5399C77.252 33.9491 77.8334 33.5674 78.4764 33.5674H123.266H123.265Z" fill="#E6E6E6"/>
<path d="M87.3903 42.6441C86.6509 42.6441 86.0508 42.044 86.0508 41.3046V39.4694C86.0508 38.73 86.6509 38.1299 87.3903 38.1299C88.1297 38.1299 88.7298 38.73 88.7298 39.4694V41.3046C88.7298 42.044 88.1297 42.6441 87.3903 42.6441Z" fill="black"/>
<path d="M95.6354 42.6441C94.896 42.6441 94.2959 42.044 94.2959 41.3046V39.4694C94.2959 38.73 94.896 38.1299 95.6354 38.1299C96.3748 38.1299 96.975 38.73 96.975 39.4694V41.3046C96.975 42.044 96.3748 42.6441 95.6354 42.6441Z" fill="black"/>
<path fill-rule="evenodd" clip-rule="evenodd" d="M98.6063 44.5367C98.9784 44.7787 99.084 45.2765 98.842 45.6486L98.1682 45.2106C98.842 45.6486 98.8417 45.6491 98.8414 45.6495L98.8408 45.6505L98.8394 45.6526L98.8362 45.6574C98.8339 45.6609 98.8311 45.6651 98.8279 45.6698C98.8215 45.6791 98.8134 45.6908 98.8036 45.7047C98.7839 45.7323 98.7571 45.7686 98.7229 45.8122C98.6545 45.8993 98.5563 46.0159 98.4252 46.1518C98.163 46.4238 97.7691 46.7733 97.2199 47.1182C96.1147 47.8123 94.4117 48.4683 91.9487 48.4683C89.4864 48.4683 87.7395 47.8128 86.5924 47.1276C86.0217 46.7867 85.6053 46.442 85.3259 46.1749C85.1863 46.0414 85.0807 45.9272 85.0072 45.8423C84.9704 45.7999 84.9416 45.7648 84.9205 45.7382C84.9099 45.7249 84.9013 45.7137 84.8945 45.7049C84.8911 45.7004 84.8882 45.6966 84.8858 45.6933L84.8825 45.6888L84.8811 45.6869L84.8804 45.6861C84.8801 45.6857 84.8798 45.6853 85.5284 45.2106L84.8798 45.6853C84.6177 45.3271 84.6955 44.8242 85.0537 44.562C85.4102 44.301 85.9101 44.3769 86.1733 44.7309C86.1741 44.732 86.176 44.7344 86.1789 44.738C86.1863 44.7474 86.2006 44.765 86.222 44.7896C86.2647 44.839 86.3357 44.9165 86.4367 45.013C86.6387 45.2061 86.9603 45.4749 87.4167 45.7476C88.3237 46.2894 89.7871 46.8609 91.9487 46.8609C94.1099 46.8609 95.5165 46.2898 96.365 45.7569C96.7927 45.4883 97.0867 45.2243 97.2681 45.0361C97.3588 44.942 97.4214 44.8669 97.4583 44.8198C97.4768 44.7963 97.4888 44.7798 97.4947 44.7716C97.4965 44.769 97.4978 44.7672 97.4985 44.7662C97.7419 44.3992 98.2362 44.2961 98.6063 44.5367Z" fill="black"/>
<path fill-rule="evenodd" clip-rule="evenodd" d="M120.382 36.2295C121.039 35.8903 121.847 36.1482 122.186 36.8056L120.996 37.4199C122.186 36.8056 122.187 36.8059 122.187 36.8063L122.188 36.8092L122.191 36.8144C122.193 36.8185 122.196 36.8236 122.199 36.8298C122.205 36.8423 122.213 36.859 122.224 36.88C122.244 36.9221 122.273 36.9811 122.308 37.0564C122.378 37.2069 122.475 37.4228 122.589 37.6982C122.817 38.2485 123.113 39.0391 123.399 40.0235C123.969 41.9883 124.507 44.7504 124.364 47.9287C124.33 48.6677 123.704 49.2398 122.965 49.2064C122.226 49.173 121.654 48.5468 121.687 47.8078C121.814 44.9943 121.337 42.5322 120.826 40.7708C120.571 39.8921 120.309 39.194 120.113 38.7215C120.016 38.4855 119.935 38.3064 119.881 38.1898C119.853 38.1315 119.833 38.0889 119.82 38.0628C119.813 38.0497 119.809 38.0407 119.807 38.0359L119.805 38.032C119.467 37.375 119.725 36.5684 120.382 36.2295Z" fill="white"/>
<path fill-rule="evenodd" clip-rule="evenodd" d="M98.9867 42.2928C99.2348 42.5672 99.2135 42.9907 98.9392 43.2388C98.812 43.3538 98.6554 43.6399 98.6233 44.0053C98.5928 44.3535 98.6843 44.666 98.9002 44.8815C99.4947 45.475 100.415 45.5917 101.011 45.1656C101.312 44.9505 101.73 45.02 101.946 45.3208C102.161 45.6217 102.091 46.0401 101.79 46.2552C100.562 47.1339 98.9185 46.7925 97.9538 45.8295C97.39 45.2667 97.233 44.5256 97.2889 43.8883C97.3433 43.2681 97.6079 42.6366 98.0407 42.2453C98.3151 41.9972 98.7386 42.0184 98.9867 42.2928Z" fill="black"/>
</g>
<defs>
<filter id="filter0_d_3260_8074" x="0.822266" y="-1.04199" width="65.1465" height="46.4326" filterUnits="userSpaceOnUse" color-interpolation-filters="sRGB">
<feFlood flood-opacity="0" result="BackgroundImageFix"/>
<feColorMatrix in="SourceAlpha" type="matrix" values="0 0 0 0 0 0 0 0 0 0 0 0 0 0 0 0 0 0 127 0" result="hardAlpha"/>
<feOffset/>
<feGaussianBlur stdDeviation="3"/>
<feComposite in2="hardAlpha" operator="out"/>
<feColorMatrix type="matrix" values="0 0 0 0 0.164706 0 0 0 0 0.164706 0 0 0 0 0.164706 0 0 0 0.2 0"/>
<feBlend mode="normal" in2="BackgroundImageFix" result="effect1_dropShadow_3260_8074"/>
<feBlend mode="normal" in="SourceGraphic" in2="effect1_dropShadow_3260_8074" result="shape"/>
</filter>
<filter id="filter1_d_3260_8074" x="34.5576" y="-1.04199" width="65.1465" height="46.4326" filterUnits="userSpaceOnUse" color-interpolation-filters="sRGB">
<feFlood flood-opacity="0" result="BackgroundImageFix"/>
<feColorMatrix in="SourceAlpha" type="matrix" values="0 0 0 0 0 0 0 0 0 0 0 0 0 0 0 0 0 0 127 0" result="hardAlpha"/>
<feOffset/>
<feGaussianBlur stdDeviation="3"/>
<feComposite in2="hardAlpha" operator="out"/>
<feColorMatrix type="matrix" values="0 0 0 0 0.164706 0 0 0 0 0.164706 0 0 0 0 0.164706 0 0 0 0.2 0"/>
<feBlend mode="normal" in2="BackgroundImageFix" result="effect1_dropShadow_3260_8074"/>
<feBlend mode="normal" in="SourceGraphic" in2="effect1_dropShadow_3260_8074" result="shape"/>
</filter>
<filter id="filter2_d_3260_8074" x="68.293" y="0.958008" width="65.1465" height="46.4326" filterUnits="userSpaceOnUse" color-interpolation-filters="sRGB">
<feFlood flood-opacity="0" result="BackgroundImageFix"/>
<feColorMatrix in="SourceAlpha" type="matrix" values="0 0 0 0 0 0 0 0 0 0 0 0 0 0 0 0 0 0 127 0" result="hardAlpha"/>
<feOffset dy="2"/>
<feGaussianBlur stdDeviation="3"/>
<feComposite in2="hardAlpha" operator="out"/>
<feColorMatrix type="matrix" values="0 0 0 0 0.164706 0 0 0 0 0.164706 0 0 0 0 0.164706 0 0 0 0.2 0"/>
<feBlend mode="normal" in2="BackgroundImageFix" result="effect1_dropShadow_3260_8074"/>
<feBlend mode="normal" in="SourceGraphic" in2="effect1_dropShadow_3260_8074" result="shape"/>
</filter>
<filter id="filter3_d_3260_8074" x="0.822266" y="27.5674" width="65.1465" height="46.4326" filterUnits="userSpaceOnUse" color-interpolation-filters="sRGB">
<feFlood flood-opacity="0" result="BackgroundImageFix"/>
<feColorMatrix in="SourceAlpha" type="matrix" values="0 0 0 0 0 0 0 0 0 0 0 0 0 0 0 0 0 0 127 0" result="hardAlpha"/>
<feOffset/>
<feGaussianBlur stdDeviation="3"/>
<feComposite in2="hardAlpha" operator="out"/>
<feColorMatrix type="matrix" values="0 0 0 0 0.164706 0 0 0 0 0.164706 0 0 0 0 0.164706 0 0 0 0.2 0"/>
<feBlend mode="normal" in2="BackgroundImageFix" result="effect1_dropShadow_3260_8074"/>
<feBlend mode="normal" in="SourceGraphic" in2="effect1_dropShadow_3260_8074" result="shape"/>
</filter>
<filter id="filter4_d_3260_8074" x="34.5576" y="27.5674" width="65.1465" height="46.4326" filterUnits="userSpaceOnUse" color-interpolation-filters="sRGB">
<feFlood flood-opacity="0" result="BackgroundImageFix"/>
<feColorMatrix in="SourceAlpha" type="matrix" values="0 0 0 0 0 0 0 0 0 0 0 0 0 0 0 0 0 0 127 0" result="hardAlpha"/>
<feOffset/>
<feGaussianBlur stdDeviation="3"/>
<feComposite in2="hardAlpha" operator="out"/>
<feColorMatrix type="matrix" values="0 0 0 0 0.164706 0 0 0 0 0.164706 0 0 0 0 0.164706 0 0 0 0.2 0"/>
<feBlend mode="normal" in2="BackgroundImageFix" result="effect1_dropShadow_3260_8074"/>
<feBlend mode="normal" in="SourceGraphic" in2="effect1_dropShadow_3260_8074" result="shape"/>
</filter>
<filter id="filter5_d_3260_8074" x="68.293" y="27.5674" width="65.1465" height="46.4326" filterUnits="userSpaceOnUse" color-interpolation-filters="sRGB">
<feFlood flood-opacity="0" result="BackgroundImageFix"/>
<feColorMatrix in="SourceAlpha" type="matrix" values="0 0 0 0 0 0 0 0 0 0 0 0 0 0 0 0 0 0 127 0" result="hardAlpha"/>
<feOffset/>
<feGaussianBlur stdDeviation="3"/>
<feComposite in2="hardAlpha" operator="out"/>
<feColorMatrix type="matrix" values="0 0 0 0 0.164706 0 0 0 0 0.164706 0 0 0 0 0.164706 0 0 0 0.2 0"/>
<feBlend mode="normal" in2="BackgroundImageFix" result="effect1_dropShadow_3260_8074"/>
<feBlend mode="normal" in="SourceGraphic" in2="effect1_dropShadow_3260_8074" result="shape"/>
</filter>
</defs>
</svg>
