<svg width="151" height="162" viewBox="0 0 151 162" fill="none" xmlns="http://www.w3.org/2000/svg">
<g clip-path="url(#clip0_1569_5006)">
<path d="M136.484 41.9421L135.477 37.6808L132.07 30.6164L125.488 25.0025L122.032 16.058L113.635 11.4501L105.427 8.96714L97.3085 9.21581L88.8933 3.00286L78.6148 0L69.3807 1.74821L61.7207 6.71405L55.2816 7.44498L47.6516 7.95362L41.4266 12.4297L35.9643 17.6442L26.3169 18.7858L15.8619 22.2671L11.2035 31.7994L17.7402 37.4321L10.1816 48.4791L14.3066 55.8788L19.938 61.8243L27.5754 65.2868L35.9342 64.8573L45.2961 63.6252L54.6805 61.0067L56.4725 60.9765L62.7613 58.6632L67.4009 67.0162L75.6132 70.9421L83.1981 71.2398L91.1474 71.1644L96.899 65.6711L102.166 60.2042L108.804 61.617L115.735 61.7602L124.898 60.5772L133.152 56.4817L136.912 48.4791L136.484 41.9421Z" fill="white"/>
<path d="M33.702 40.4388L31.6357 39.2745L33.3225 32.9486L41.1479 29.2637L44.1796 22.8662L55.093 19.9839L56.761 22.0486L54.7774 23.9739L46.9483 25.7862L44.6717 30.9253L42.8234 32.7526L36.2678 35.1301L35.3662 38.3288L34.1302 40.4312L33.702 40.4388Z" fill="#EDE4DD"/>
<path d="M115.039 38.2911L113.104 36.5315L111.805 32.7902L109.4 32.2326L107.09 30.8046L108.611 28.5854L114.164 29.7007L117.015 36.4147L115.099 38.4229L115.039 38.2911Z" fill="#EDE4DD"/>
<path d="M47.2156 46.8892L29.2958 49.73L11.207 48.351L12.9727 52.9363L25.8546 52.8271L38.7403 53.0795L51.6298 53.1624L64.523 53.0569L53.7824 51.6817L47.2156 46.8892Z" fill="#E6E6E6"/>
<path d="M87.8373 46.2524L104.555 52.8007L88.4234 52.8949L72.0176 52.9891L87.8373 46.2524Z" fill="#E6E6E6"/>
<path d="M136.893 48.5244L122.088 51.9869L106.749 52.7706L120.844 52.4504L134.925 52.6915L136.893 48.5244Z" fill="#E6E6E6"/>
<path d="M25.9035 140.938L35.8814 142.528L45.8406 144.228L55.9688 144.748L65.8341 147.136L71.7397 152.875L71.4805 154.984L64.9062 161.081L55.7284 161.333L46.5506 160.975L37.3729 161.397L28.1951 160.775L19.0173 161.732L9.83578 160.745L4.38097 154.265L3.47559 153.994L8.90786 146.387L16.7332 141.579L25.9035 140.938Z" fill="#808080"/>
<path d="M128.084 140.735L118.057 141.959L108.143 143.979L98.1385 145.373L88.1155 146.654L82.4052 152.874L82.0596 154.984L89.111 161.133L98.2888 161.427L107.467 160.877L116.644 161.525L125.822 161.732L135.004 162L144.181 161.386L150.5 154.005L150.275 154.073L145.188 146.307L137.37 141.304L128.084 140.735Z" fill="#808080"/>
<path d="M138.681 54.0778L144.065 55.9014L144.463 65.2868L148.404 73.6096L149.365 82.6559L148.967 91.7135L150.015 100.711L147.953 109.478L145.954 118.287L141.364 126.079L135.154 132.582L127.659 137.408L119.804 141.511L111.565 144.947L102.71 146.33L93.9833 148.512L85.0647 150.26L76.0072 148.949L67.0247 149.156L58.0461 148.674L49.3605 146.311L39.9723 146.609L31.3055 143.538L23.837 138.109L17.7999 131.331L11.4585 125.129L5.73693 117.986L3.40022 109.147L0.5 100.383L1.74725 91.2086L3.12973 82.3093L3.94119 73.3421L5.36501 64.3561L9.21945 56.1312L13.0664 53.2866L22.0375 53.8367L31.0087 53.3846L39.9798 52.2882L48.951 51.8926L57.9259 53.0342L66.897 53.0982L75.8682 54.4584L84.8393 54.7108L93.8105 53.9008L102.785 54.5601L111.757 53.6935L120.731 53.215L129.684 53.7237L138.681 54.0778Z" fill="white"/>
<path d="M64.3346 78.568L61.5471 77.8295L60.4238 75.0339L60.8145 72.453L60.7657 69.8721L61.6711 67.1971L64.3346 66.0366L66.9531 67.2461L67.9975 69.8721L68.0501 72.453L68.313 75.0339L66.8817 77.5846L64.3346 78.568Z" fill="black"/>
<path d="M87.462 78.8921L84.8548 77.6487L83.7428 75.0339L83.709 72.4531L83.8405 69.8722L84.7684 67.1707L87.462 65.8784L89.9978 67.3252L91.1662 69.8722L91.0121 72.4531L91.0347 75.0339L90.2533 77.8371L87.462 78.8921Z" fill="black"/>
<path d="M66.3225 92.6328C65.744 92.6328 65.1617 92.4105 64.7221 91.9622C63.8468 91.0768 63.8543 89.645 64.7372 88.7634L66.9048 86.6083L69.9403 85.0522L73.141 84.4494H75.9361L78.9039 84.1479L82.3038 85.0447L86.9734 88.4168C87.984 89.1477 88.2132 90.5606 87.4844 91.5703C86.7555 92.5838 85.3505 92.8137 84.3362 92.0827L80.3428 89.2004L78.5395 88.7257L76.0488 88.9668H73.5618L71.4092 89.3738L69.5759 90.3119L67.9041 91.9735C67.4646 92.4105 66.8898 92.6291 66.3188 92.6291L66.3225 92.6328Z" fill="black"/>
<path d="M93.1269 77.9688L91.5415 79.521L90.2454 81.4614L88.9944 83.4696L88.6826 85.8282L89.4002 88.0511L90.9667 89.5959L93.1269 90.3645L95.5124 90.0103L96.8911 88.0737L97.248 85.8282L96.8949 83.5977L96.091 81.4087L94.6408 79.5738L93.1269 77.9688Z" fill="#3FA9F5"/>
<path d="M94.8696 88.4204C94.7944 88.4204 94.723 88.4091 94.6479 88.3865C94.2496 88.266 94.0279 87.844 94.1481 87.4446L94.7042 85.6248L94.0805 83.8578C93.9414 83.4659 94.1481 83.0364 94.5389 82.897C94.9297 82.7576 95.3581 82.9648 95.4971 83.3566L96.2863 85.5909L95.5836 87.8892C95.4859 88.2132 95.1852 88.4204 94.8658 88.4204H94.8696Z" fill="white"/>
</g>
<defs>
<clipPath id="clip0_1569_5006">
<rect width="150" height="162" fill="white" transform="translate(0.5)"/>
</clipPath>
</defs>
</svg>
