<svg width="135" height="229" viewBox="0 0 135 229" fill="none" xmlns="http://www.w3.org/2000/svg">
<path d="M122.66 64.6339C122.66 61.4604 120.771 58.5793 117.696 56.4492C117.743 56.363 117.792 56.2768 117.835 56.1876C119.585 52.58 118.433 48.1382 115.265 44.4753C119.102 43.0101 121.577 40.3598 121.053 37.9588C120.474 35.3024 116.42 33.8803 111.728 34.5514C113.298 28.7676 109.523 21.9464 102.58 18.619C98.9936 16.9014 95.1999 16.4212 91.8768 17.0214C91.1398 7.78703 83.3726 0.519531 73.8928 0.519531C68.3741 0.519531 63.4375 2.98515 60.1269 6.86359C58.2563 6.21103 56.2464 5.85396 54.1529 5.85396C44.1869 5.85396 36.107 13.8848 36.107 23.7902C36.107 24.529 36.1565 25.2554 36.2432 25.9695C34.351 25.9018 32.307 26.0773 30.2073 26.5297C22.3658 28.2227 16.782 33.1262 17.7359 37.4818C18.2407 39.7904 20.4798 41.4833 23.6417 42.3113C23.5953 42.8315 23.5674 43.3579 23.5674 43.8904C23.5674 46.3283 24.0598 48.6523 24.9456 50.7731C20.0369 53.0663 17.0143 56.6739 17.7359 59.9706C18.1818 62.0175 19.9935 63.5781 22.6012 64.4831C19.6064 66.9395 17.7978 70.113 17.7978 73.5759C17.7978 81.3728 26.9307 87.6922 38.2005 87.6922C44.1621 87.6922 49.5291 85.9223 53.2579 83.0996C53.8742 83.1674 54.4966 83.2043 55.1315 83.2043C56.7667 83.2043 58.3431 82.9704 59.8389 82.5394C61.8581 87.0274 65.7138 90.6749 70.7928 92.2971C79.5448 95.092 88.8635 90.8904 92.6542 82.8226C95.7542 84.4725 99.6966 85.4637 103.989 85.4637C113.955 85.4637 122.035 80.1416 122.035 73.5759C122.035 72.1846 121.669 70.8518 121.004 69.6113C122.066 68.0968 122.664 66.41 122.664 64.6309L122.66 64.6339ZM93.3076 55.3718C93.3045 55.338 93.2983 55.3041 93.2952 55.2702C93.3169 55.2949 93.3417 55.3165 93.3634 55.3411C93.3448 55.3503 93.3262 55.3595 93.3076 55.3688V55.3718Z" fill="white"/>
<path d="M38.8385 45.1463C38.1478 45.1463 37.516 44.6784 37.3333 43.9828C37.3024 43.8689 36.6241 41.1386 38.4111 38.7807C39.7149 37.0631 41.9044 36.0504 44.9301 35.758C45.1872 34.4098 45.8561 32.3905 47.609 30.7683C49.6933 28.8384 52.6756 28.0103 56.4725 28.3089C57.3241 28.3766 57.9621 29.1185 57.894 29.965C57.8258 30.8114 57.0764 31.4455 56.2278 31.3778C53.3476 31.15 51.1674 31.6979 49.7459 32.9969C47.9032 34.6837 47.8691 37.1893 47.8691 37.214C47.866 38.0451 47.1971 38.7346 46.3609 38.7561C43.679 38.8238 41.7929 39.4672 40.9041 40.6092C40.006 41.7665 40.3219 43.1732 40.3374 43.2317C40.5511 44.0536 40.0525 44.8847 39.2225 45.0971C39.0924 45.1309 38.9654 45.1463 38.8385 45.1463Z" fill="#EDE4DD"/>
<path d="M107.337 56.9755C107.29 56.9755 107.241 56.9755 107.194 56.9693C106.343 56.8924 105.714 56.1444 105.794 55.2979C105.94 53.7034 105.633 52.4752 104.884 51.6534C103.676 50.3329 101.617 50.3052 101.595 50.3052C100.762 50.3021 100.071 49.6403 100.046 48.8123C100.016 47.7719 99.8018 46.3898 98.9564 45.7219C98.1295 45.0662 96.9557 45.2878 96.9434 45.2909C96.1103 45.4756 95.2896 44.9523 95.1038 44.1212C94.9179 43.2901 95.4506 42.4683 96.2868 42.2836C96.5469 42.2251 98.879 41.7634 100.839 43.2778C102.019 44.1889 102.753 45.5679 103.026 47.384C104.206 47.6118 105.878 48.1751 107.154 49.5541C108.532 51.0439 109.114 53.0693 108.882 55.578C108.808 56.3783 108.133 56.9755 107.343 56.9786L107.337 56.9755Z" fill="#EDE4DD"/>
<path d="M48.6156 75.2258C48.6156 75.2258 41.536 77.8823 33.8618 78.2239C26.1875 78.5656 17.9373 75.2258 17.9373 75.2258C18.2531 77.1066 19.1017 78.8765 20.3807 80.4587H62.8802C62.8802 80.4587 57.6185 80.1847 54.1499 79.0488C50.6813 77.9099 48.6156 75.2289 48.6156 75.2289V75.2258Z" fill="#E6E6E6"/>
<path d="M80.9259 75.2258C80.9259 75.2258 90.0433 80.4587 95.8872 80.4587H69.2906C69.2906 80.4587 81.1396 78.8272 80.929 75.2258H80.9259Z" fill="#E6E6E6"/>
<path d="M122.032 73.1604C114.587 79.7476 95.8843 80.4586 95.8843 80.4586H118.703C120.796 78.5163 122.032 75.7245 122.032 73.1604Z" fill="#E6E6E6"/>
<path d="M121.586 79.9877C123.165 79.9877 124.571 80.9819 125.095 82.4625C133.125 105.191 145.795 159.111 69.9225 159.111C-5.94962 159.111 6.25236 101.605 14.6203 82.2193C15.2056 80.8619 16.5497 79.9846 18.0362 79.9846H121.589L121.586 79.9877Z" fill="white"/>
<path opacity="0.5" d="M125.095 82.4624C124.571 80.9818 123.165 79.9875 121.586 79.9875H81.6942C81.6942 79.9875 107.287 120.437 69.9196 159.111C145.792 159.111 133.122 105.188 125.092 82.4624H125.095Z" fill="#E6E6E6"/>
<path opacity="0.6" d="M14.8277 136.751H125.646C125.949 136.231 126.241 135.708 126.516 135.178H13.908C14.2022 135.708 14.5088 136.231 14.8277 136.751Z" fill="#CCCCCC"/>
<path d="M36.3114 100.285C34.6019 100.285 33.2145 98.906 33.2145 97.2068C33.2145 94.9536 33.9825 89.6192 34.0692 89.019C34.3139 87.3352 35.8841 86.1686 37.5781 86.4149C39.2721 86.6581 40.4428 88.2187 40.1981 89.9024C39.8915 92.0048 39.4053 95.8463 39.4053 97.2099C39.4053 98.909 38.0178 100.288 36.3083 100.288L36.3114 100.285Z" fill="black"/>
<path d="M55.6209 100.285C53.9114 100.285 52.5239 98.906 52.5239 97.2068C52.5239 94.9536 53.292 89.6192 53.3787 89.019C53.6233 87.3352 55.1935 86.1686 56.8875 86.4149C58.5815 86.6581 59.7522 88.2187 59.5075 89.9024C59.2009 92.0048 58.7147 95.8463 58.7147 97.2099C58.7147 98.909 57.3273 100.288 55.6178 100.288L55.6209 100.285Z" fill="black"/>
<path d="M63.9795 106.734C63.5923 106.734 63.2021 106.589 62.9017 106.3C62.2885 105.709 62.27 104.742 62.8615 104.13C63.2486 103.729 72.62 94.3411 93.5398 97.5085C94.3853 97.6378 94.9675 98.4227 94.8375 99.263C94.7074 100.103 93.9177 100.682 93.0722 100.553C73.8463 97.644 65.1718 106.186 65.0851 106.272C64.7816 106.58 64.379 106.734 63.9764 106.734H63.9795Z" fill="#FF896F"/>
<path d="M30.8824 106.737C30.4767 106.737 30.0741 106.58 29.7706 106.269C29.6467 106.146 20.9659 97.647 1.78344 100.553C0.934872 100.682 0.148244 100.103 0.0181716 99.263C-0.1119 98.4227 0.470327 97.6378 1.31579 97.5085C22.2388 94.3411 31.6071 103.729 31.9942 104.13C32.5888 104.742 32.5702 105.715 31.9539 106.306C31.6535 106.592 31.2664 106.737 30.8793 106.737H30.8824Z" fill="#FF896F"/>
<path d="M28.9715 212.166L61.9478 216.814C64.701 217.202 66.7357 219.412 66.7357 222.016V223.74C66.7357 226.645 64.2179 229 61.1086 229H15.7104C12.3997 229 10.0058 226.042 10.907 223.059C13.1337 215.69 20.8761 211.024 28.9715 212.166Z" fill="#808080"/>
<path d="M113.202 212.166L80.226 216.814C77.4728 217.202 75.4381 219.412 75.4381 222.016V223.74C75.4381 226.645 77.9559 229 81.0653 229H126.463C129.774 229 132.168 226.042 131.267 223.059C129.04 215.69 121.298 211.024 113.202 212.166Z" fill="#808080"/>
<path d="M124.757 136.751C126.433 136.751 127.925 137.792 128.48 139.346C137.002 163.192 150.446 219.766 69.9257 219.766C-10.595 219.766 2.35331 159.431 11.2323 139.094C11.8548 137.669 13.2794 136.748 14.8557 136.748H124.757V136.751Z" fill="#E6E6E6"/>
<path opacity="0.5" d="M91.4309 179.291C86.3116 201.466 69.7677 216.056 63.4995 219.627C65.5745 219.716 67.7114 219.766 69.9257 219.766C150.449 219.766 137.006 163.193 128.48 139.346C127.925 137.792 126.433 136.751 124.757 136.751H85.1038C85.1038 136.751 96.5502 157.113 91.4309 179.291Z" fill="#CCCCCC"/>
<path opacity="0.5" d="M128.588 168.435H13.5891C12.9047 168.435 12.3503 167.884 12.3503 167.203C12.3503 166.523 12.9047 165.972 13.5891 165.972H128.588C129.273 165.972 129.827 166.523 129.827 167.203C129.827 167.884 129.273 168.435 128.588 168.435Z" fill="#B3B3B3"/>
</svg>
