<svg width="151" height="267" viewBox="0 0 151 267" fill="none" xmlns="http://www.w3.org/2000/svg">
<path d="M136.65 76.2647C136.65 72.5919 134.477 69.2576 130.94 66.7925C130.994 66.6928 131.05 66.593 131.1 66.4897C133.113 62.3147 131.788 57.1743 128.144 52.9352C132.557 51.2396 135.404 48.1724 134.802 45.3938C134.135 42.3196 129.472 40.6738 124.076 41.4504C125.882 34.7568 121.539 26.8628 113.553 23.012C109.427 21.0242 105.064 20.4685 101.241 21.1631C100.393 10.4762 91.4592 2.06567 80.555 2.06567C74.207 2.06567 68.5287 4.91907 64.7206 9.40756C62.569 8.65235 60.2571 8.23912 57.8489 8.23912C46.3855 8.23912 37.0915 17.5331 37.0915 28.9966C37.0915 29.8516 37.1485 30.6923 37.2482 31.5187C35.0716 31.4403 32.7205 31.6434 30.3053 32.1671C21.2856 34.1263 14.8627 39.801 15.9599 44.8417C16.5406 47.5134 19.1161 49.4727 22.7532 50.4309C22.6998 51.033 22.6677 51.6421 22.6677 52.2584C22.6677 55.0797 23.2341 57.7692 24.2529 60.2237C18.6067 62.8776 15.1299 67.0526 15.9599 70.8678C16.4729 73.2367 18.5569 75.0428 21.5563 76.0901C18.1116 78.9328 16.0312 82.6056 16.0312 86.6131C16.0312 95.6364 26.5364 102.95 39.4996 102.95C46.357 102.95 52.5304 100.901 56.8194 97.6349C57.5283 97.7132 58.2444 97.756 58.9746 97.756C60.8555 97.756 62.6687 97.4853 64.3893 96.9865C66.7119 102.18 71.147 106.402 76.9891 108.279C87.0562 111.514 97.7751 106.651 102.135 97.3143C105.701 99.2237 110.236 100.371 115.173 100.371C126.637 100.371 135.931 94.2115 135.931 86.6131C135.931 85.003 135.51 83.4605 134.745 82.0249C135.966 80.2722 136.654 78.3201 136.654 76.2611L136.65 76.2647ZM102.887 65.5457C102.883 65.5065 102.876 65.4674 102.873 65.4282C102.898 65.4567 102.926 65.4816 102.951 65.5101C102.93 65.5208 102.908 65.5315 102.887 65.5422V65.5457Z" fill="white"/>
<path d="M51.4794 88.5225C51.4794 88.5225 43.336 91.5967 34.5086 91.9921C25.6812 92.3875 16.1913 88.5225 16.1913 88.5225C16.5546 90.699 17.5307 92.7473 19.0019 94.5784H67.8873C67.8873 94.5784 61.8349 94.2613 57.8452 92.9468C53.8554 91.6288 51.4794 88.526 51.4794 88.526V88.5225Z" fill="#E6E6E6"/>
<path d="M88.6448 88.5225C88.6448 88.5225 99.1322 94.5784 105.854 94.5784H75.2612C75.2612 94.5784 88.8906 92.6903 88.6483 88.5225H88.6448Z" fill="#E6E6E6"/>
<path d="M135.927 86.1321C127.364 93.7554 105.851 94.5783 105.851 94.5783H132.098C134.506 92.3305 135.927 89.0995 135.927 86.1321Z" fill="#E6E6E6"/>
<path d="M40.2334 53.7117C39.439 53.7117 38.7123 53.1702 38.5021 52.3652C38.4665 52.2334 37.6864 49.0736 39.7418 46.3449C41.2415 44.3571 43.7601 43.1851 47.2404 42.8467C47.5361 41.2864 48.3056 38.9496 50.3218 37.0722C52.7192 34.8387 56.1533 33.8804 60.5171 34.226C61.4967 34.3043 62.2305 35.1629 62.1522 36.1425C62.0738 37.1221 61.2117 37.856 60.2357 37.7776C56.9227 37.514 54.4149 38.1481 52.7798 39.6513C50.6602 41.6035 50.621 44.5032 50.621 44.5317C50.6175 45.4935 49.848 46.2915 48.8862 46.3164C45.8013 46.3948 43.6318 47.1393 42.6094 48.4609C41.5764 49.8003 41.9397 51.4283 41.9575 51.496C42.2033 52.4471 41.6298 53.4089 40.6751 53.6547C40.5255 53.6939 40.3795 53.7117 40.2334 53.7117Z" fill="#EDE4DD"/>
<path d="M119.024 67.4016C118.971 67.4016 118.914 67.4016 118.86 67.3945C117.881 67.3054 117.157 66.4398 117.25 65.4601C117.418 63.6149 117.065 62.1935 116.203 61.2424C114.814 59.7142 112.445 59.6821 112.42 59.6821C111.461 59.6785 110.667 58.9126 110.638 57.9544C110.603 56.7503 110.357 55.1509 109.385 54.3778C108.433 53.6191 107.083 53.8756 107.069 53.8791C106.111 54.0929 105.167 53.4873 104.953 52.5255C104.739 51.5636 105.352 50.6125 106.314 50.3988C106.613 50.3311 109.296 49.7967 111.55 51.5494C112.908 52.6038 113.752 54.1997 114.065 56.3015C115.423 56.5651 117.346 57.217 118.814 58.8129C120.399 60.537 121.069 62.881 120.802 65.7843C120.716 66.7105 119.94 67.4016 119.031 67.4051L119.024 67.4016Z" fill="#EDE4DD"/>
<path d="M135.414 94.0334C137.231 94.0334 138.848 95.184 139.45 96.8974C148.687 123.201 163.261 185.602 75.988 185.602C-11.2846 185.602 2.7508 119.051 12.3761 96.616C13.0494 95.045 14.5954 94.0298 16.3053 94.0298H135.418L135.414 94.0334Z" fill="white"/>
<path opacity="0.5" d="M139.45 96.8975C138.848 95.1841 137.231 94.0334 135.414 94.0334H89.5282C89.5282 94.0334 118.967 140.846 75.9844 185.602C163.257 185.602 148.684 123.198 139.447 96.8975H139.45Z" fill="#E6E6E6"/>
<path d="M38.5235 117.309C36.5571 117.309 34.9612 115.713 34.9612 113.747C34.9612 111.139 35.8446 104.966 35.9444 104.271C36.2258 102.323 38.0319 100.973 39.9804 101.258C41.929 101.539 43.2756 103.345 42.9941 105.294C42.6415 107.727 42.0822 112.173 42.0822 113.751C42.0822 115.717 40.4863 117.313 38.5199 117.313L38.5235 117.309Z" fill="black"/>
<path d="M59.5016 117.309C57.5352 117.309 55.9393 115.713 55.9393 113.747C55.9393 111.139 56.8228 104.966 56.9225 104.271C57.2039 102.323 59.01 100.973 60.9586 101.258C62.9072 101.539 64.2537 103.345 63.9723 105.294C63.6196 107.727 63.0604 112.173 63.0604 113.751C63.0604 115.717 61.4644 117.313 59.4981 117.313L59.5016 117.309Z" fill="black"/>
<path d="M49.4988 135.335C48.3161 135.335 47.0764 135.267 45.7726 135.114C40.3936 134.49 36.4964 132.599 34.1916 129.482C31.3204 125.606 32.0685 121.306 32.1006 121.125C32.243 120.352 32.984 119.839 33.7606 119.981C34.5336 120.124 35.0466 120.864 34.9041 121.641C34.9005 121.666 34.3626 124.958 36.5071 127.825C38.331 130.262 41.5584 131.765 46.1004 132.289C57.5816 133.614 63.2849 127.964 63.7872 127.024C64.0686 126.308 64.8736 125.941 65.6003 126.204C66.3413 126.472 66.7225 127.291 66.4517 128.032C65.8212 129.767 60.1251 135.338 49.4988 135.338V135.335ZM63.78 127.038C63.78 127.038 63.7765 127.049 63.7729 127.056C63.7729 127.049 63.7765 127.045 63.78 127.038Z" fill="black"/>
<path d="M71.8344 131.445C69.0914 131.445 66.5123 130.212 64.7311 128.039C61.5536 124.167 63.1887 120.149 64.496 118.567C64.9983 117.961 65.896 117.876 66.5016 118.375C67.1072 118.873 67.1927 119.767 66.6975 120.373C66.4624 120.669 64.5174 123.28 66.9362 126.229C68.7423 128.434 71.0863 128.613 72.0054 128.588C73.4837 128.548 74.4028 128.011 74.6593 127.661C75.1259 127.027 76.0165 126.888 76.6506 127.355C77.2847 127.822 77.4236 128.712 76.9569 129.346C76.0521 130.579 74.1855 131.38 72.0802 131.437C71.9982 131.437 71.9128 131.437 71.8308 131.437L71.8344 131.445Z" fill="black"/>
<path d="M79.2901 121.381C83.9155 121.381 87.665 119.378 87.665 116.907C87.665 114.436 83.9155 112.433 79.2901 112.433C74.6647 112.433 70.9152 114.436 70.9152 116.907C70.9152 119.378 74.6647 121.381 79.2901 121.381Z" fill="#FF896F"/>
<path d="M21.5527 121.381C26.178 121.381 29.9276 119.378 29.9276 116.907C29.9276 114.436 26.178 112.433 21.5527 112.433C16.9273 112.433 13.1777 114.436 13.1777 116.907C13.1777 119.378 16.9273 121.381 21.5527 121.381Z" fill="#FF896F"/>
<path opacity="0.6" d="M12.6149 159.726H140.084C140.434 159.124 140.768 158.518 141.085 157.905H11.5569C11.8953 158.518 12.248 159.124 12.6149 159.726Z" fill="#CCCCCC"/>
<path d="M28.8838 247.002L66.8151 252.381C69.982 252.83 72.3224 255.387 72.3224 258.401V260.396C72.3224 263.759 69.4263 266.484 65.8497 266.484H13.6301C9.822 266.484 7.06835 263.06 8.10497 259.609C10.6663 251.08 19.572 245.68 28.8838 247.002Z" fill="#808080"/>
<path d="M125.771 247.002L87.8398 252.381C84.6729 252.83 82.3325 255.387 82.3325 258.401V260.396C82.3325 263.759 85.2287 266.484 88.8052 266.484H141.025C144.833 266.484 147.587 263.06 146.55 259.609C143.989 251.08 135.083 245.68 125.771 247.002Z" fill="#808080"/>
<path d="M139.062 159.725C140.989 159.725 142.706 160.93 143.344 162.729C153.147 190.326 168.611 255.797 75.9916 255.797C-16.628 255.797 -1.73407 185.972 8.47902 162.436C9.19505 160.787 10.8337 159.722 12.6469 159.722H139.062V159.725Z" fill="#E6E6E6"/>
<path opacity="0.5" d="M100.728 208.956C94.8397 234.619 75.8099 251.505 68.5999 255.637C70.9866 255.74 73.4446 255.797 75.9916 255.797C168.615 255.797 153.151 190.326 143.344 162.729C142.706 160.93 140.989 159.726 139.062 159.726H93.4504C93.4504 159.726 106.617 183.29 100.728 208.956Z" fill="#CCCCCC"/>
<path opacity="0.5" d="M143.469 196.392H11.1899C10.4027 196.392 9.76501 195.755 9.76501 194.967C9.76501 194.18 10.4027 193.542 11.1899 193.542H143.469C144.256 193.542 144.893 194.18 144.893 194.967C144.893 195.755 144.256 196.392 143.469 196.392Z" fill="#B3B3B3"/>
</svg>
