<svg width="85" height="63" viewBox="0 0 85 63" fill="none" xmlns="http://www.w3.org/2000/svg">
<g clip-path="url(#clip0_1688_5065)">
<path d="M76.6775 23.9631C77.0586 23.1933 77.2669 22.3741 77.2669 21.5221C77.2669 18.5699 74.7945 15.9955 71.1305 14.6302C70.6077 11.7786 68.2019 8.85723 64.615 7.15325C61.3365 5.59503 57.8663 5.43284 55.3146 6.4655C53.1463 3.20535 49.4094 1.05176 45.1602 1.05176C41.5025 1.05176 38.226 2.64899 36.0014 5.17006C34.8121 4.78615 33.5435 4.57674 32.225 4.57674C27.6425 4.57674 23.6557 7.07934 21.5894 10.7727C19.9564 10.5427 18.0713 10.6084 16.1196 11.0252C10.8455 12.1543 7.08997 15.4248 7.73152 18.3297C8.03146 19.695 9.25 20.7358 11.0038 21.3394C8.98963 22.9777 7.77318 25.0943 7.77318 27.404C7.77318 32.6042 13.9158 36.819 21.4957 36.819C25.5054 36.819 29.1152 35.6385 31.6231 33.7559C32.0376 33.8011 32.4562 33.8257 32.8832 33.8257C33.983 33.8257 35.0433 33.6697 36.0493 33.3823C37.4074 36.3755 40.0007 38.8083 43.4168 39.8903C49.3032 41.7544 55.5708 38.952 58.1204 33.5711C60.2054 34.6716 62.857 35.3326 65.744 35.3326C72.447 35.3326 77.8814 31.783 77.8814 27.404C77.8814 26.1701 77.4502 25.002 76.6795 23.9611L76.6775 23.9631Z" fill="white"/>
<path d="M20.2559 23.1318C19.7914 23.1318 19.3665 22.8197 19.2436 22.3558C19.2228 22.2798 18.7666 20.4588 19.9685 18.8862C20.8454 17.7406 22.3181 17.0652 24.3531 16.8702C24.526 15.971 24.9759 14.6242 26.1549 13.5423C27.5567 12.255 29.5626 11.7028 32.1163 11.9019C32.6891 11.9471 33.1182 12.4419 33.0724 13.0064C33.0266 13.571 32.5225 13.9919 31.9518 13.9488C30.0146 13.7989 28.5482 14.1623 27.5921 15.0286C26.3528 16.1537 26.3298 17.8248 26.3298 17.8412C26.3278 18.3955 25.8778 18.8554 25.3154 18.8698C23.5116 18.9149 22.2431 19.344 21.6453 20.1057C21.0412 20.8776 21.2537 21.8158 21.2641 21.8548C21.4078 22.403 21.0725 22.9573 20.5142 23.0989C20.4267 23.1215 20.3413 23.1318 20.2559 23.1318Z" fill="#EDE4DD"/>
<path d="M65.3566 21.8898C64.7963 21.8898 64.3338 21.4504 64.3151 20.8941C64.2943 20.2002 64.1506 19.2784 63.5819 18.8329C63.0237 18.3956 62.2363 18.5434 62.228 18.5454C61.6677 18.6686 61.1157 18.3196 60.9907 17.7653C60.8657 17.211 61.224 16.6628 61.7864 16.5397C61.9614 16.5007 63.5319 16.1927 64.8483 17.2028C65.8252 17.9521 66.3481 19.1737 66.3981 20.8325C66.4147 21.3991 65.9627 21.8733 65.3878 21.8898C65.3774 21.8898 65.367 21.8898 65.3566 21.8898Z" fill="#EDE4DD"/>
<path d="M27.3281 26.5273C27.3281 26.5273 22.5665 28.2991 17.4049 28.527C12.2433 28.7548 7.8087 26.7244 7.8087 26.7244C7.8087 26.7244 7.55874 28.5044 8.33777 30.0174H36.9222C36.9222 30.0174 33.3833 29.8347 31.0504 29.0772C28.7174 28.3176 27.3281 26.5294 27.3281 26.5294V26.5273Z" fill="#E6E6E6"/>
<path d="M49.8307 26.4927C49.8307 26.4927 55.1944 30.0156 59.1228 30.0156H41.2344C41.2344 30.0156 48.7101 29.0199 49.8307 26.4927Z" fill="#E6E6E6"/>
<path d="M77.8273 26.6733C75.3986 30.147 61.8594 30.0177 61.8594 30.0177H77.2066C78.1585 28.3465 77.8294 26.6733 77.8294 26.6733H77.8273Z" fill="#E6E6E6"/>
<path d="M77.5797 30.0151C78.642 30.0151 79.5876 30.6783 79.9397 31.6657C85.3408 46.825 93.8622 82.7873 42.8318 82.7873C-8.19866 82.7873 0.0081979 44.4354 5.63635 31.5056C6.03003 30.6002 6.93404 30.0151 7.93386 30.0151H77.5817H77.5797Z" fill="#F9FAFB"/>
<path d="M36.3603 43.9284C35.2105 43.9284 34.2773 43.0086 34.2773 41.8754V39.0628C34.2773 37.9295 35.2105 37.0098 36.3603 37.0098C37.5101 37.0098 38.4433 37.9295 38.4433 39.0628V41.8754C38.4433 43.0086 37.5101 43.9284 36.3603 43.9284Z" fill="black"/>
<path d="M49.1806 43.9284C48.0308 43.9284 47.0977 43.0086 47.0977 41.8754V39.0628C47.0977 37.9295 48.0308 37.0098 49.1806 37.0098C50.3304 37.0098 51.2636 37.9295 51.2636 39.0628V41.8754C51.2636 43.0086 50.3304 43.9284 49.1806 43.9284Z" fill="black"/>
<path fill-rule="evenodd" clip-rule="evenodd" d="M48.7713 47.0983C49.3534 47.4639 49.5247 48.2253 49.1538 48.7991L48.0998 48.1372C49.1538 48.7991 49.1534 48.7997 49.1529 48.8004L49.152 48.8018L49.1501 48.8048L49.1458 48.8113C49.1428 48.8159 49.1394 48.821 49.1356 48.8266C49.128 48.8378 49.1189 48.851 49.1082 48.8661C49.0869 48.8961 49.0593 48.9337 49.0251 48.9775C48.9567 49.0652 48.8616 49.1785 48.7371 49.3084C48.4879 49.5683 48.1206 49.8951 47.614 50.2151C46.5897 50.8622 45.0446 51.4508 42.8549 51.4508C40.6662 51.4508 39.0889 50.863 38.0352 50.2298C37.5131 49.916 37.1284 49.5965 36.8659 49.344C36.7347 49.2178 36.6337 49.1081 36.5612 49.0238C36.5248 48.9816 36.4956 48.9458 36.4731 48.9173C36.4618 48.903 36.4523 48.8906 36.4444 48.8802C36.4404 48.875 36.4369 48.8703 36.4337 48.8661L36.4294 48.8601L36.4274 48.8574L36.4265 48.8562C36.426 48.8556 36.4256 48.855 37.4413 48.1372L36.4256 48.855C36.0234 48.3021 36.1521 47.5325 36.7131 47.1361C37.2692 46.7432 38.0413 46.8645 38.4465 47.4053C38.4492 47.4087 38.456 47.417 38.4668 47.4295C38.4922 47.4591 38.5401 47.512 38.6117 47.5809C38.755 47.7188 38.9926 47.9197 39.3365 48.1264C40.0148 48.534 41.1443 48.9872 42.8549 48.9872C44.5645 48.9872 45.6418 48.5348 46.2652 48.141C46.5824 47.9406 46.7951 47.747 46.9201 47.6166C46.9827 47.5513 47.0232 47.502 47.0436 47.4758C47.0507 47.4667 47.0553 47.4605 47.0576 47.4574C47.4328 46.8981 48.1953 46.7367 48.7713 47.0983Z" fill="black"/>
<path d="M28.0724 40.6211C25.8123 40.6211 25.227 42.4216 25.227 42.4216C25.227 42.4216 24.6417 40.6211 22.3817 40.6211C20.1217 40.6211 19.0386 43.0149 19.8093 44.9775C21.0903 48.2377 25.227 49.1369 25.227 49.1369C25.227 49.1369 29.3617 48.2377 30.6448 44.9775C31.4155 43.0149 30.3324 40.6211 28.0724 40.6211Z" fill="#FE896F"/>
<path d="M63.1593 40.6211C60.8993 40.6211 60.3139 42.4216 60.3139 42.4216C60.3139 42.4216 59.7286 40.6211 57.4686 40.6211C55.2086 40.6211 54.1255 43.0149 54.8962 44.9775C56.1772 48.2377 60.3139 49.1369 60.3139 49.1369C60.3139 49.1369 64.4486 48.2377 65.7317 44.9775C66.5024 43.0149 65.4193 40.6211 63.1593 40.6211Z" fill="#FE896F"/>
</g>
<defs>
<clipPath id="clip0_1688_5065">
<rect width="84" height="90" fill="white" transform="translate(0.75)"/>
</clipPath>
</defs>
</svg>
