<svg width="150" height="153" viewBox="0 0 150 153" fill="none" xmlns="http://www.w3.org/2000/svg">
<path d="M135.936 40.9038C136.583 39.5764 136.937 38.164 136.937 36.695C136.937 31.6049 132.736 27.1661 126.509 24.8121C125.621 19.8955 121.532 14.8585 115.437 11.9205C109.866 9.23384 103.968 8.95416 99.6322 10.7346C95.9473 5.11356 89.5971 1.40039 82.376 1.40039C76.1603 1.40039 70.5923 4.15432 66.8118 8.5011C64.7907 7.83917 62.635 7.47811 60.3943 7.47811C52.6069 7.47811 45.8319 11.7931 42.3205 18.161C39.5453 17.7646 36.3419 17.8778 33.0252 18.5964C24.0626 20.5433 17.6805 26.182 18.7707 31.1907C19.2804 33.5446 21.3511 35.3393 24.3316 36.38C20.9087 39.2047 18.8415 42.8542 18.8415 46.8363C18.8415 55.8025 29.2801 63.0695 42.1612 63.0695C48.9752 63.0695 55.1095 61.0342 59.3713 57.7882C60.0757 57.8661 60.7872 57.9086 61.5129 57.9086C63.3818 57.9086 65.1836 57.6396 66.8932 57.144C69.2012 62.3049 73.6081 66.4995 79.4133 68.3649C89.4165 71.579 100.068 66.7473 104.4 57.4696C107.943 59.3669 112.45 60.5068 117.356 60.5068C128.746 60.5068 137.982 54.3866 137.982 46.8363C137.982 44.709 137.249 42.6949 135.939 40.9002L135.936 40.9038Z" fill="white"/>
<path d="M40.0553 39.4701C39.2659 39.4701 38.5438 38.9321 38.335 38.1321C38.2996 38.0011 37.5244 34.8614 39.5668 32.15C41.057 30.1748 43.5596 29.0103 47.0179 28.674C47.3117 27.1236 48.0763 24.8015 50.0798 22.9361C52.462 20.7167 55.8708 19.7645 60.2105 20.1079C61.1839 20.1857 61.9131 21.0388 61.8352 22.0122C61.7574 22.9857 60.9007 23.7148 59.9309 23.637C56.6389 23.375 54.1469 24.0051 52.5222 25.4989C50.4161 27.4386 50.3771 30.3199 50.3771 30.3483C50.3736 31.304 49.609 32.0969 48.6533 32.1217C45.5879 32.1995 43.4322 32.9394 42.4163 34.2526C41.3898 35.5835 41.7508 37.2012 41.7685 37.2684C42.0128 38.2136 41.4429 39.1693 40.4942 39.4135C40.3456 39.4524 40.2004 39.4701 40.0553 39.4701Z" fill="#EDE4DD"/>
<path d="M116.694 37.3321C115.742 37.3321 114.956 36.5746 114.924 35.6154C114.888 34.4189 114.644 32.8296 113.678 32.0615C112.729 31.3075 111.391 31.5624 111.377 31.5659C110.425 31.7783 109.487 31.1765 109.274 30.2208C109.062 29.2651 109.671 28.32 110.627 28.1076C110.924 28.0404 113.593 27.5129 115.83 29.2509C117.49 30.5429 118.379 32.6491 118.464 35.5092C118.492 36.4862 117.724 37.3038 116.747 37.3321C116.729 37.3321 116.711 37.3321 116.694 37.3321Z" fill="#EDE4DD"/>
<path d="M52.0726 45.325C52.0726 45.325 43.9808 48.3797 35.2093 48.7726C26.4379 49.1655 18.9018 45.6648 18.9018 45.6648C18.9018 45.6648 18.477 48.7337 19.8009 51.3425H68.3766C68.3766 51.3425 62.3626 51.0274 58.3981 49.7213C54.4336 48.4116 52.0726 45.3285 52.0726 45.3285V45.325Z" fill="#E6E6E6"/>
<path d="M90.3084 45.2646C90.3084 45.2646 99.4232 51.3388 106.099 51.3388H75.7C75.7 51.3388 88.404 49.6221 90.3084 45.2646Z" fill="#E6E6E6"/>
<path d="M137.889 45.5759C133.762 51.5651 110.754 51.3422 110.754 51.3422H136.834C138.452 48.4608 137.893 45.5759 137.893 45.5759H137.889Z" fill="#E6E6E6"/>
<path d="M32.7242 133.591L70.4152 138.936C73.562 139.382 75.8876 141.924 75.8876 144.919V146.901C75.8876 150.242 73.0098 152.95 69.4559 152.95H17.5671C13.7831 152.95 11.0469 149.549 12.077 146.119C14.622 137.644 23.4713 132.278 32.7242 133.591Z" fill="#808080"/>
<path d="M128.997 133.591L91.3064 138.936C88.1596 139.382 85.834 141.924 85.834 144.919V146.901C85.834 150.242 88.7118 152.95 92.2657 152.95H144.154C147.938 152.95 150.675 149.549 149.645 146.119C147.1 137.644 138.25 132.278 128.997 133.591Z" fill="#808080"/>
<path d="M138.969 51.3424C140.774 51.3424 142.381 52.4857 142.979 54.1883C152.158 80.3256 166.639 142.331 79.9193 142.331C-6.80044 142.331 7.14608 76.2019 16.7104 53.9087C17.3794 52.3477 18.9157 51.3389 20.6147 51.3389H138.973L138.969 51.3424Z" fill="white"/>
<path opacity="0.5" d="M142.98 54.1882C142.382 52.4856 140.775 51.3423 138.969 51.3423H93.3741C93.3741 51.3423 122.626 97.8578 79.916 142.331C166.636 142.331 152.155 80.322 142.976 54.1882H142.98Z" fill="#E6E6E6"/>
<path d="M41.5029 74.6832C39.5489 74.6832 37.9631 73.0974 37.9631 71.1435C37.9631 68.5524 38.841 62.4181 38.9401 61.7278C39.2197 59.7916 41.0144 58.4536 42.9506 58.7332C44.8868 59.0129 46.2249 60.8075 45.9452 62.7437C45.5948 65.1614 45.039 69.5789 45.039 71.147C45.039 73.101 43.4533 74.6868 41.4993 74.6868L41.5029 74.6832Z" fill="black"/>
<path d="M63.5732 74.6832C61.6192 74.6832 60.0334 73.0974 60.0334 71.1435C60.0334 68.5524 60.9113 62.4181 61.0104 61.7278C61.2901 59.7916 63.0882 58.4536 65.0209 58.7332C66.9571 59.0129 68.2952 60.8075 68.0155 62.7437C67.6651 65.1614 67.1094 69.5789 67.1094 71.147C67.1094 73.101 65.5236 74.6868 63.5696 74.6868L63.5732 74.6832Z" fill="black"/>
<path d="M73.1267 82.0988C72.6843 82.0988 72.2383 81.9325 71.8949 81.5997C71.194 80.9201 71.1728 79.8086 71.8489 79.1042C72.2913 78.644 83.0026 67.8479 106.913 71.4903C107.88 71.6389 108.545 72.5416 108.397 73.5079C108.248 74.4743 107.345 75.1397 106.379 74.9911C84.4043 71.646 74.4895 81.4687 74.3904 81.5678C74.0435 81.9218 73.5833 82.0988 73.1232 82.0988H73.1267Z" fill="#FF896F"/>
<path d="M35.2977 82.1027C34.834 82.1027 34.3738 81.9222 34.0269 81.5647C33.9101 81.4479 23.9953 71.6464 2.03841 74.9879C1.06853 75.133 0.169438 74.4711 0.0207697 73.5048C-0.127899 72.5384 0.53757 71.6358 1.50391 71.4871C25.4183 67.8447 36.126 78.6409 36.5684 79.101C37.2481 79.8054 37.2268 80.924 36.5224 81.6036C36.1791 81.9328 35.7366 82.0992 35.2941 82.0992L35.2977 82.1027Z" fill="#FF896F"/>
</svg>
