<svg width="123" height="82" viewBox="0 0 123 82" fill="none" xmlns="http://www.w3.org/2000/svg">
<path d="M27.1156 66.462L57.7709 70.7521C60.3303 71.11 62.2218 73.1499 62.2218 75.5535V77.1445C62.2218 79.8265 59.8812 82 56.9907 82H14.7878C11.7102 82 9.48472 79.2697 10.3225 76.5166C12.3925 69.7151 19.5899 65.4079 27.1156 66.462Z" fill="#808080"/>
<path d="M105.418 66.462L74.7624 70.7521C72.203 71.11 70.3115 73.1499 70.3115 75.5535V77.1445C70.3115 79.8265 72.6521 82 75.5426 82H117.746C120.823 82 123.049 79.2697 122.211 76.5166C120.141 69.7151 112.943 65.4079 105.418 66.462Z" fill="#808080"/>
<path d="M113.528 0.446203C114.996 0.446203 116.303 1.36385 116.79 2.73042C124.255 23.7091 136.033 73.4766 65.5009 73.4766C-5.03115 73.4766 6.31202 20.3992 14.091 2.506C14.6351 1.25307 15.8846 0.443359 17.2665 0.443359H113.531L113.528 0.446203Z" fill="white"/>
<path opacity="0.5" d="M116.79 2.73002C116.303 1.36345 114.996 0.445801 113.528 0.445801H76.4439C76.4439 0.445801 100.236 37.7806 65.498 73.4762C136.03 73.4762 124.252 23.7058 116.787 2.73002H116.79Z" fill="#E6E6E6"/>
<path d="M34.2559 19.1802C32.6667 19.1802 31.377 17.9074 31.377 16.3391C31.377 14.2595 32.0909 9.33585 32.1716 8.78184C32.399 7.22776 33.8586 6.15384 35.4334 6.37828C37.0082 6.60273 38.0965 8.04315 37.869 9.59723C37.584 11.5377 37.132 15.0834 37.132 16.342C37.132 17.9103 35.8422 19.1831 34.2531 19.1831L34.2559 19.1802Z" fill="black"/>
<path d="M52.2061 19.1802C50.6169 19.1802 49.3271 17.9074 49.3271 16.3391C49.3271 14.2595 50.0411 9.33585 50.1217 8.78184C50.3492 7.22776 51.8117 6.15384 53.3836 6.37828C54.9584 6.60273 56.0467 8.04315 55.8192 9.59723C55.5342 11.5377 55.0822 15.0834 55.0822 16.342C55.0822 17.9103 53.7924 19.1831 52.2032 19.1831L52.2061 19.1802Z" fill="black"/>
<path d="M59.976 25.1323C59.6161 25.1323 59.2534 24.9988 58.9741 24.7317C58.4041 24.1862 58.3868 23.2941 58.9367 22.7287C59.2965 22.3594 68.0083 13.694 87.4558 16.6175C88.2418 16.7368 88.783 17.4613 88.6621 18.237C88.5412 19.0126 87.807 19.5467 87.0211 19.4274C69.1484 16.7425 61.0844 24.6266 61.0038 24.7061C60.7216 24.9902 60.3474 25.1323 59.9731 25.1323H59.976Z" fill="#FF896F"/>
<path d="M29.2088 25.1355C28.8316 25.1355 28.4574 24.9906 28.1752 24.7037C28.0802 24.6099 20.0162 16.7429 2.15791 19.4249C1.36907 19.5414 0.63781 19.0101 0.516893 18.2345C0.395976 17.4589 0.937223 16.7344 1.72318 16.6151C21.1735 13.6916 29.8825 22.3569 30.2423 22.7263C30.7951 23.2917 30.7778 24.1895 30.2049 24.7349C29.9256 24.9992 29.5658 25.1327 29.2059 25.1327L29.2088 25.1355Z" fill="#FF896F"/>
</svg>
