<svg width="97" height="230" viewBox="0 0 97 230" fill="none" xmlns="http://www.w3.org/2000/svg">
<path d="M97 53.8766C97 49.972 92.9347 46.6911 87.4394 45.7707C89.8241 44.2505 91.3085 42.1217 91.3085 39.7612C91.3085 37.0174 89.3031 34.5833 86.2057 33.0587C87.5244 31.7399 88.2961 30.1611 88.2961 28.4633C88.2961 24.3573 83.8036 20.9444 77.8789 20.2362C78.1274 19.9179 78.3454 19.5757 78.5241 19.2054C80.3966 15.3463 77.5498 10.1294 72.1679 7.55016C68.7369 5.90647 65.1054 5.73539 62.4351 6.82469C60.166 3.38572 56.2555 1.11401 51.8087 1.11401C49.0404 1.11401 46.4792 1.99757 44.3931 3.49183C42.5774 2.49782 40.4913 1.93042 38.2723 1.93042C32.4043 1.93042 27.4693 5.88481 26.011 11.2577C24.5854 11.1732 23.0247 11.2901 21.4204 11.6366C15.9012 12.8277 11.971 16.2775 12.6424 19.3418C12.904 20.5372 13.8282 21.4966 15.184 22.1528C12.8887 23.9134 11.4893 26.2436 11.4893 28.8011C11.4893 30.4903 12.0996 32.0798 13.1743 33.4723C8.04524 34.9882 4.44862 38.5073 4.44862 42.609C4.44862 44.1899 4.98484 45.6841 5.93522 47.0116C2.9402 48.3521 1.06122 50.4549 1.3228 52.5729C1.60835 54.8814 4.35489 56.5619 8.0409 56.9972C7.30413 58.5369 6.88997 60.2586 6.88997 62.0777C6.88997 66.6839 9.5384 70.6708 13.4032 72.6285C12.9389 73.6051 12.6838 74.6468 12.6838 75.7317C12.6838 81.2172 19.112 85.6632 27.0442 85.6632C31.2403 85.6632 35.0179 84.418 37.6423 82.4321C38.0761 82.4798 38.5142 82.5057 38.9611 82.5057C40.112 82.5057 41.2215 82.3411 42.2743 82.038C43.6956 85.1954 46.4094 87.7616 49.9842 88.9029C56.1443 90.8693 62.7033 87.9132 65.3713 82.2372C67.5533 83.398 70.3281 84.0953 73.3493 84.0953C80.3639 84.0953 86.0509 80.351 86.0509 75.7317C86.0509 74.82 85.8264 73.9451 85.4188 73.1244C86.949 72.5072 88.1653 71.4763 88.8476 70.0687C90.0486 67.5934 89.3053 64.5573 87.1975 62.0192C92.8148 61.1551 97 57.8396 97 53.8766Z" fill="white"/>
<path d="M24.6007 27.4801C24.1146 27.4801 23.6699 27.151 23.5413 26.6615C23.5195 26.5814 23.0422 24.6605 24.2999 23.0017C25.2176 21.7933 26.7587 21.0808 28.8883 20.8751C29.0693 19.9265 29.5401 18.5059 30.7738 17.3646C32.2408 16.0068 34.3422 15.4243 37.0124 15.6343C37.6118 15.682 38.0609 16.2039 38.0129 16.7994C37.9649 17.395 37.4374 17.8411 36.8402 17.7934C34.813 17.6332 33.2784 18.0186 32.2779 18.9325C30.9809 20.1193 30.957 21.8821 30.957 21.8994C30.9548 22.4841 30.4839 22.9692 29.8954 22.9844C28.0077 23.032 26.6802 23.4846 26.0546 24.2881C25.4225 25.1023 25.6448 26.092 25.6557 26.1331C25.8061 26.7113 25.4552 27.2961 24.871 27.4455C24.7794 27.4693 24.6901 27.4801 24.6007 27.4801Z" fill="#EDE4DD"/>
<path d="M17.5949 42.778C17.1 42.778 16.6532 42.4423 16.5377 41.9421C16.518 41.8555 16.0646 39.8133 17.3681 38.135C18.2095 37.0544 19.5327 36.4025 21.3158 36.1946C21.488 35.192 21.9588 33.65 23.2383 32.4763C24.5702 31.2571 26.4099 30.7395 28.7074 30.9431C29.3068 30.995 29.7493 31.5213 29.697 32.1168C29.6447 32.7123 29.115 33.152 28.5156 33.1C26.8633 32.9549 25.5903 33.2776 24.7293 34.0572C23.417 35.2483 23.3974 37.1864 23.3974 37.2059C23.3974 37.7906 22.9266 38.2736 22.3402 38.2909C20.7643 38.3364 19.6787 38.724 19.1076 39.443C18.4275 40.3006 18.663 41.4527 18.6651 41.4635C18.7894 42.0439 18.4188 42.6221 17.8346 42.7499C17.754 42.7672 17.6755 42.7759 17.597 42.7759L17.5949 42.778Z" fill="#EDE4DD"/>
<path d="M80.3051 52.1029C80.2245 52.1029 80.1416 52.0943 80.0588 52.0748C79.4746 51.9405 79.1106 51.3645 79.2392 50.7841C79.2479 50.7451 79.4681 49.6103 78.7967 48.7636C78.2278 48.0446 77.1401 47.657 75.5641 47.6115C74.9712 47.5942 74.5003 47.1091 74.5069 46.52C74.5069 46.507 74.4873 44.5667 73.175 43.3756C72.314 42.596 71.041 42.2733 69.3887 42.4184C68.7893 42.4704 68.2596 42.0308 68.2073 41.4352C68.155 40.8397 68.5975 40.3134 69.1969 40.2615C71.4944 40.0601 73.3342 40.5755 74.666 41.7969C75.9455 42.9706 76.4164 44.5125 76.5886 45.5152C78.3695 45.7231 79.6948 46.375 80.5362 47.4556C81.8418 49.1339 81.3863 51.1761 81.3667 51.2627C81.2511 51.7629 80.8021 52.1029 80.3051 52.1029Z" fill="#EDE4DD"/>
<path d="M78.7464 37.925H78.7377C78.1383 37.9207 77.6544 37.4356 77.6566 36.8379C77.6566 36.7945 77.6282 34.8715 76.3247 33.6891C75.4637 32.9095 74.1907 32.5868 72.5384 32.7319C71.939 32.7839 71.4093 32.3442 71.357 31.7487C71.3047 31.1532 71.7472 30.6269 72.3466 30.5749C74.6441 30.3735 76.4838 30.889 77.8157 32.1082C79.8363 33.9598 79.8385 36.7318 79.8363 36.8487C79.832 37.4442 79.3437 37.9228 78.7464 37.9228V37.925Z" fill="#EDE4DD"/>
<path d="M34.3858 77.1069C34.3858 77.1069 29.4028 78.9758 24.0013 79.2162C18.5998 79.4566 12.7928 77.1069 12.7928 77.1069C13.0152 78.4301 13.6124 79.6753 14.5127 80.7884H44.4258C44.4258 80.7884 40.7224 80.5957 38.281 79.7966C35.8397 78.9953 34.3858 77.1091 34.3858 77.1091V77.1069Z" fill="#E6E6E6"/>
<path d="M57.1274 77.1069C57.1274 77.1069 63.5447 80.7884 67.6579 80.7884H48.938C48.938 80.7884 57.2778 79.6407 57.1296 77.1069H57.1274Z" fill="#E6E6E6"/>
<path d="M86.0596 75.6538C80.8194 80.2882 67.6558 80.7884 67.6558 80.7884H83.7164C85.1899 79.4219 86.0596 77.4577 86.0596 75.6538Z" fill="#E6E6E6"/>
<path d="M85.5779 80.4572C86.6896 80.4572 87.6792 81.1567 88.0476 82.1984C93.6998 98.1891 102.617 136.124 49.2148 136.124C-4.18766 136.124 4.40066 95.6662 10.2904 82.0273C10.7024 81.0723 11.6484 80.4551 12.6947 80.4551H85.5801L85.5779 80.4572Z" fill="white"/>
<path opacity="0.5" d="M88.0454 82.1984C87.6771 81.1567 86.6874 80.4573 85.5757 80.4573H57.498C57.498 80.4573 75.5117 108.915 49.2104 136.124C102.613 136.124 93.6954 98.187 88.0433 82.1984H88.0454Z" fill="#E6E6E6"/>
<path opacity="0.6" d="M10.4344 120.393H88.4335C88.6471 120.027 88.852 119.659 89.046 119.286H9.78699C9.99407 119.659 10.2099 120.027 10.4344 120.393Z" fill="#CCCCCC"/>
<path d="M25.5576 94.7371C24.3543 94.7371 23.3778 93.7669 23.3778 92.5715C23.3778 90.9862 23.9184 87.2333 23.9794 86.811C24.1516 85.6264 25.2568 84.8056 26.4491 84.9789C27.6415 85.15 28.4654 86.2479 28.2932 87.4325C28.0774 88.9116 27.7352 91.6143 27.7352 92.5736C27.7352 93.769 26.7586 94.7392 25.5554 94.7392L25.5576 94.7371Z" fill="black"/>
<path d="M39.1485 94.7371C37.9453 94.7371 36.9688 93.7669 36.9688 92.5715C36.9688 90.9862 37.5093 87.2333 37.5704 86.811C37.7426 85.6264 38.8477 84.8056 40.0401 84.9789C41.2324 85.15 42.0564 86.2479 41.8842 87.4325C41.6684 88.9116 41.3261 91.6143 41.3261 92.5736C41.3261 93.769 40.3496 94.7392 39.1463 94.7392L39.1485 94.7371Z" fill="black"/>
<path d="M47.7935 99.2763C47.5211 99.2763 47.2464 99.1746 47.035 98.971C46.6034 98.5552 46.5903 97.8752 47.0066 97.4442C47.2791 97.1627 53.8751 90.5577 68.5995 92.7861C69.1946 92.877 69.6044 93.4292 69.5129 94.0205C69.4213 94.6117 68.8655 95.0188 68.2704 94.9278C54.7383 92.8813 48.6327 98.8909 48.5717 98.9515C48.3581 99.1681 48.0747 99.2763 47.7913 99.2763H47.7935Z" fill="#FF896F"/>
<path d="M21.7365 99.2782C21.4509 99.2782 21.1676 99.1678 20.954 98.9491C20.882 98.8776 14.7765 92.8811 1.25528 94.9254C0.658021 95.0163 0.104341 94.6092 0.0127897 94.018C-0.0787611 93.4268 0.331052 92.8746 0.926132 92.7836C15.6506 90.5552 22.2466 97.1603 22.519 97.4418C22.9376 97.8728 22.9245 98.5571 22.4907 98.9729C22.2793 99.1743 22.0068 99.2761 21.7343 99.2761L21.7365 99.2782Z" fill="#FF896F"/>
<path d="M87.81 120.393C88.9893 120.393 90.0399 121.125 90.4301 122.218C96.4289 138.995 105.891 178.797 49.217 178.797C-7.4573 178.797 1.65636 136.349 7.90579 122.041C8.34393 121.038 9.34662 120.391 10.4561 120.391H87.81V120.393Z" fill="#E6E6E6"/>
<path opacity="0.5" d="M64.3534 150.324C60.7502 165.925 49.1058 176.189 44.694 178.701C46.1544 178.764 47.6585 178.799 49.217 178.799C105.894 178.799 96.4311 138.997 90.4301 122.221C90.0399 121.127 88.9893 120.395 87.81 120.395H59.9001C59.9001 120.395 67.9566 134.72 64.3534 150.324Z" fill="#CCCCCC"/>
<path opacity="0.5" d="M90.5042 142.683H9.56234C9.08061 142.683 8.69043 142.296 8.69043 141.817C8.69043 141.338 9.08061 140.951 9.56234 140.951H90.5042C90.9859 140.951 91.3761 141.338 91.3761 141.817C91.3761 142.296 90.9859 142.683 90.5042 142.683Z" fill="#B3B3B3"/>
<path opacity="0.4" d="M90.7288 162.479H8.17615C8.74507 163.376 9.37503 164.25 10.0638 165.099H88.9174C89.5844 164.25 90.1861 163.376 90.7288 162.479Z" fill="#B3B3B3"/>
<path d="M19.8095 218.157L43.0198 221.427C44.9576 221.699 46.3897 223.254 46.3897 225.086V226.299C46.3897 228.344 44.6176 230 42.4291 230H10.4756C8.14546 230 6.46051 227.919 7.09483 225.821C8.66209 220.636 14.1115 217.353 19.8095 218.157Z" fill="#808080"/>
<path d="M79.0951 218.157L55.8848 221.427C53.947 221.699 52.5149 223.254 52.5149 225.086V226.299C52.5149 228.344 54.287 230 56.4755 230H88.4289C90.7591 230 92.4441 227.919 91.8098 225.821C90.2425 220.636 84.7931 217.353 79.0951 218.157Z" fill="#808080"/>
<path d="M87.8733 165.099C89.0525 165.099 90.1032 165.831 90.4934 166.925C96.4921 183.702 105.955 223.503 49.2802 223.503C-7.39407 223.503 1.71959 181.055 7.96903 166.747C8.40716 165.745 9.40988 165.097 10.5194 165.097H87.8733V165.099Z" fill="#E6E6E6"/>
<path opacity="0.5" d="M64.4165 195.028C60.8134 210.629 49.169 220.894 44.7571 223.406C46.2175 223.469 47.7216 223.503 49.2801 223.503C105.957 223.503 96.4942 183.702 90.4933 166.925C90.1031 165.831 89.0524 165.099 87.8732 165.099H59.9632C59.9632 165.099 68.0197 179.425 64.4165 195.028Z" fill="#CCCCCC"/>
<path opacity="0.5" d="M90.5696 187.39H9.62777C9.14604 187.39 8.75586 187.002 8.75586 186.524C8.75586 186.045 9.14604 185.657 9.62777 185.657H90.5696C91.0513 185.657 91.4415 186.045 91.4415 186.524C91.4415 187.002 91.0513 187.39 90.5696 187.39Z" fill="#B3B3B3"/>
</svg>
