<svg width="151" height="359" viewBox="0 0 151 359" fill="none" xmlns="http://www.w3.org/2000/svg">
<path d="M150.432 84.0936C150.432 78.0161 144.145 72.9093 135.647 71.4767C139.335 69.1104 141.63 65.7969 141.63 62.1227C141.63 57.8519 138.529 54.0632 133.739 51.6901C135.779 49.6373 136.972 47.18 136.972 44.5373C136.972 38.1463 130.025 32.8339 120.863 31.7316C121.247 31.2361 121.584 30.7035 121.861 30.1271C124.756 24.1204 120.354 16.0001 112.031 11.9855C106.726 9.42709 101.11 9.16081 96.9808 10.8563C93.4718 5.50349 87.4246 1.96753 80.5481 1.96753C76.2672 1.96753 72.3066 3.34281 69.0807 5.66866C66.2728 4.12146 63.047 3.23828 59.6155 3.23828C50.5413 3.23828 42.9098 9.39338 40.6548 17.7563C38.4503 17.6249 36.0368 17.8069 33.5559 18.3462C25.021 20.2002 18.9435 25.5698 19.9817 30.3395C20.3862 32.2002 21.8154 33.6934 23.9121 34.7148C20.3626 37.4552 18.1985 41.0822 18.1985 45.0631C18.1985 47.6924 19.1424 50.1665 20.8042 52.3339C12.8727 54.6935 7.31089 60.1711 7.31089 66.5553C7.31089 69.016 8.14009 71.3419 9.60975 73.4082C4.97828 75.4947 2.07264 78.7677 2.47714 82.0644C2.91871 85.6576 7.16594 88.2734 12.866 88.9509C11.7266 91.3475 11.0862 94.0273 11.0862 96.8588C11.0862 104.028 15.1817 110.234 21.1581 113.281C20.4401 114.802 20.0457 116.423 20.0457 118.112C20.0457 126.65 29.9862 133.57 42.2525 133.57C48.7413 133.57 54.5829 131.632 58.6413 128.541C59.3121 128.615 59.9897 128.656 60.6807 128.656C62.4605 128.656 64.1762 128.399 65.8043 127.927C68.002 132.842 72.1987 136.836 77.7268 138.613C87.2526 141.674 97.3954 137.072 101.521 128.238C104.895 130.044 109.186 131.13 113.858 131.13C124.706 131.13 133.5 125.302 133.5 118.112C133.5 116.693 133.153 115.331 132.522 114.053C134.889 113.093 136.77 111.488 137.825 109.297C139.682 105.444 138.533 100.718 135.273 96.7678C143.96 95.4228 150.432 90.2622 150.432 84.0936Z" fill="white"/>
<path d="M38.4738 43.007C37.7221 43.007 37.0345 42.4946 36.8356 41.7328C36.8019 41.6081 36.0637 38.6182 38.0087 36.0362C39.4278 34.1553 41.8109 33.0463 45.1042 32.7261C45.384 31.2497 46.112 29.0384 48.0199 27.262C50.2885 25.1485 53.5379 24.2417 57.6672 24.5687C58.5941 24.6429 59.2885 25.4552 59.2143 26.3822C59.1402 27.3092 58.3245 28.0035 57.4009 27.9294C54.266 27.68 51.893 28.28 50.3458 29.7024C48.3401 31.5496 48.3031 34.2935 48.3031 34.3204C48.2997 35.2306 47.5716 35.9856 46.6615 36.0092C43.7424 36.0834 41.6896 36.7879 40.7222 38.0384C39.7446 39.3059 40.0884 40.8463 40.1053 40.9103C40.3379 41.8103 39.7952 42.7205 38.8918 42.9531C38.7502 42.9901 38.612 43.007 38.4738 43.007Z" fill="#EDE4DD"/>
<path d="M27.6401 66.8184C26.8749 66.8184 26.1839 66.2959 26.0053 65.5172C25.9749 65.3824 25.2738 62.2038 27.2895 59.5914C28.5907 57.9094 30.6368 56.8948 33.3941 56.5712C33.6604 55.0105 34.3884 52.6105 36.3671 50.7835C38.4267 48.8858 41.2716 48.0801 44.8244 48.397C45.7514 48.4779 46.4357 49.297 46.3548 50.2239C46.2739 51.1509 45.4548 51.8352 44.5278 51.7543C41.9727 51.5285 40.0042 52.0307 38.6727 53.2442C36.6435 55.0981 36.6132 58.115 36.6132 58.1453C36.6132 59.0554 35.8851 59.8071 34.9783 59.8341C32.5413 59.9049 30.8626 60.5083 29.9795 61.6274C28.9278 62.9622 29.2918 64.7555 29.2952 64.7723C29.4873 65.6757 28.9143 66.5757 28.0109 66.7746C27.8862 66.8016 27.7648 66.815 27.6435 66.815L27.6401 66.8184Z" fill="#EDE4DD"/>
<path d="M124.615 81.3331C124.49 81.3331 124.362 81.3196 124.234 81.2893C123.33 81.0803 122.767 80.1837 122.966 79.2803C122.98 79.2196 123.32 77.4533 122.282 76.1353C121.402 75.0162 119.72 74.4128 117.283 74.3421C116.366 74.3151 115.638 73.56 115.648 72.6432C115.648 72.6229 115.618 69.6027 113.589 67.7488C112.257 66.5353 110.289 66.0331 107.734 66.2589C106.807 66.3398 105.988 65.6555 105.907 64.7285C105.826 63.8016 106.51 62.9825 107.437 62.9016C110.99 62.5881 113.835 63.3903 115.894 65.2915C117.873 67.1184 118.601 69.5184 118.867 71.0791C121.621 71.4027 123.671 72.4173 124.972 74.0994C126.991 76.7117 126.286 79.8904 126.256 80.0252C126.077 80.8039 125.383 81.3331 124.615 81.3331Z" fill="#EDE4DD"/>
<path d="M122.204 59.2644H122.191C121.264 59.2577 120.516 58.5026 120.519 57.5723C120.519 57.5049 120.475 54.5116 118.459 52.6711C117.128 51.4576 115.159 50.9554 112.604 51.1813C111.677 51.2622 110.858 50.5779 110.777 49.6509C110.696 48.7239 111.381 47.9048 112.308 47.8239C115.861 47.5104 118.705 48.3127 120.765 50.2105C123.89 53.0925 123.893 57.4071 123.89 57.5892C123.883 58.5161 123.128 59.2611 122.204 59.2611V59.2644Z" fill="#EDE4DD"/>
<path d="M53.6055 120.252C53.6055 120.252 45.8998 123.161 37.547 123.535C29.1942 123.91 20.2144 120.252 20.2144 120.252C20.5582 122.312 21.4818 124.25 22.8739 125.983H69.1313C69.1313 125.983 63.4044 125.683 59.6291 124.439C55.8538 123.192 53.6055 120.256 53.6055 120.256V120.252Z" fill="#E6E6E6"/>
<path d="M88.7729 120.252C88.7729 120.252 98.6966 125.983 105.057 125.983H76.1089C76.1089 125.983 89.0055 124.196 88.7763 120.252H88.7729Z" fill="#E6E6E6"/>
<path d="M133.514 117.99C125.41 125.204 105.054 125.982 105.054 125.982H129.89C132.169 123.855 133.514 120.798 133.514 117.99Z" fill="#E6E6E6"/>
<path d="M132.769 125.467C134.488 125.467 136.018 126.556 136.588 128.177C145.328 153.067 159.118 212.113 76.537 212.113C-6.04417 212.113 7.23674 149.14 16.3446 127.911C16.9817 126.424 18.4446 125.464 20.0626 125.464H132.772L132.769 125.467Z" fill="white"/>
<path opacity="0.5" d="M136.584 128.177C136.015 126.556 134.484 125.467 132.765 125.467H89.346C89.346 125.467 117.202 169.762 76.5303 212.113C159.111 212.113 145.321 153.063 136.581 128.177H136.584Z" fill="#E6E6E6"/>
<path opacity="0.6" d="M16.5672 187.628H137.184C137.515 187.058 137.832 186.485 138.132 185.905H15.566C15.8863 186.485 16.22 187.058 16.5672 187.628Z" fill="#CCCCCC"/>
<path d="M39.9537 147.694C38.093 147.694 36.5829 146.184 36.5829 144.323C36.5829 141.855 37.4188 136.014 37.5132 135.357C37.7795 133.513 39.4885 132.235 41.3323 132.505C43.1762 132.771 44.4503 134.48 44.184 136.324C43.8503 138.626 43.3211 142.833 43.3211 144.326C43.3211 146.187 41.811 147.697 39.9503 147.697L39.9537 147.694Z" fill="black"/>
<path d="M60.9706 147.694C59.11 147.694 57.5999 146.184 57.5999 144.323C57.5999 141.855 58.4358 136.014 58.5302 135.357C58.7965 133.513 60.5055 132.235 62.3493 132.505C64.1931 132.771 65.4673 134.48 65.201 136.324C64.8673 138.626 64.3381 142.833 64.3381 144.326C64.3381 146.187 62.828 147.697 60.9673 147.697L60.9706 147.694Z" fill="black"/>
<path d="M74.3392 154.759C73.9178 154.759 73.4931 154.601 73.1661 154.284C72.4987 153.637 72.4785 152.578 73.1223 151.907C73.5437 151.469 83.7437 141.188 106.513 144.657C107.434 144.798 108.067 145.658 107.926 146.578C107.784 147.498 106.925 148.132 106.004 147.991C85.0785 144.805 75.6369 154.159 75.5425 154.254C75.2122 154.591 74.774 154.759 74.3358 154.759H74.3392Z" fill="#FF896F"/>
<path d="M34.0448 154.762C33.6032 154.762 33.165 154.59 32.8347 154.25C32.7234 154.139 23.2818 144.805 2.3728 147.987C1.4492 148.129 0.592992 147.495 0.451419 146.575C0.309845 145.654 0.943576 144.795 1.8638 144.653C24.6335 141.185 34.8335 151.466 35.2549 151.904C35.9021 152.575 35.8819 153.64 35.2111 154.287C34.8841 154.6 34.4628 154.759 34.0414 154.759L34.0448 154.762Z" fill="#FF896F"/>
<path d="M136.22 187.628C138.044 187.628 139.669 188.767 140.272 190.469C149.548 216.583 164.181 278.535 76.5404 278.535C-11.1003 278.535 2.99302 212.464 12.6571 190.193C13.3346 188.632 14.8852 187.624 16.6009 187.624H136.22V187.628Z" fill="#E6E6E6"/>
<path opacity="0.5" d="M99.9473 234.215C94.3754 258.498 76.3686 274.476 69.5461 278.386C71.8046 278.484 74.1304 278.538 76.5405 278.538C164.185 278.538 149.552 216.586 140.272 190.472C139.669 188.77 138.044 187.631 136.22 187.631H93.0608C93.0608 187.631 105.519 209.929 99.9473 234.215Z" fill="#CCCCCC"/>
<path opacity="0.5" d="M140.387 222.323H15.2188C14.4739 222.323 13.8705 221.72 13.8705 220.975C13.8705 220.23 14.4739 219.626 15.2188 219.626H140.387C141.131 219.626 141.735 220.23 141.735 220.975C141.735 221.72 141.131 222.323 140.387 222.323Z" fill="#B3B3B3"/>
<path opacity="0.4" d="M140.734 253.136H13.0751C13.9549 254.531 14.929 255.893 15.9942 257.214H137.933C138.964 255.893 139.895 254.531 140.734 253.136Z" fill="#B3B3B3"/>
<path d="M31.0649 339.799L66.9571 344.889C69.9538 345.314 72.1684 347.734 72.1684 350.585V352.473C72.1684 355.655 69.4279 358.234 66.0437 358.234H16.6311C13.0278 358.234 10.4222 354.994 11.4031 351.728C13.8267 343.658 22.2537 338.548 31.0649 339.799Z" fill="#808080"/>
<path d="M122.744 339.799L86.8515 344.889C83.8549 345.314 81.6403 347.734 81.6403 350.585V352.473C81.6403 355.655 84.3807 358.234 87.765 358.234H137.177C140.781 358.234 143.386 354.994 142.406 351.728C139.982 343.658 131.555 338.548 122.744 339.799Z" fill="#808080"/>
<path d="M136.318 257.214C138.142 257.214 139.766 258.354 140.37 260.056C149.646 286.169 164.279 348.121 76.6382 348.121C-11.0025 348.121 3.0908 282.05 12.7549 259.779C13.4324 258.219 14.983 257.211 16.6987 257.211H136.318V257.214Z" fill="#E6E6E6"/>
<path opacity="0.5" d="M100.045 303.799C94.4729 328.082 76.466 344.059 69.6436 347.97C71.902 348.067 74.2278 348.121 76.638 348.121C164.282 348.121 149.649 286.169 140.37 260.056C139.766 258.354 138.142 257.214 136.318 257.214H93.1582C93.1582 257.214 105.617 279.512 100.045 303.799Z" fill="#CCCCCC"/>
<path opacity="0.5" d="M140.488 291.91H15.32C14.5751 291.91 13.9717 291.307 13.9717 290.562C13.9717 289.817 14.5751 289.213 15.32 289.213H140.488C141.233 289.213 141.836 289.817 141.836 290.562C141.836 291.307 141.233 291.91 140.488 291.91Z" fill="#B3B3B3"/>
</svg>
