<svg width="151" height="50" viewBox="0 0 151 50" fill="none" xmlns="http://www.w3.org/2000/svg">
<g clip-path="url(#clip0_1591_5629)">
<path d="M146.542 26.9482L138.517 27.9718L130.649 29.9564L122.538 30.7252L114.568 31.8929L106.144 32.7386L97.6634 31.7199L89.178 32.013L80.6926 32.753L72.2072 32.9356L63.7218 32.5848L59.7953 36.3234H59.5322L63.7218 40.3454L72.6171 39.8456L81.5123 40.677L90.4126 39.6438L99.3079 40.331L108.208 39.6678L117.184 39.5189L124.061 43.1373L131.737 42.8249L139.099 39.4804L145.666 34.6848L146.542 26.9482Z" fill="#CBD0D5"/>
<path d="M69.2137 29.0315L74.9369 24.1094L77.7528 17.306L72.9521 20.3946L71.6676 17.7091L77.5288 14.9614L77.1331 12.3125L70.9674 15.9559L69.8664 12.96L76.008 9.98629L75.1224 9.48281L69.0228 10.0792L67.752 7.88843L73.5272 6.97837L66.8897 3.34663L59.3965 5.00246L52.6662 10.1706L50.416 18.0118L41.8092 22.2725L32.3335 24.6146L23.3154 28.1962L14.557 32.4787L5.35646 35.3592L9.17875 44.865L18.1553 41.2061L26.9694 37.1311L36.0741 33.7145L44.9001 29.6667L53.6398 25.7722L60.5883 30.2242L69.2137 29.0315Z" fill="#CBD0D5"/>
</g>
<defs>
<clipPath id="clip0_1591_5629">
<rect width="150" height="50" fill="white" transform="translate(0.5)"/>
</clipPath>
</defs>
</svg>
