<svg width="151" height="257" viewBox="0 0 151 257" fill="none" xmlns="http://www.w3.org/2000/svg">
<path d="M136.934 72.3351C136.934 68.7874 134.835 65.5666 131.418 63.1854C131.47 63.089 131.525 62.9927 131.573 62.8929C133.517 58.86 132.237 53.8945 128.717 49.7997C132.981 48.1617 135.73 45.199 135.149 42.5149C134.505 39.5453 130.001 37.9556 124.788 38.7057C126.532 32.24 122.338 24.6146 114.623 20.8948C110.638 18.9747 106.423 18.4379 102.73 19.1089C101.911 8.78574 93.2813 0.661377 82.7482 0.661377C76.6162 0.661377 71.1312 3.4177 67.4527 7.75343C65.3743 7.02392 63.1411 6.62475 60.8149 6.62475C49.7416 6.62475 40.7639 15.6025 40.7639 26.6758C40.7639 27.5016 40.8189 28.3137 40.9153 29.112C38.8128 29.0363 36.5417 29.2325 34.2087 29.7383C25.4959 31.6309 19.2917 37.1125 20.3515 41.9816C20.9124 44.5624 23.4003 46.4549 26.9136 47.3806C26.862 47.9621 26.831 48.5505 26.831 49.1458C26.831 51.8712 27.3782 54.4692 28.3623 56.84C22.9082 59.4036 19.5498 63.4365 20.3515 67.1219C20.847 69.4102 22.8601 71.1548 25.7574 72.1665C22.4299 74.9125 20.4204 78.4602 20.4204 82.3314C20.4204 91.0476 30.568 98.1121 43.09 98.1121C49.7141 98.1121 55.6774 96.1335 59.8204 92.978C60.5052 93.0537 61.1969 93.095 61.9023 93.095C63.7191 93.095 65.4706 92.8335 67.1327 92.3518C69.3762 97.3688 73.6604 101.446 79.3037 103.26C89.0281 106.384 99.3822 101.687 103.594 92.6683C107.039 94.5127 111.419 95.6208 116.188 95.6208C127.262 95.6208 136.239 89.6712 136.239 82.3314C136.239 80.776 135.833 79.2861 135.094 77.8993C136.274 76.2063 136.938 74.3206 136.938 72.3317L136.934 72.3351ZM104.32 61.981C104.317 61.9431 104.31 61.9053 104.306 61.8674C104.33 61.8949 104.358 61.9191 104.382 61.9466C104.361 61.9569 104.341 61.9672 104.32 61.9776V61.981Z" fill="white"/>
<path d="M43.7989 50.5499C43.0316 50.5499 42.3296 50.0268 42.1265 49.2492C42.0921 49.1218 41.3386 46.0696 43.324 43.4338C44.7727 41.5137 47.2055 40.3816 50.5675 40.0547C50.8531 38.5475 51.5963 36.2901 53.544 34.4767C55.8598 32.3192 59.1735 31.3935 63.3923 31.7273C64.3386 31.803 65.0474 32.6323 64.9717 33.5786C64.896 34.5249 64.0633 35.2337 63.1204 35.158C59.9202 34.9034 57.4977 35.5159 55.9183 36.968C53.8709 38.8537 53.833 41.6548 53.833 41.6823C53.8296 42.6114 53.0863 43.3822 52.1572 43.4063C49.1773 43.482 47.0817 44.2012 46.0941 45.4778C45.0962 46.7716 45.4472 48.3441 45.4644 48.4095C45.7018 49.3283 45.1478 50.2574 44.2256 50.4948C44.0811 50.5327 43.94 50.5499 43.7989 50.5499Z" fill="#EDE4DD"/>
<path d="M119.908 63.7738C119.857 63.7738 119.801 63.7738 119.75 63.767C118.804 63.6809 118.105 62.8448 118.195 61.8985C118.356 60.116 118.016 58.743 117.183 57.8242C115.841 56.348 113.553 56.3171 113.528 56.3171C112.603 56.3137 111.835 55.5738 111.808 54.6482C111.774 53.4851 111.536 51.9401 110.597 51.1934C109.678 50.4604 108.374 50.7082 108.36 50.7116C107.434 50.9181 106.522 50.3331 106.316 49.404C106.11 48.4749 106.701 47.5562 107.63 47.3497C107.92 47.2843 110.511 46.7681 112.689 48.4611C114 49.4797 114.815 51.0213 115.118 53.0515C116.429 53.3061 118.287 53.9359 119.705 55.4775C121.236 57.1429 121.883 59.4071 121.625 62.2116C121.543 63.1063 120.793 63.7738 119.915 63.7773L119.908 63.7738Z" fill="#EDE4DD"/>
<path d="M54.6624 84.176C54.6624 84.176 46.7962 87.1457 38.2692 87.5276C29.7423 87.9096 20.5753 84.176 20.5753 84.176C20.9263 86.2785 21.8691 88.2571 23.2903 90.0258H70.5119C70.5119 90.0258 64.6656 89.7195 60.8116 88.4498C56.9576 87.1766 54.6624 84.1795 54.6624 84.1795V84.176Z" fill="#E6E6E6"/>
<path d="M90.5627 84.176C90.5627 84.176 100.693 90.0258 107.186 90.0258H77.6346C77.6346 90.0258 90.8001 88.2021 90.5661 84.176H90.5627Z" fill="#E6E6E6"/>
<path d="M136.236 81.8669C127.964 89.2308 107.183 90.0257 107.183 90.0257H132.537C134.863 87.8544 136.236 84.7333 136.236 81.8669Z" fill="#E6E6E6"/>
<path d="M135.74 89.4993C137.495 89.4993 139.058 90.6108 139.639 92.2659C148.562 117.675 162.639 177.952 78.3368 177.952C-5.9656 177.952 7.59215 113.666 16.8899 91.9941C17.5402 90.4766 19.0336 89.4958 20.6854 89.4958H135.744L135.74 89.4993Z" fill="white"/>
<path opacity="0.5" d="M139.639 92.2656C139.058 90.6105 137.495 89.499 135.74 89.499H91.4163C91.4163 89.499 119.853 134.718 78.3334 177.951C162.636 177.951 148.558 117.671 139.636 92.2656H139.639Z" fill="#E6E6E6"/>
<path opacity="0.6" d="M17.1202 152.956H140.252C140.589 152.374 140.912 151.789 141.218 151.197H16.0983C16.4252 151.789 16.7658 152.374 17.1202 152.956Z" fill="#CCCCCC"/>
<path d="M40.9911 112.19C39.0916 112.19 37.55 110.648 37.55 108.748C37.55 106.23 38.4034 100.266 38.4998 99.5953C38.7716 97.713 40.5162 96.4089 42.3985 96.6841C44.2808 96.956 45.5815 98.7006 45.3096 100.583C44.969 102.933 44.4287 107.228 44.4287 108.752C44.4287 110.651 42.8871 112.193 40.9877 112.193L40.9911 112.19Z" fill="black"/>
<path d="M62.4459 112.19C60.5465 112.19 59.0049 110.648 59.0049 108.748C59.0049 106.23 59.8583 100.266 59.9546 99.5953C60.2265 97.713 61.9711 96.4089 63.8533 96.6841C65.7356 96.956 67.0363 98.7006 66.7645 100.583C66.4238 102.933 65.8835 107.228 65.8835 108.752C65.8835 110.651 64.342 112.193 62.4425 112.193L62.4459 112.19Z" fill="black"/>
<path d="M71.7333 119.399C71.3032 119.399 70.8696 119.237 70.5359 118.913C69.8545 118.253 69.8339 117.172 70.4911 116.488C70.9213 116.04 81.3339 105.545 104.578 109.086C105.518 109.23 106.165 110.108 106.02 111.047C105.875 111.987 104.998 112.634 104.059 112.489C82.6965 109.237 73.0582 118.786 72.9618 118.882C72.6246 119.227 72.1772 119.399 71.7299 119.399H71.7333Z" fill="#FF896F"/>
<path d="M34.9588 119.402C34.508 119.402 34.0606 119.227 33.7234 118.879C33.5858 118.741 23.9405 109.241 2.62662 112.489C1.68377 112.634 0.809735 111.987 0.66521 111.047C0.520686 110.108 1.16761 109.23 2.10701 109.086C25.3548 105.545 35.764 116.04 36.1941 116.488C36.8548 117.172 36.8341 118.26 36.1494 118.92C35.8156 119.24 35.3855 119.402 34.9553 119.402H34.9588Z" fill="#FF896F"/>
<path d="M32.8356 237.262L69.476 242.458C72.5351 242.891 74.7959 245.362 74.7959 248.273V250.2C74.7959 253.448 71.9983 256.081 68.5435 256.081H18.1011C14.4226 256.081 11.7626 252.774 12.764 249.439C15.2381 241.202 23.8407 235.985 32.8356 237.262Z" fill="#808080"/>
<path d="M126.425 237.262L89.7851 242.458C86.726 242.891 84.4652 245.362 84.4652 248.273V250.2C84.4652 253.448 87.2628 256.081 90.7176 256.081H141.16C144.839 256.081 147.498 252.774 146.497 249.439C144.023 241.202 135.42 235.985 126.425 237.262Z" fill="#808080"/>
<path d="M139.264 152.956C141.126 152.956 142.784 154.119 143.4 155.856C152.87 182.514 167.808 245.757 78.3402 245.757C-11.1272 245.757 3.2598 178.309 13.1253 155.574C13.817 153.981 15.3998 152.952 17.1513 152.952H139.264V152.956Z" fill="#E6E6E6"/>
<path opacity="0.5" d="M102.235 200.511C96.5469 225.301 78.1648 241.611 71.2001 245.603C73.5056 245.703 75.8799 245.758 78.3403 245.758C167.811 245.758 152.874 182.514 143.4 155.857C142.784 154.119 141.126 152.956 139.264 152.956H95.2049C95.2049 152.956 107.923 175.718 102.235 200.511Z" fill="#CCCCCC"/>
<path opacity="0.5" d="M143.521 188.374H15.744C14.9835 188.374 14.3676 187.758 14.3676 186.998C14.3676 186.238 14.9835 185.622 15.744 185.622H143.521C144.281 185.622 144.897 186.238 144.897 186.998C144.897 187.758 144.281 188.374 143.521 188.374Z" fill="#B3B3B3"/>
</svg>
