<svg width="187" height="162" viewBox="0 0 187 162" fill="none" xmlns="http://www.w3.org/2000/svg">
<path d="M135.497 42.2182C136.189 40.7996 136.567 39.2902 136.567 37.7202C136.567 32.2803 132.079 27.5364 125.428 25.0207C124.479 19.7661 120.112 14.3829 113.6 11.2431C107.649 8.37176 101.35 8.07291 96.7178 9.97575C92.7779 3.96836 85.9946 0 78.2812 0C71.6415 0 65.6939 2.94317 61.6557 7.58869C59.4966 6.88127 57.194 6.4954 54.8005 6.4954C46.4821 6.4954 39.2451 11.1069 35.4942 17.9125C32.5298 17.4888 29.1079 17.6098 25.565 18.3778C15.9913 20.4584 9.17395 26.4847 10.3385 31.8377C10.883 34.3534 13.0949 36.2713 16.2786 37.3835C12.6223 40.4024 10.4141 44.3026 10.4141 48.5585C10.4141 58.1408 21.5646 65.9073 35.3241 65.9073C42.6027 65.9073 49.1553 63.7321 53.7078 60.2631C54.4602 60.3463 55.2202 60.3917 55.9953 60.3917C57.9918 60.3917 59.9164 60.1042 61.7426 59.5746C64.2079 65.0902 68.9154 69.573 75.1164 71.5667C85.8018 75.0016 97.1791 69.8378 101.807 59.9226C105.592 61.9503 110.405 63.1684 115.646 63.1684C127.814 63.1684 137.679 56.6276 137.679 48.5585C137.679 46.2849 136.896 44.1324 135.497 42.2144V42.2182Z" fill="white"/>
<path d="M33.0746 40.6859C32.2314 40.6859 31.46 40.1109 31.237 39.2559C31.1991 39.116 30.3711 35.7604 32.5528 32.8627C34.1446 30.7518 36.8179 29.5072 40.512 29.1478C40.8258 27.4908 41.6425 25.0092 43.7827 23.0155C46.3273 20.6436 49.9685 19.626 54.6042 19.9929C55.644 20.0762 56.4229 20.9879 56.3397 22.0282C56.2565 23.0685 55.3415 23.844 54.3055 23.7646C50.789 23.4884 48.1271 24.158 46.3916 25.7544C44.1419 27.8275 44.1003 30.9069 44.1003 30.9371C44.0965 31.9585 43.2798 32.8059 42.2589 32.8324C38.9844 32.9156 36.6817 33.7063 35.5966 35.1098C34.5 36.5322 34.8857 38.261 34.9046 38.3329C35.1655 39.3429 34.5568 40.3643 33.5434 40.6254C33.3846 40.667 33.2296 40.6859 33.0746 40.6859Z" fill="#EDE4DD"/>
<path d="M114.943 38.3968C113.926 38.3968 113.086 37.5873 113.052 36.5621C113.015 35.2834 112.754 33.5849 111.722 32.7639C110.708 31.9582 109.279 32.2305 109.264 32.2343C108.247 32.4613 107.245 31.8182 107.018 30.7968C106.791 29.7754 107.441 28.7653 108.462 28.5383C108.78 28.4665 111.631 27.899 114.02 29.7602C115.794 31.141 116.743 33.3919 116.834 36.4486C116.864 37.4927 116.043 38.3666 115 38.3968C114.981 38.3968 114.962 38.3968 114.943 38.3968Z" fill="#EDE4DD"/>
<path d="M45.9112 46.9424C45.9112 46.9424 37.2676 50.2071 27.898 50.627C18.5285 51.0469 10.4785 47.3056 10.4785 47.3056C10.4785 47.3056 10.0248 50.5854 11.4389 53.3735H63.327C63.327 53.3735 56.9029 53.0368 52.668 51.6409C48.4332 50.2412 45.9112 46.9462 45.9112 46.9462V46.9424Z" fill="#E6E6E6"/>
<path d="M86.7579 46.8779C86.7579 46.8779 96.4943 53.3695 103.625 53.3695H71.1533C71.1533 53.3695 84.7237 51.5348 86.7579 46.8779Z" fill="#E6E6E6"/>
<path d="M137.585 47.2119C133.176 53.6127 108.599 53.3744 108.599 53.3744H136.458C138.186 50.2951 137.588 47.2119 137.588 47.2119H137.585Z" fill="#E6E6E6"/>
<path d="M25.2431 141.276L65.5043 146.988C68.8657 147.465 71.3499 150.181 71.3499 153.382V155.5C71.3499 159.071 68.2759 161.965 64.4796 161.965H9.05623C5.01423 161.965 2.09144 158.33 3.19174 154.664C5.91035 145.608 15.3631 139.873 25.2469 141.276H25.2431Z" fill="#808080"/>
<path d="M128.081 141.276L87.8202 146.988C84.4588 147.465 81.9746 150.181 81.9746 153.382V155.5C81.9746 159.071 85.0486 161.965 88.8449 161.965H144.272C148.314 161.965 151.237 158.33 150.137 154.664C147.418 145.608 137.965 139.873 128.081 141.276Z" fill="#808080"/>
<path d="M138.733 53.3691C140.662 53.3691 142.378 54.591 143.017 56.4107C152.822 84.3443 168.29 150.611 75.6571 150.611C-16.9761 150.611 -2.07859 79.9409 8.13795 56.1156C8.85257 54.4473 10.4936 53.3691 12.3085 53.3691H138.737H138.733Z" fill="white"/>
<path d="M104.157 85.5558C109.177 85.5558 113.247 82.7257 113.247 79.2345C113.247 75.7433 109.177 72.9131 104.157 72.9131C99.137 72.9131 95.0674 75.7433 95.0674 79.2345C95.0674 82.7257 99.137 85.5558 104.157 85.5558Z" fill="#FF896F"/>
<path d="M46.9413 85.5558C51.9615 85.5558 56.0311 82.7257 56.0311 79.2345C56.0311 75.7433 51.9615 72.9131 46.9413 72.9131C41.9212 72.9131 37.8516 75.7433 37.8516 79.2345C37.8516 82.7257 41.9212 85.5558 46.9413 85.5558Z" fill="#FF896F"/>
<path d="M186.5 0H143.127V136.105H186.5V0Z" fill="#FF896F"/>
<path d="M159.893 0H149.358V136.105H159.893V0Z" fill="#FF4A22"/>
<path d="M180.269 0H169.735V136.105H180.269V0Z" fill="#FF4A22"/>
<path d="M171.383 158.473L186.5 136.104H143.127L158.244 158.473C161.39 163.13 168.241 163.13 171.387 158.473H171.383Z" fill="#FFEDE9"/>
<path d="M171.382 158.472L175.277 152.707H154.345L158.239 158.472C161.385 163.129 168.236 163.129 171.382 158.472Z" fill="#FF4A22"/>
<path d="M75.1338 91.9709C66.581 91.9709 62.728 87.7226 62.5692 87.541C61.8773 86.7579 61.9529 85.5625 62.7356 84.8702C63.5145 84.1817 64.698 84.2536 65.3937 85.0215C65.5412 85.1804 68.4299 88.1879 75.1376 88.1879C81.8453 88.1879 85.9478 84.8967 85.9856 84.8626C86.7721 84.1855 87.9669 84.2649 88.6475 85.048C89.3319 85.8311 89.2562 87.0189 88.4773 87.7074C88.2807 87.8815 83.5506 91.9709 75.1338 91.9709Z" fill="black"/>
<path d="M90.851 90.0762C90.0608 90.0762 89.3235 89.5731 89.0588 88.7824C87.9925 85.582 84.926 84.7913 84.7975 84.7611C83.7879 84.5114 83.1641 83.4976 83.4023 82.4837C83.6405 81.4699 84.6462 80.8419 85.6558 81.0765C85.8675 81.1256 90.8964 82.3324 92.6471 87.587C92.976 88.5781 92.4429 89.6487 91.4522 89.9778C91.2556 90.0421 91.0514 90.0762 90.8548 90.0762H90.851Z" fill="black"/>
<path d="M65.7997 75.2633C63.7125 75.2633 62.0186 73.5686 62.0186 71.4803V66.2976C62.0186 64.2094 63.7125 62.5146 65.7997 62.5146C67.8868 62.5146 69.5808 64.2094 69.5808 66.2976V71.4803C69.5808 73.5686 67.8868 75.2633 65.7997 75.2633Z" fill="black"/>
<path d="M85.2909 75.2633C83.2037 75.2633 81.5098 73.5686 81.5098 71.4803V66.2976C81.5098 64.2094 83.2037 62.5146 85.2909 62.5146C87.378 62.5146 89.072 64.2094 89.072 66.2976V71.4803C89.072 73.5686 87.378 75.2633 85.2909 75.2633Z" fill="black"/>
</svg>
