<svg width="13" height="13" viewBox="0 0 13 13" fill="none" xmlns="http://www.w3.org/2000/svg">
<path fill-rule="evenodd" clip-rule="evenodd" d="M10.4948 3.19497C10.7681 2.92161 10.7681 2.47839 10.4948 2.20503C10.2214 1.93166 9.7782 1.93166 9.50483 2.20503L6.4998 5.21005L3.49478 2.20503C3.22141 1.93166 2.7782 1.93166 2.50483 2.20503C2.23146 2.47839 2.23146 2.92161 2.50483 3.19497L5.50986 6.2L2.50483 9.20503C2.23146 9.47839 2.23146 9.92161 2.50483 10.195C2.7782 10.4683 3.22141 10.4683 3.49478 10.195L6.4998 7.18995L9.50483 10.195C9.7782 10.4683 10.2214 10.4683 10.4948 10.195C10.7681 9.92161 10.7681 9.47839 10.4948 9.20503L7.48975 6.2L10.4948 3.19497Z" fill="#838991"/>
</svg>
