<svg width="12" height="12" viewBox="0 0 12 12" fill="none" xmlns="http://www.w3.org/2000/svg">
<path fill-rule="evenodd" clip-rule="evenodd" d="M4 3.5C4 2.96957 4.21071 2.46086 4.58579 2.08579C4.96086 1.71071 5.46957 1.5 6 1.5C6.53043 1.5 7.03914 1.71071 7.41421 2.08579C7.78929 2.46086 8 2.96957 8 3.5C8 4.03043 7.78929 4.53914 7.41421 4.91421C7.03914 5.28929 6.53043 5.5 6 5.5C5.46957 5.5 4.96086 5.28929 4.58579 4.91421C4.21071 4.53914 4 4.03043 4 3.5ZM4 6.5C3.33696 6.5 2.70107 6.76339 2.23223 7.23223C1.76339 7.70107 1.5 8.33696 1.5 9C1.5 9.39783 1.65804 9.77936 1.93934 10.0607C2.22064 10.342 2.60218 10.5 3 10.5H9C9.39783 10.5 9.77936 10.342 10.0607 10.0607C10.342 9.77936 10.5 9.39783 10.5 9C10.5 8.33696 10.2366 7.70107 9.76777 7.23223C9.29893 6.76339 8.66304 6.5 8 6.5H4Z" fill="#CBD0D5"/>
</svg>
