<svg width="40" height="40" viewBox="0 0 40 40" fill="none" xmlns="http://www.w3.org/2000/svg">
<g id="Property 1=Star Default">
<path id="Star 1" d="M18.195 3.78273C18.9194 2.26449 21.0806 2.26449 21.805 3.78273L25.2928 11.092C25.5844 11.703 26.1653 12.125 26.8365 12.2135L34.8658 13.2719C36.5336 13.4918 37.2014 15.5471 35.9813 16.7053L30.1076 22.281C29.6166 22.7471 29.3947 23.43 29.518 24.0957L30.9926 32.0591C31.2989 33.7132 29.5505 34.9835 28.072 34.181L20.954 30.3178C20.359 29.9948 19.641 29.9948 19.046 30.3178L11.928 34.181C10.4495 34.9835 8.70114 33.7132 9.00743 32.0591L10.482 24.0957C10.6053 23.43 10.3834 22.7471 9.89238 22.281L4.01868 16.7053C2.79862 15.5471 3.46644 13.4918 5.13425 13.2719L13.1635 12.2135C13.8347 12.125 14.4156 11.703 14.7072 11.092L18.195 3.78273Z" fill="#CBD0D5"/>
</g>
</svg>
