<svg width="56" height="56" viewBox="0 0 56 56" fill="none" xmlns="http://www.w3.org/2000/svg">
<circle cx="28" cy="28" r="28" fill="#FF4A22"/>
<path fill-rule="evenodd" clip-rule="evenodd" d="M28.0002 16C29.1048 16 30.0002 16.8954 30.0002 18V25.9996H38C39.1046 25.9996 40 26.8951 40 27.9996C40 29.1042 39.1046 29.9996 38 29.9996H30.0002L30.0002 38C30.0002 39.1046 29.1048 40 28.0002 40C26.8957 40 26.0002 39.1046 26.0002 38L26.0002 29.9996L18 29.9996C16.8954 29.9996 16 29.1042 16 27.9996C16 26.8951 16.8954 25.9996 18 25.9996L26.0002 25.9996V18C26.0002 16.8954 26.8957 16 28.0002 16Z" fill="white"/>
</svg>
