<svg width="56" height="56" viewBox="0 0 56 56" fill="none" xmlns="http://www.w3.org/2000/svg">
<path fill-rule="evenodd" clip-rule="evenodd" d="M35.5957 27.8566C40.9777 24.9412 44.6607 19.0245 44.6607 12.2004H11.3397C11.3397 19.0252 15.0234 24.9424 20.4063 27.8574V31.2451H35.5957V27.8566Z" fill="#838991"/>
<path fill-rule="evenodd" clip-rule="evenodd" d="M35.5957 27.8566C40.624 25.1329 44.1692 19.7894 44.6135 13.5338C44.6448 13.0936 44.6607 12.649 44.6607 12.2004H11.3397C11.3397 12.649 11.3556 13.0936 11.3869 13.5338C11.8312 19.79 15.3772 25.134 20.4063 27.8574V31.2451H35.5957V27.8566ZM34.2623 29.9118V27.0624L34.9606 26.6842C39.556 24.195 42.8352 19.3021 43.2766 13.5338H12.7238C13.1652 19.3027 16.4451 24.196 21.0412 26.685L21.7397 27.0632V29.9118H34.2623Z" fill="black"/>
<path fill-rule="evenodd" clip-rule="evenodd" d="M35.5958 36.2345C40.9779 33.3192 44.6609 27.4024 44.6609 20.5784H11.3398C11.3398 27.4031 15.0235 33.3203 20.4065 36.2354V39.622H35.5958V36.2345Z" fill="#F2F4F6"/>
<path fill-rule="evenodd" clip-rule="evenodd" d="M35.5958 36.2345C40.6241 33.5108 44.1694 28.1673 44.6137 21.9117C44.645 21.4716 44.6609 21.0269 44.6609 20.5784H11.3398C11.3398 21.0269 11.3558 21.4716 11.387 21.9117C11.8314 28.168 15.3773 33.5119 20.4065 36.2354V39.622H35.5958V36.2345ZM34.2625 38.2886V35.4404L34.9608 35.0621C39.5561 32.5729 42.8354 27.68 43.2768 21.9117H12.724C13.1654 27.6806 16.4453 32.574 21.0414 35.0629L21.7398 35.4411V38.2886H34.2625Z" fill="black"/>
<path d="M44.4312 23.3464C44.582 22.4454 44.6609 21.5209 44.6609 20.5784H11.34C11.34 21.5209 11.4202 22.4454 11.5697 23.3464H44.4298H44.4312Z" fill="#192028"/>
<path fill-rule="evenodd" clip-rule="evenodd" d="M35.5957 44.6115C40.9777 41.6961 44.6607 35.7794 44.6607 28.9553H11.3397C11.3397 35.7801 15.0234 41.6973 20.4063 44.6123V48H35.5957V44.6115Z" fill="black"/>
<path d="M40.4438 30.801H42.4603C42.4603 30.801 42.2167 38.7687 35.5956 42.0191C35.5956 42.0191 40.4438 37.3151 40.4438 30.801Z" fill="white"/>
</svg>
