<svg width="56" height="56" viewBox="0 0 56 56" fill="none" xmlns="http://www.w3.org/2000/svg">
<path fill-rule="evenodd" clip-rule="evenodd" d="M35.9473 33.1201C41.579 30.0695 45.4328 23.8784 45.4328 16.7378H10.5664C10.5664 23.879 14.4209 30.0707 20.0535 33.1209V36.6646H35.9473V33.1201Z" fill="#F2F4F6"/>
<path fill-rule="evenodd" clip-rule="evenodd" d="M35.9473 33.1201C41.2254 30.2611 44.9418 24.6435 45.3878 18.0711C45.4176 17.6308 45.4328 17.1862 45.4328 16.7378H10.5664C10.5664 17.1862 10.5816 17.6308 10.6115 18.0711C11.0574 24.6441 14.7746 30.2622 20.0535 33.1209V36.6646H35.9473V33.1201ZM34.6139 35.3313V32.3259L35.3122 31.9477C40.1572 29.3233 43.6079 24.1564 44.0511 18.0711H11.9481C12.3913 24.157 15.8427 29.3243 20.6884 31.9484L21.3868 32.3267V35.3313H34.6139Z" fill="black"/>
<path d="M45.1925 19.6341C45.3503 18.6914 45.4329 17.724 45.4329 16.7378H10.5665C10.5665 17.724 10.6505 18.6914 10.8069 19.6341H45.191H45.1925Z" fill="#192028"/>
<path fill-rule="evenodd" clip-rule="evenodd" d="M35.9474 41.8856C41.5791 38.8351 45.4329 32.644 45.4329 25.5034H10.5665C10.5665 32.6446 14.421 38.8362 20.0536 41.8864V45.4313H35.9474V41.8856Z" fill="black"/>
<path d="M41.0205 27.4346H43.1305C43.1305 27.4346 42.8756 35.7717 35.9475 39.173C35.9475 39.173 41.0205 34.2508 41.0205 27.4346Z" fill="white"/>
</svg>
